/* XPM */
static char *_1121dbb295b4af98505d4e6f467e662S4nT3iGO3EMJ0WXD[] = {
/* columns rows colors chars-per-pixel */
"70 70 237 2 ",
"   c #190C1E",
".  c #0E0B2D",
"X  c #150C2D",
"o  c #1C0D2D",
"O  c #150A28",
"+  c #0D142A",
"@  c #1C1526",
"#  c #15152D",
"$  c #1B142D",
"%  c #14192D",
"&  c #1C192E",
"*  c #1A1625",
"=  c #0C0B34",
"-  c #140E34",
";  c #1B0D34",
":  c #140C3B",
">  c #1C0D3B",
",  c #150434",
"<  c #0D1A35",
"1  c #0E173A",
"2  c #151433",
"3  c #1C1434",
"4  c #151A34",
"5  c #1C1934",
"6  c #15143B",
"7  c #1C143B",
"8  c #151A3B",
"9  c #1C1A3B",
"0  c #240D2B",
"q  c #21142D",
"w  c #22192D",
"e  c #2A162A",
"r  c #351B2B",
"t  c #230D34",
"y  c #230D3B",
"u  c #2A0C37",
"i  c #221434",
"p  c #2A1533",
"a  c #221A35",
"s  c #2D1C35",
"d  c #22143B",
"f  c #29143C",
"g  c #221A3C",
"h  c #2A1B3B",
"j  c #361836",
"k  c #18223D",
"l  c #002230",
"z  c #2B2C2E",
"x  c #38292E",
"c  c #23223D",
"v  c #2D253D",
"b  c #2C2837",
"n  c #37273A",
"m  c #363236",
"M  c #411F2A",
"N  c #411C33",
"B  c #482734",
"V  c #552734",
"C  c #493637",
"Z  c #583637",
"A  c #4E2829",
"S  c #693937",
"D  c #773B33",
"F  c #4D463A",
"G  c #764A2A",
"H  c #6A4635",
"J  c #784638",
"K  c #664A33",
"L  c #71763E",
"P  c #0D0E42",
"I  c #1A0D42",
"U  c #160E45",
"Y  c #171342",
"T  c #1D1542",
"R  c #151A42",
"E  c #1C1A43",
"W  c #1D154B",
"Q  c #141D4A",
"!  c #1C1B4A",
"~  c #1E1C53",
"^  c #1D1857",
"/  c #131049",
"(  c #220D41",
")  c #280E47",
"_  c #221543",
"`  c #2A1543",
"'  c #231A43",
"]  c #2A1B43",
"[  c #23164B",
"{  c #2A154B",
"}  c #241B4B",
"|  c #2A1C4B",
" . c #321C4C",
".. c #321946",
"X. c #241653",
"o. c #2A1553",
"O. c #241B53",
"+. c #2A1C54",
"@. c #25165A",
"#. c #251B5A",
"$. c #2B1C5C",
"%. c #2A155B",
"&. c #311C54",
"*. c #331759",
"=. c #2A0F50",
"-. c #1C2242",
";. c #1E224B",
":. c #1B2B49",
">. c #192B57",
",. c #193757",
"<. c #10324B",
"1. c #252143",
"2. c #2B2245",
"3. c #24234C",
"4. c #2B234C",
"5. c #2D2A4B",
"6. c #212C47",
"7. c #31244B",
"8. c #342847",
"9. c #232453",
"0. c #2C2353",
"q. c #26205C",
"w. c #2C225C",
"e. c #282B56",
"r. c #342554",
"t. c #332A53",
"y. c #32245C",
"u. c #342C5C",
"i. c #3B2A5C",
"p. c #392751",
"a. c #38325B",
"s. c #2F3251",
"d. c #251B62",
"f. c #2B1D63",
"g. c #2C1C6B",
"h. c #261866",
"j. c #321B64",
"k. c #321C6B",
"l. c #351A64",
"z. c #2A1C74",
"x. c #331B71",
"c. c #1B376D",
"v. c #1E336A",
"b. c #252264",
"n. c #2C2263",
"m. c #2B236C",
"M. c #2B2C68",
"N. c #332364",
"B. c #3A2C64",
"V. c #32216C",
"C. c #362B68",
"Z. c #3B3567",
"A. c #2D2472",
"S. c #343073",
"D. c #451D40",
"F. c #442A45",
"G. c #542A41",
"H. c #463644",
"J. c #462858",
"K. c #4C3554",
"L. c #613D43",
"P. c #733E43",
"I. c #511F64",
"U. c #43386C",
"Y. c #473976",
"T. c #50306C",
"R. c #623C63",
"E. c #1D425F",
"W. c #15486D",
"Q. c #1C5669",
"!. c #174975",
"~. c #154E78",
"^. c #245472",
"/. c #2B496E",
"(. c #207C79",
"). c #584943",
"_. c #5B5542",
"`. c #664D4A",
"'. c #764643",
"]. c #785749",
"[. c #704D4F",
"{. c #787647",
"}. c #726A4A",
"|. c #4B437C",
" X c #55437F",
".X c #985739",
"XX c #8B4C3C",
"oX c #896439",
"OX c #946A36",
"+X c #AC6939",
"@X c #BB723D",
"#X c #B46F37",
"$X c #A8543C",
"%X c #C2763A",
"&X c #895947",
"*X c #9A614E",
"=X c #B57844",
"-X c #AE6D45",
";X c #9A5D62",
":X c #C07347",
">X c #B78C37",
",X c #D7883D",
"<X c #E79039",
"1X c #D2A339",
"2X c #FFC13F",
"3X c #B88649",
"4X c #BC8B4F",
"5X c #CE8A48",
"6X c #E69248",
"7X c #D5A14D",
"8X c #EFA94D",
"9X c #F9C345",
"0X c #2F2481",
"qX c #4D3E82",
"wX c #563D88",
"eX c #165A88",
"rX c #125E8B",
"tX c #295683",
"yX c #156589",
"uX c #156797",
"iX c #137193",
"pX c #296A84",
"aX c #267586",
"sX c #1874A3",
"dX c #554688",
"fX c #574892",
"gX c #685498",
"hX c #6552A2",
"jX c #1389B7",
"kX c #0F87B1",
"lX c #1897C7",
"zX c #0D9ACD",
"xX c #12ADDB",
"cX c #0AA5C3",
"vX c #17BCF2",
"bX c #14C5F1",
"nX c #0EC2ED",
/* pixels */
"w.q 7 9 6 i d 2 3 a 3 3 _ } 7 3 4 d 9 i 2 0.1.3 a 7 d 7 q d 3 5 7 3 E E p & 3 5 d 4 T 0.g - 7 _ d a q g 3 5 7 ' ! h 3 3 3 9 3 3 r.' 4 3 3 _ ",
"7.a 7 3 _ d d O.7 d ' 3.$ 5 7 7 _ 3 3 a 3 ` } 3 g 3 5 6 ! ' g > 2.g 3 2 7 7 7 7 d # f 7.; 9 w # 7 E O.7 9 ' h 3 7 6 3 g 3 3 9 3 ..9 7 d 9 7 ",
"8 g  .g T & a #.} i 7 | 7 g 3 5 a [ [ 3 ' 7 3 2.' 5 3 3 { | 7 g } 3 7 d 6 4 ' T & a R $ g r.3 _ 5 E O._ 3 g c [ g 3 5 7 { } 2 R 4 3 7.d 4 a ",
"E.+ ' 9 6 6 7 f 7 $ 3 [ f.} 3 3 l *.O.7 :.aX; ' ` 3 9 ' d d 7 & 3 5 g 3 w 3 > & C.o.aX:.3 _ i 8 3 T f i 3 7 O.$.7 3 8 W h.f & /.^.2 ] d T 3 ",
"a _ j._ 7 a 0 4 g d E $.f.d 3 E o.N._ * g 9 d #.` 9 t j - 7 3 ' [ g 3 4 t uXsXi hXa.2 h %.q.i ; p > 4 % d O.f.o._ a 7 n.y.d 3 8 9 ` @.` 3 % ",
"& E k.%.o .X.XT dXt.7 +.9 7 3 g %.` 9 7 7 # g f.w.: Z @Xa U.U.; f.} [ r.> jXjXt 2.5 4 $ ^ m.T s @XZ y.|._ %.O.3 > 9 T O.y a ' 2 7 g m.O.t XX",
"| 3 d ' 3 &X.X7 dXi.3 9 3 g 7 3 _ g X d [ 5.& > O.6 Z @Xe Y.Y.i _ | T 2.$ :.<.> _ T &.c 3 } 7 N %XZ *.fXd d 4 3 9 3 ' ' 7 3 3 2.} $ [ R y XX",
"d g 6 & # d p 3 7 _ 7 3 7 7 7 7 8 3 5 3 5 4.7 a 7 $ 5 j I g R d 7 T 4 3 7 > T +.k.9 1.f i 1 t < u 3 5 ' d 5 7 _ 3 g 3 3 3 g & [ 3.q 3 w 6 i ",
"d 7 7 ' g 2 ' @.#.g X.g _ 3 T 9 T a 2 7 7 3 7 9 9 h g R ` O.} i 5 T 7 > z a d #.[ 5 T g 5 T } T _ [ O.o.9 } g 3 7 3 } 7 _ $ 7 5 9 3 9 g ' d ",
"$.d # a.Z.> | N.f.3 > 4.h } T 5 } 4.2.7 7 } } X | |.- } k.d.` [ f.7 ' > {.v 7 d a 7 E [ 4 q |.v [ 9.j.#.3 _ 4.] 7 5 d g 0.' 7 3 } ' : a.Z.3 ",
"5 9 7 3 7 T q.g.{ a $ 5 c 0.g @ & > r.9 3 a 3 g d 3 q O.A.+.a 1 I.O.% T 7 } 9 7 d t T _ 3 7 T $ 7 n.k.7 d 2 9 4.5.3 @ 3 _ w.7 a 7 5 3 g 3 7 ",
"i d 3 g 7 } %.o.' _ X.9 3 3 7 X.g d 7 g 7 3 5 7 6 7 ! f.X.| 3 ..7X'.O & 7 ' 9 i 6.tXt % 7 a d R g.X.{ T 9.7 d 3 3 ' } a 7 $ 3 3 3 g 5 3 7 O.",
"7 3 5 3 d { >.~.3 T ' i 7 7 & } 3 7 3 3 3 3 g > g 9 9 ` !.O.3 n =X).$.] & 3 9 d -.W.( 5 4 d i 9 ` c.c.u E T d 5 7 T _ 7 T h 9 7 7 ; 7 9 7 } ",
"#.d 8.' y 3 eXbXA.# m {.> a 9 - {.m 3 7 [ #.I 7.&.5 3 >.nXuX{ Y.u > k 0.0.# 5 2 r.q } } ] u.3 a d zXcX7 ; _._.. 7 ' z {.7 O $ W 0.` t.g 3 g ",
"A.O.9 4 d ; ,.yX3.3 & v g _ 3 3 h g 3 $ 7 n.N.g _ 4 3 R eXv.{ h g 3 3 3 i { 7 7 g g } k.! i 9 i q ~.~...5 g g T 3 5 a 2.7 d g ' g.O.T 7 7 g ",
"_ o.[ g & 9 3 y 3 9 W - 3 5 7 d 7 3 7 9 3 T #.' $ i ` & 6 3 3 & 3 7 7 g 3 3 7 ' } 3 7 %.{ 7 7 9 3 y ; 7 5 7 3 i 7 a 3 3 7 7 3 2 [ $.7 3 5 7 ",
"n 6 9 9 7 % E i 5.g a 7 7 T d 7 i 4 [ 6 q Z Y ' 3 7 3 g 3 2.' } 4.g o.T 5 3 g h.X.2 C i 9 ( 2 p 3 3 a 5.7 7 9 T 5 T 3 g T g 7 n B 1 2 d & 2 ",
"4Xp 3 d i * 9 [ N.> a _ V.O.5 i T k.*.= OX9XC 2 7 3 9 7 ' | 2.` ` } #.T 7 d i ' yXF 2X*X- g 8 3 7 7 } 0.3 5 } N._ g 2 f n.^ ; 1X7Xi W a 3 7 ",
"oX> 5 7 ]  XI j.d 5 0.+.g.` > 9.2.f.d.: F >Xh 3 a 3 |.| O.W - g 3 ' O.T h 4.a ; ,.n >XF : i 6 S.Z.X.#.W g 7.O.g.T I e.E k.W 3 OXOX3 3 i 4.Y.",
"& 9.5 T 3 } } { g 4 9 4 W P.S 5 g ! G.XXi f f.7 2 g } } | W h 4 3 5 3 3 9 1.7 T ; I & ' } t 3 ] ' _ } 3 3 d _ | XXB g f @.P.S 3 ' ^ 7 d 3 4.",
"7 3 3 T a % 9 3 3 3 d c y -X-X2 g P P.<Xs 6 5 3 a 7 3 7 3 3 7 7 7 3 & 9 7 3 3 } | 3 5 R 2 d 5 & 3 3 g $ $ ` d 2.6XS 3 g > #X=X: 3 R 9 9 * 3 ",
"( g 9 5 7 9 6 9 Y ] ; 7 _ N j 7 _ | q V 8 a 3 7 9 : 5 3 g & g 3 3 _ ' 7 9 h ' & > 7 9 7 3 7 7 T 3 g 3 E 9 : d d B g 3 _ Q j N 1 f 3 9 3 3 7 ",
"d ; $ 5 3 g i g 5 5 7 9 9 3 7 5 i 3 _ T ; & f 7 9 7 g 7 2 7 7 g d o.' T - ' | 7 k 6 d p g 4 7 3 g 3 3 3 7 3 9 } 2 3 3 d h T : a y d * E _ d ",
"4 g q _ g W 3 3 d 7 a _ d.} q 7 # h.#.d g E % 7 7 3 _ 3 g T 9 7 O.} ' r.7 i [ $.i h 7 3 3 3 i g _ 3 3 9 g 3 } O._ 7 3 [ O.{ a 7 8 9 g ; g [ ",
"i d T 3.| 7 7 4 r.g i k.n.i a ; %.A._ $ |.| $ 5 1.+.d 4 4 ....E A.} C.hXg _ z.| . U.t.i 4 f 5.} 3 a ] r.3 d x.O.5 3 7 f.f.> 2.qXq 7 7 0.' 9 ",
"=XC w.5 i 3 d 3 -.E.y $.! $ g R | 1.3 7 [ &XXXq.4.9 g > 5 a ,.M.V.7 h r.9 | #.g _ > L.+X] y.3 3 6 3 t >.:.| #.7 7 a } #._ a 3 ] -XC 0.9 9 7 ",
"7X].X g 7 _ g ; 3.pX( 7 < f E 9 _ 9 2 9 q =X4XO q 4 i O.' > pXA.7 4 3 ; 2 g 7 7 d 6 H 8X8.3 5 a } g o ^.^.> _ g 7 3 E T ; a 3 n 8X].. W a _ ",
"T.{ & ` o #.3 g 7 7 7 & 9 7 > 5 7 5 7 d y &.J.[ 9 # 7 O.3 3 3 7 7.h 7 7 g 7 $ ` 3 % ' T.[ 3 4 , W ' $ 3 7 7 4 3 3 h 3 3 ' 3 a - I.*.@ a o T ",
"$.' 3 : {.b 6 d 7 y ' 7 7 $ 5 _ } $ 3 i 7 ;.O.$ , `.`.= 3 $ 7 5 | h 7 3 d T 9 7 7 d ^ h.i y n {.T > 9 q 7 O.f i & 3 _ 7 7 5 3 X.z.8 9 > {.z ",
"7 d 3 7 m s d d.! $ 3 0...g i 7 } 7._ 9 d 9 R a 1 n z 7 ` [ ' 3 2 g 4.3 7 ' 2.1.3 a _ _ & & g s.% f o.} 3 7 4.k [ 3 9 0.4.g 3 7 _ 4 3 3 8.g ",
"i _ 5 3 3 % # f.q.k i 3 ' i.# g 3 d y.' 7 3 3 _ @ 8 3 ( #.g._ 7 c ,.d 3 3 q i 3.5.3 3 i T 8 7 X 5 9 b.o.3 4 9  .O.3 3 3 T r.7 & i 7 5 3 g $ ",
"9 #.' ] 3 ~ 9 d o.f E a 9 3 7 [ 9 % g ; 9 9 } ' 4.d 3 <.y 3.T t ;.aX; 9 ;.f 7 T 7 5 3 ` | E h t >.g W } ] T f 4 & T ' 5 9 3 7 3 _ O.' h 7 W ",
"$.o.[ 5.: jXjX3 a 9.[ : 9 5 h O.2 2 E 5 3 } x.7 9.u eXxX:.f ' 3 7 d a 1 h I d q T 3 9 $.o.] k ;.xX~.y ] ! 6 ; 4 5 _ } 2 # _ 7 7 $.} [ 8.7 sX",
"` E 7 3 > sXiXd gXw.s {.- 9 2 - }.n ; 7 7 o.E a d o W.lX8  X|.3 T g ; } = )._.= 5 $ ' } d 5 2 3.lXW.B.gX> _.`.- E ; n }.; 5 5 f +.d T 7 1 iX",
"9 9 9 5 i 6 Y g T.3.a C ; 9 9 7 C ' 3 3 3 d & 3 3 7 5 Q # N.B.{ 3 9 $.` 8 n 5.3 3 g 9 7 7 3 T % R X ] U.6 b b : 9 7 ] H.> 3 5 7 6 3 3 g 3 9 ",
"3 a $ 3 a 7 g @ 3 4 7 ; 3 T d * : 4 9 9 T 7 3 E 3 7 5 3 9 5 9 X.& 7 n.{ % # : 3 g T 7 a g 7 ' 3 g a 5 7 7 ; 7 a g 6 O + 5 g 3 E _ 3 g E 3 ; ",
"d _ 3 q ) O.R d g 4 7 i _ d ' u.d r 3 3 X.' d $ a ; } o.3 $ 5 3 a d T d B.6 M _ 2 } } 7 3 $ w X.X.7 7 _ i i a E i 5.3.e j - _ { 3 3 * i 7 { ",
"u.dXE 9 j.l.3 7 y 3 5 3 g.7 ' S.J <XB b.f.| wXy.3 #.l.` g 3 3 9 I O.N.3 Z.F.<XG W A._ Y.Y.& T k.| 9 3 3 9 2 T k.6 p.y.#X=X3 N.O.B.dX' d k.g.",
"w.dXT { b.Q % E f 9 v +.z.o.t : H ,Xj 0Xj.a dXt._ b.~ < 3 7 5 4.| 9.j.u P j ,XS z.A.o U.Y.2 h.w.3 9 3 d h 5.#.V._ d > +X+X@.A.W 0.dX7 _ l.' ",
"d * 5 o.7 f 3 3 4 a ' W X.Z G.h.y h #.$.3 % i 2 _ E d i i 4 7 g ] W 8.S  .[ e O.h.T 3 f 3 7 O.3 9 3 d 7 9 g E o.D ..#.i [ O.} _ 7 ; a O.W 4 ",
"9 ; g 3 7 a y 9 9 i q R ( #X=X%._ W g g ' 7 a d i 7 3 6 7 9 3 3 g : '.6XI.} 3 } _ } 5 ( g 9 3 d d 3 5 g 7 7 7 N 6X'.%.R E _ 3 T 2 9 % d 7 6 ",
"3 i 9 R 3 7 _ & 7 % 7 W 7 V V W f 5 6 | ] 5 3 T 5 2 ] 8 d 3 7 7 7 } e S Y _ 9 7 a 5.$ g 2 3 f 8 3 [ i $ 2 g ' T Z j ) f a @ i.i _ 7 7 3 ' 7 ",
"a 9 9 g ] i 6 3 _ B.3 i ' 2 -.^.$ 7 E 0 C.E 4 # 9 4.d 7 2 ..-.7 3 3 3 o ^.9 $ 9 T 6 5.d 7 E _ 3.3 4 2 u.e.3 a 8 y c.E.O _ 7 ' S.- 5 3 h ' ' ",
"1.U 7 7 ..0.E B C C.3 | f * e.~.a 4.d a S.H.M |  .' 7 ' 3 '  .y ' $.% f tXc y.9 d u ] 3 d 5 4 ] 0.9 B J.N.$ | _ o /.,.2.4.% 2.B.Z s 0.| ' & ",
"i g 7 4 * ' g 4X3Xy ^ fXY.3 ' ; 3 c 3 7 ; 5X5X> ' 7 y 8 a ; iXe.B.hXg ` W o +.a o Q.Q.O f 7 a 7 ' F.8XXX/ *.hXB.7 d # ! ] 3 X B 8X].u 4 4 9 ",
"3 7 O./ o 4 ) [.'.` | r.B.6 5 ` $.9 5 7 7 '.[.P 3 # 7 9.0 5 ,.$.] Z.d 7 a O.( 9 $ e.9.2 d h.X 6 3 { ;XB Q ] B.3.9 0 O.^ q d 9 % *XK.: T X { ",
"3 3 6 n F.3 > l.d.E 3 9 4 | r.3 g.f.T $ 6 f.$.3 2 m 8.- 9 i 7 _ o 4 &.i.4 >.k.O.$ 3 3 3 & Y C b # 9 n.~ E 3 $ $ i._ _ x.&.7 E 7 f.~ 2 7 H.h ",
"' g = _.).: a 8 | T 9 @ d f 6 3 O.k.} 4 _ { d d - `.F 3 E _ y 4 4 i ; & 6 f k.o.T R i o.5 2 }.v 1 t | } 7 4 f 6 6 w a n.#.W q ` O.7 & ; }.m ",
"g.$.3 : I 4 y 4 7 5 7 7 7 } f 3 W O.$.T 7 3 g 3 5 7 - i h.w.9 i 3 5 [ } 7 3 o.$.' 3 E l.T % : t 3 a 7 3 3 g 3 _ o.6 5 T o.+.7 & d & 7 $ Y 3 ",
"b.d i a 4 7 ` ` d k $ i O.w.d 3.2.3 3 7 9 3 d W d 9 2 t ` q.W g 9 7 V.X.h t.3 _ 3 _ +.w._ d g 3 E 7 _ 7 5 3 7 $.o.} 5.' ' 6 7 3 9 ' _ 9 7 0 ",
"4 ' uX>.p u._ @._ 7 3 o [ n.;.E 9 g a 3 7 ' O.W t.i >.uXR 6 7 a 7 d d.9.o 3.4 f 9 3 R   ,.uX> e.4.} #.9 3 3 7 O.e.5 g _ 9 5 ' 7 X.#.f t.3 W.",
"r.>.nXrXq E d $.| 3 3.| X Q.Q.o } +.1.3 7 +.0.3 E ; iXvX<.J.a.3 ` 7 :.(.t Q 9.7.5 d Y.] eXbX<.7 g T $.[ 5 | _ 3 aX<._ =.7.9 7 3 &.} 5 _ 6 jX",
"Y.d !.o.@ 2 7 3 } 3 r.' d y d i f.} 3 ' _ 7 7 7 4 ; ' !.o qXwX] 2.4 d 0 3 o.o.3 7 &.gXw.W W.f q 3 3 ' 7 g 0.7 3 > $ } #.d f ` 9 E 6 7 I g <.",
"9 i # 3 9 _ 7 a 4 3 i & 7 ;.3 g _ 3 3 5 7 7 9 3 d 7 3 i # O.[ 7 g $ ;.E i { 4 9 T 7 _ -.$ 3 ; 8 E 5 $ 3 7 g % } } 3 7 ' 4 5 7 T 3 p g $ 7 # ",
"t.d 7 7 7 7 4 7 7 3 3 3 _ } 4 7 3 9 3 3 3 4.] $ 3 3 d 3 9 4 * 4 3 a O.W a 3 5 3 3 % i 5.3 7 d 5 7 3 3 a 3 7 5 _ _ 7 3 3 4 7 7 3 y.] $ a 3 7 ",
"| 3 g 5 i i g O.` 4 E r.$ i i 7 9 3 3 ' 7 7 9 _ 9 5 5 7 { { d 3 r.d ; 9 3 4 7 d i g _ g 5 _ 7 7 3 ' #.T 3 } 4.$ a 5 i d _ a 3 3 g 8 E 7 _ 4 ",
"E 3 r.g 7 d d #._ _ 9 d ' 9 T 7 3 X.} 5 E <.# | } $ 9 4 O.| 8 T 5 i T 3 E * 3 T 5 $ ,.5 g 9.i 3 3 ' O.T % _ _ } [ 3 $ T } _ 2 >.:.o 8.f 2 d ",
"v.# ' 5 5 3 3 3 3 * 7 #.f.} 9 $ k *.O.t 6.pX3 ] ` i T $ > i 3 a E 3 # 9 0 ;.! @ wX+.pX6.t | $ _ 7 3 3 > g 3 #.$.7 5 3 o.N.d $ /.^.7 d 9 8 3 ",
"5 | k.[ 3 j j : | 3 T $.$.7 & 3 *.f.7 3 g X ' $.O.3 i B > g 1.9 @.| 3 2 g jXkXd fXi.. ; +.b.d 7 j j $ ] ; } n._ a # ' n.X._ a 2 O } k.{ - s ",
"i 3 o.O.o -X-X3 gXB.T ' _ 3 3 ' #.Y g 3 7 3 5 h.g.6 S 5Xr |.Y.; #.o.f t.; sXiX7 g $ g d } n.T ..5XH w.gX| } } d d 7 T O._ 3 3 3 a 7 n.+.i .X",
"4.2 7 ! I J D 4 U.| 3 9 9 7 T 7 7 _ 4 a ' t.g 3 a 6 B $Xq Z.C.i 7 ! ' h - R 4 _ o.3 e.g $ 7 9 p .XA } Y.d 3 5 _ d ' 3 7 3 & 3 r.&.O 4 9 > P.",
"& g g # 3 a d 2 O._ ' g 3 3 7 g a ; d ; 9 u 3 5 4 3 > u W 9 W Y $ R 7 d 2 3 g f.n.9 u _ 5 4 ; % ) ; 5 } g a 2 d 3 9 7 3 3 7 3 3 d g ' $ 6 g ",
"' T 3 | 4.2 W r.o.[ 9 7 9 a 7 3 } g 4 4 4 f ' 6 } i.5 ! +.o.} a ` 3 a 2 ).s 7 @.` 3 T [ 3 i B.{ E ! O.#.> } 3.3 3 7 g _ T 7 ; g E i d +.9.* ",
"| ! . K.y.8 f.f.o.g 7 | 0.' 3 _ 7 p.4.g 4 O._ 3 | Z.# #.$.$.} f z.R 4 1 ].b 2 i 4 4 d } 9 1 T.-._ $.g.{ a > 4.2.} 3 g ] 4.4.3 5 O.d + i.B.7 ",
"3 5 7 2 $ _ f.k.! T a d 5 3.T 7 5 3 4.3 5 g 3 g i - 7 $.g.f.5 6 R. .3 d , ~ E & i W i 3 > 7 $ 3 O.n.&._ 6 9 3 ` } 3 5 3 5 0.7 $ T 5 _ 3 2 _ ",
"4 g d 4 5 | %.} f [ ! : 7 a a O.7 3 3 9 7 3 3 3 3 5 E l.[ _ 3 n 8X].; 5 & 7 } 0 :.aX; 9 < f g 6 $.X._ _ O.d 3 E 3 ` | : 3 3 ; _ 3 * 5 7 3 } ",
"7 i ` 9 3 T c.uXR 7 f n > & 3 7 8.a 3 7 3 T T g _ 3 4 #.iX>.0 4..XF.0.1.g 9 - f ' e.d 7 g g - ' _ eXeX> 7 5.b ; % 7 ` m 7 3 g 7 T 3 g 9 3 } ",
"q._ t.d f 2 yXnXM.3 m {.> & 7 I L m 7 7 7 0.W 2.4.7 i <.bXyX| qX- 8 9 ] o.9 k $ t.d } #.' 5.7 g 3 zXlX! = _.K : } 7 v L I @ a T $.} 4.g 3 7 ",
"g.O.5 8 7 f Q c._ 9 5 - d _ 7 3 ; I d 3 7 $.d.' 7 d a % c.d._ 4 a 9 9 i 7 ' 3 7 2 k ) V._ d 9 5 t ,.>.) 4 d ; a & i 7 > a I ' g n.o.' 9 3 5 ",
"{ O.' 3 a 3 5 3 9 7 7 a T 3 9 7 a g 7 g 7 3 | { 5 7 7 9 ; 3 7 p t T T 5 i i 3 | &.3 d [ | 3 7 7 7 i 3 T 8 i 3 7 5 7 _ $ _ 3 3 3 } X.g 7 7 7 "
};
