/* XPM */
static char *_169d5c3daac49d2df0a760346cbc1b8E1Mm0gPKvCIH79qp[] = {
/* columns rows colors chars-per-pixel */
"64 64 46 1 ",
"  c #000209",
". c #00040B",
"X c #00050C",
"o c #00060D",
"O c #00070D",
"+ c #00060E",
"@ c #00070E",
"# c #00070F",
"$ c #01080E",
"% c #00090E",
"& c #00080F",
"* c #02090F",
"= c #010A0F",
"- c #010810",
"; c #000910",
": c #020911",
"> c #010A11",
", c #000B11",
"< c #030A10",
"1 c #020B10",
"2 c #030A12",
"3 c #020B12",
"4 c #040811",
"5 c #040B11",
"6 c #040B13",
"7 c #030C11",
"8 c #030C13",
"9 c #040D14",
"0 c #050E15",
"q c #060F16",
"w c #071017",
"e c #081118",
"r c #091219",
"t c #0A131A",
"y c #0B141B",
"u c #0D161D",
"i c #0F181F",
"p c #111A21",
"a c #141D24",
"s c #172027",
"d c #192229",
"f c #202930",
"g c #2E373E",
"h c #353E45",
"j c #374047",
"k c #444D54",
/* pixels */
"####---####--666O*O*O*O**********-,-,,9,,-8,-8,---***********O*O",
"--------###-6---*O*O*O*O********,-,-5-85,--,,-,-5-**********O*O*",
"--------#-------O*O*O*O**********,,,-,-8-88-,-,8*************O*O",
"----------6#--#-*O*O*O*O********---,8-,8,,-,-8,-************O*O*",
"--------6--6-###O*O*O*O**O****5*---,--88,,-,-8,-***********O*O*O",
"-----6---6----##*O*O*O*OO*O****5,-8,,,,8-88-,-,8************O*O*",
"--66--66-6------O*O*O*O*O*O****5--8--,8-,--,,-,-***********O*O*O",
"6---6----#------*O*O*O*OOO****55-,-,,-88,-8,-8,-************O*O*",
"6------6666-----O*O*O*O*OO***555,,,--,,-,8-,8-,8*********O*O*O*O",
"--6666--6---6---*O*O*O*OOO*****5,-,,8--8,--,-,,-********O*O*O*O*",
"-6----6-66-6----O*O*O*O**O****6*,--,,,,,-88--,,-*********O*O*O*O",
"--6--6---6--66--*O*O*O*OO****5**,8-5-8--,-,,8-,8********O*O*O*O*",
"66----66-66-----O*O*O*O*********-8,-8--8,-,,-8,-*********O*O*O*O",
"---66---66---6--*O*O*O*O********,-,-,,,,-8-8,-,-********O*O*O*O*",
"---66---6--6-6--O*O*O*O*********,-,8-,,-,8--,-,8*********O*O*O*O",
"66----6-66-6----*O*O*O*********#-8,-8--8,-,,-8,-********O*O*O*O*",
"--6---6-66-6----6--6---66---6--6,,-6-6-,-6-,-,,,*********O*O*O*O",
"-6--6-6--6---6--6--6-6----6-6--66-,,,,,-,,,-,-6-********O*O*O*O*",
"--66-6---66---------6-6--6-6-----,-,-,,6-,,6,6-,*********O*O*O*O",
"6------666--6----66---6--6---66-,-,-6,,-6,,-,-6,********O*O*O*O*",
"---666--66-6-6---66---6--6---66-,,-,-,,,-,,6,6-,*********O*O*O*O",
"66-----6-6----------6-6--6-6----6-6,,-6-,-,-,-,-********O*O*O*O*",
"--6----6-66-6---6--6-6----6-6--6-6-,,6-6-,-,-,-,*********O*O*O*O",
"-6--66--66--6--#6--6---66---6--6,,,-,-,,,-6,6,,,********O*O*O*O*",
"--6-6---66----66---6-6----6-6----,,6-,,65-,,,6--****************",
"6-6---6----66----6---6-66-6---6-6,,-,-,-,-,-,-6,****************",
"-6---6-6---66---6-6---6--6---6-6-,,,-,-,,6,--6-,****************",
"---6-6--66----66--6-6------6-6--,-6-,-6,,-,,,,,-****************",
"6--6--6---6--6---6--6--66--6--6--6-,,,-,,*-,-9,5****************",
"6--6-6---6----6---6-6--66--6-6--,,,-6-6,---,,-9,****************",
"------66--6666--66------------66-,,6-6-,-,-,-8,9****************",
"-66-6---6------6---6-66--66-6---6,,-,,,-----,,5,****************",
"44446----6-,-,6,,,-6-6-,-6-,-,,,-,-,,,-,-,-*88-w=,====%%========",
"4444--66,,,-,-,,6-,,,,,-,,,-,-6-,-,-6-6,*,-*8--9,=====%%========",
"4444-6---,,6,6,,-,-,-,,6-,,6,6-,,,-6-6-,#-**8,-8=5====%%========",
"4446--6-6,,-,-,,,-,-6,,-6,,-,-6,6-,,,,,-*,--98-8,=====%%========",
"4444-6---,,6-,,,,,-,-,,,-,,6,6-,,,-6-6-,*8--99,9*5====%%========",
"4444-6-6,-,-,-,,6-6,,-6-,-,-,-,-6-,,,,,-*w,,e989w=====%%========",
"4444--6--,-,,6,,-6-,,6-6-,-,-,-,-,-,,,,6,9--99-w=======%========",
"44446--6,-6,,-,,,,,-,-,,,-6,6,,-,-,-6-,--8--99*9=======%========",
"44446----,-6-,,,-,,6-,,6-,,,-,,6#5e-#-,-,*,-O*af======%%========",
"44444--66,,,,-,,6,,-,-,-,-6-6,,--ee,--9-,*-89dhk7=====%%========",
"4444---6-,,,,,,,-,,,-,-,,6-6-,,,9yy9-,,--*-,9sgj=7====%%========",
"444466--,-6-6-,,,-6-,-6,,-,,,-6-9ee9-5,-,-,-#,y87=====%%========",
"4444---6-,,,,,,,-6-,,,-,,6-,-6-,,99,-,9-,--,--* =7====%%========",
"4444-6--,-6-6-,,,,,-6-6,,-,-,,,---,--,,-9,99-yi,7=====%%========",
"44446-6-,6-6-,,,-,,6-6-,-,-,-,,6,---,,-,,-5,-ypw=7====%%========",
"4446--6-,-,,,-,-6,,-,,,-6,,-6,,-5-,,8--,#*,--yiw7=====%%========",
"----6---6--6-----,-6-,-,9-9-8,9,,-6,6,,-885,-99,=7====%%%%======",
"646---6-6--6-6-66,,,,-,-,9,8-9-8,,-,-,-688--,9,-7=====%%%%====7=",
"-6---6-6-------6-,,,,,-68-9-8,8-6-,-,-,,8-,,998,=7====%%%%=====7",
"---6-6---66-66--,-6-6-,,,9,8-9,9-,-6,,-,8,--,-,-7=====%%%%====7=",
"6--6--6-6------6-,,,,,-69-8,9-8,,-,-,-,-,,--,9--=7====%%%======7",
"6--6-6----66-6--,-6-6-,,,8-9,8-9,6,,-6,6---,-,,-7=====%%%=====7=",
"------66-6--6-6-,6-6-,-,9,9,9,9,6,6-,,-,,*--,,--=7=====%%%=====7",
"-66-6-----6---6-,-,,,-,,-8-8-8-8-,-,-,,,-,---,,-7======%%%====7=",
"-66-6---6-6---6-,,--,5,-8-88-88-,-,,6-,,8-,8-,8-========%====777",
"------666---6-6--,,,,-,,88,-8,88,,-,-,-6-,,--,-,========%====777",
"6--6-6-----------,-,----,8,88,8,6-,-,-,--,,-8,-,========%====777",
"6--6--6----------,---,,-8-88-88--,,6-6,,8-,8-,8-========%===7777",
"---6-6------------------8-888-886,,-,-,--8--,--,=============777",
"-6---6-6--6----6,-,,,,,-,88,,88,-,-6,6,,,,,,,5,,============7777",
"6-6---6-666-6-96-88,8,,88--8-89-,-,,6,6-8--,-,,,========%====777",
"--6-6---666666668898898888,885,9,,-,-,-,-5,,-5==========%===7777"
};
