/* XPM */
static char *collect1669747433[] = {
/* columns rows colors chars-per-pixel */
"64 64 253 2 ",
"   c #00060D",
".  c #01090E",
"X  c #090E0D",
"o  c #040705",
"O  c #0C120D",
"+  c #081408",
"@  c #12160E",
"#  c #16190D",
"$  c #1A1D0D",
"%  c #161904",
"&  c #020611",
"*  c #020A11",
"=  c #0A0D12",
"-  c #030A1A",
";  c #0B1212",
":  c #0A131A",
">  c #081418",
",  c #151815",
"<  c #110D0C",
"1  c #251D11",
"2  c #1C230B",
"3  c #17221A",
"4  c #23240C",
"5  c #2C2C0D",
"6  c #26290C",
"7  c #37360B",
"8  c #323012",
"9  c #151B24",
"0  c #051522",
"q  c #1A2428",
"w  c #182933",
"e  c #24292A",
"r  c #262B32",
"t  c #2A3539",
"y  c #363B39",
"u  c #30322C",
"i  c #201B21",
"p  c #560C04",
"a  c #790903",
"s  c #771303",
"d  c #691300",
"f  c #49370F",
"g  c #712E09",
"h  c #4C362D",
"j  c #6F312D",
"k  c #3C450A",
"l  c #34412F",
"z  c #48440B",
"x  c #564B08",
"c  c #59510A",
"v  c #514C12",
"b  c #665606",
"n  c #684C0C",
"m  c #696309",
"M  c #514937",
"N  c #6F502A",
"B  c #766A33",
"V  c #333C44",
"C  c #393B45",
"Z  c #323346",
"A  c #4F3E48",
"S  c #663D43",
"D  c #3B454C",
"F  c #3D4B4D",
"G  c #364347",
"H  c #3D4A54",
"J  c #354D4D",
"K  c #3D5361",
"L  c #464949",
"P  c #444C55",
"I  c #4A555D",
"U  c #485559",
"Y  c #555959",
"T  c #544D4C",
"R  c #695250",
"E  c #55625A",
"W  c #756E51",
"Q  c #4B5965",
"!  c #535C66",
"~  c #515D75",
"^  c #6B5868",
"/  c #57656A",
"(  c #5B6975",
")  c #546D71",
"_  c #656768",
"`  c #666C76",
"'  c #64737B",
"]  c #6B767D",
"[  c #6A7778",
"{  c #757A7B",
"}  c #746C6B",
"|  c #870C03",
" . c #9B0D00",
".. c #891602",
"X. c #9A1502",
"o. c #A41401",
"O. c #AA1906",
"+. c #B81A04",
"@. c #AD100B",
"#. c #892C06",
"$. c #982A02",
"%. c #9A3906",
"&. c #8B3313",
"*. c #B92504",
"=. c #A73708",
"-. c #B6340A",
";. c #922A24",
":. c #AE3222",
">. c #C61802",
",. c #D91B05",
"<. c #D31D12",
"1. c #FC1E03",
"2. c #E21703",
"3. c #C82602",
"4. c #DB2807",
"5. c #D73603",
"6. c #CD300D",
"7. c #E72906",
"8. c #FD2B02",
"9. c #F92805",
"0. c #E73703",
"q. c #F93604",
"w. c #FC2D14",
"e. c #934B10",
"r. c #B74819",
"t. c #AC4E0C",
"y. c #977017",
"u. c #B86603",
"i. c #B17412",
"p. c #905124",
"a. c #AC562A",
"s. c #997934",
"d. c #947033",
"f. c #AA6F31",
"g. c #D64901",
"h. c #CB5010",
"j. c #EA4705",
"k. c #F74604",
"l. c #E65707",
"z. c #F95804",
"x. c #F04B17",
"c. c #CF720E",
"v. c #E96605",
"b. c #F96703",
"n. c #E87604",
"m. c #FD7201",
"M. c #FF7B01",
"N. c #F77907",
"B. c #F97517",
"V. c #F47017",
"C. c #D4582D",
"Z. c #E85227",
"A. c #D07030",
"S. c #F5762A",
"D. c #ED6F2F",
"F. c #9D3E42",
"G. c #8B5A50",
"H. c #AE5849",
"J. c #91714E",
"K. c #AA754A",
"L. c #8A7570",
"P. c #AC7B76",
"I. c #CD774E",
"U. c #E57646",
"Y. c #75827A",
"T. c #7C804D",
"R. c #B58A0E",
"E. c #988736",
"W. c #AE8F2F",
"Q. c #A99613",
"!. c #D99503",
"~. c #D28F0F",
"^. c #E78A00",
"/. c #FD8C02",
"(. c #F78704",
"). c #FA9704",
"_. c #FB9817",
"`. c #F08F11",
"'. c #D6A60C",
"]. c #FDA903",
"[. c #F8B605",
"{. c #FBA516",
"}. c #EBB00B",
"|. c #CE882A",
" X c #F38F29",
".X c #D7AD34",
"XX c #EEAC28",
"oX c #ECC303",
"OX c #F8C704",
"+X c #FEDA03",
"@X c #F8D805",
"#X c #F8CD16",
"$X c #FEE302",
"%X c #F9E307",
"&X c #F8E311",
"*X c #F4D12D",
"=X c #E3CF1D",
"-X c #90884F",
";X c #B19047",
":X c #8A8774",
">X c #AB8C6C",
",X c #DB8848",
"<X c #D38D52",
"1X c #E78347",
"2X c #EA8E58",
"3X c #C7966B",
"4X c #DEAD5E",
"5X c #EBD06B",
"6X c #597184",
"7X c #6B7983",
"8X c #757C86",
"9X c #72778F",
"0X c #847D8C",
"qX c #69838B",
"wX c #778589",
"eX c #798895",
"rX c #758D94",
"tX c #7D8FA6",
"yX c #7FA0A9",
"uX c #86888B",
"iX c #848B96",
"pX c #8A959C",
"aX c #869697",
"sX c #95979A",
"dX c #8F938B",
"fX c #AB9894",
"gX c #91A797",
"hX c #AFA38F",
"jX c #8A98A4",
"kX c #939AA6",
"lX c #969AB3",
"zX c #8C8EAA",
"xX c #99A6AA",
"cX c #9BA8B5",
"vX c #91ABAF",
"bX c #A7AAA7",
"nX c #A4ADB8",
"mX c #A8B4BA",
"MX c #AFB2AD",
"NX c #C8A591",
"BX c #B6C6BB",
"VX c #D3C2A2",
"CX c #9EB8CC",
"ZX c #A6B9C4",
"AX c #B4BBC7",
"SX c #ABB5D0",
"DX c #C0BAC4",
"FX c #BBC6C9",
"GX c #BAC9D3",
"HX c #B2CAD0",
"JX c #CAD0D2",
"KX c #D4D7E3",
"LX c #EAE7F8",
/* pixels */
"    &   . &         . & * * * * . . o   .   . . & * * * . . . - .   - ; . - - o * . . . * * - &   * . . . * .   . * * .     .   ",
"* * * *   * * *   &   & * * * *   . * . . . . . +   . . X =     .   & o o & = o * * * * * . = * . . *   . .   = . . .   . . . . ",
". *   * . & & . * & * * *   * & . * *   o   . . &   * = * * . . . - =   + - - - - * * * * * * * *   . .   * . & . . . . .     . ",
"& & . & & . * & * * *   & * *     . * o   & * . X . > - * . . X   = - & * .   X * * * & * * * . . . . * *   X . & . *     . .   ",
". & . & * . & . * * & * .   & . .   o   & & & & . o     & - > X . . * * * X * - * = *   - * * . * . . . . . . *   & . . . *   . ",
"* * & * & * * * * * * . & .   & *   & * = o & = * : 1 8 h M N N B B N h u 3 : - .   * - * * * . . . *     * . . * X .   .   .   ",
"* * * * * * * * *   & * * & * * .     . o   : i 8 j e.=.-.5.5.j.v.N./.).!.R.y.N e = . * * * =     * . * = . * * . . * .   . .   ",
"  * & . . &   * & * . & .   * * . . * &   = r P d #.*.+.3.>.3.5.0.j.k.k.z.(.(.n.} u = * * * * . =   . .   . .     * .   * .   . ",
"* * * * * * & * *   = - & - * o o - - + . - ` R p d | +.+.+.3.3.4.0.q.q.k.z.g.h.G.Y 0 - -   : * o   - & ; . . = * &     .   . * ",
"* . & * * * * . & * = * o & = - = & = o $ y Y.rX} j p p a a a X.X.o.O.o.X...j G.0XqXt = : + o O ; ; o o   * . o & * .   o   * . ",
"* & & * & * * * = *   . X . . o , , , e U ` I ` zXiXuX} R R j j j j R R } { eXlXqXE M , , @ 1 + ; @ % O = * * . * . .     . . * ",
"* * * * * . & * - - o * ; X . q 3 , 9 w Q iX] I ' eXxXxXkX] 8XiXY.{ ( 8XqXaXrX7X~ U D r w q , e e # % $ ; *   + .   . . . . .   ",
"* * * * * & * * - *   ; X O r wXU e y r F ) { { / ' xXnXKX0Xr t u t ) xXxXpX[ _ T G r t i Z q L { y % % # @ = . .   . o     .   ",
"*   * * * * * * . = X O , r U mXcXL y } xXxXeXtX' ) qXeXZXMXC y Z L bXMXeX( K Q ! ] kXsX_ u C sXnXY y 5 2 2 # O +     . . . . . ",
"* & & * & * * * X ; O # u Y ! xXKXnXsXvX] L.fXmXMXdXaXvXpXmXD r w I AXbXiXiXsXbXcXbXhXlXGXaXgXKXaX/ _ l 6 6 $ # . . .     .   . ",
"* * * * * * * * O ; $ 3 L [ Q wXHXKXjX6XS o.g.h.K.P.uXbXMXJX! 9 i { GXZXxX:X>XK.c.v.c.J.zXmXJXSX6X/ uXT 7 5 6 , O + .   * . *   ",
"* * . . * & * = < $ 1 4 g dX_ 6XaXjX( ) _ ;.+.,.7.q.k.h.W CX] > q kXHXW =.j.l.q.0.<.r.:X7X8XzXwX~ qXgXj k 7 7 2 # X .     . . & ",
"* * & . - & * ; # % 6 f C.H.G.M ( ! P ^ { E R F.;.O.3.I.} eXsXq e cXzX^ a.*.+.:.H.G.} wX` _ [ ( M G.H.-.g z 7 5 $ # =   *     * ",
"- . . * * * ; ; 1 4 8 d.<Xr.:.:.N :.6.g.h.a.L.gX9XY L.mXaX( mX] Y.mX' jXlX0X_ 0XzX} :.-.4.<.;.j =.-.U.4X&.v z f 4 # O   .   . . ",
"* * . * * X O # 4 8 f I.<XC.x.4.0.w.x.z.z.b.c.c.f.J.9XtX{ Q pXJXAXzX/ aXwXtX:Xt.h.g.k.k.q.1.0.5.Z.-.U.5Xh.n v k 8 4 @ X . .   . ",
"* . * * * . @ $ 6 7 g 4XA.C.j.5.j.k.z.b.z.M./././.|.Y.) [ ) Q I / Q / wX6X} i.m.b.z.z.z.z.k.5.x.A.r.A.,XA.&.c z 7 6 # X .   . . ",
"* . . * * X # 4 f 7 p.3XC.Z.7.9.b.k.b.n.(./.).).].[.s./ cX` u t e t uXGX6Xd.V.b.^.N.N.b.z.q.q.x.C.6.I.2X;X&.c c f 7 % O X     * ",
". . . * * ; $ 6 7 f a.3XZ.x.q.k.V.z.b.(.).).].].[.].y.sXZX! , : 3 q Y SXwXt.M.(./.M.(.N.b.z.q.l.U.h.C.2XU.t.n c z 7 4 O . .   . ",
". . . * = @ 2 8 7 v a.<XZ.x.0.z.B.b.M.).).).).).{.].;XAX8X/ ) qX7X` _ rXmX;X^.N.(.M.^.M.M.n.k.x.D.Z.C.2X2Xe.n c x 7 4 @ X .   . ",
"* * * . X # 4 8 k g f.<XZ.x.q.b.S.B./.).].].}.3X-X:XbX:XE Y.:X:X:XkXdX) jXbX-XJ.>X^.N.m.m.M.b.x.D.A.D.U.1Xt.b m c f 6 # + o   = ",
"* & . * = @ 4 7 z x a.,XD.x.k.m._./.)./.].).NXuX9XxX} B -Xs.R.c.~.Q.Q.E.T.uXlX9X:XNX!.B.z.b.b.k.S.D.Z.1XU.r.b b x z 5 # X .   - ",
"* * . = ; # 6 8 z n f.1XS.x.z.N.).).).].!.NXiXqXuX-XW.f.e.g.j.u.(.`.(.).'.|.-XtXrXiXNXc.m.m.z.z.S.D.D.U.U.r.b m c z 6 % O o   * ",
"* * . * ; % 6 7 z n a.1XS.z.z.N.{././.XXMXwXaXL.s.p.$.-.5.5.5.u.v.q.q.k.N.!.'.;XdXiXeXhX Xn.b.b. X XZ.2XU.r.b m c z 5 2 X . . & ",
". & . * ; # 6 7 z n a.S.S.B.z.N._.(. XhXqXpXW s.e.| @.*.3.0.*.'. Xj.9.w.9.k.(.!.W.hXgXjXNX|.b.(. X XS.U.U.:.b b x z 5 # X . . * ",
"* * * * = @ 4 7 f v a.D.V._.z._.{.).W.eXaXL.s.g ..O.*.*.2.w.-.}.*Xl.9.9.q.1.8.m.!.W.hXvXiX|.b.).XX XS.2XA.-.n b x f 5 @ X * . & ",
"* * * * X @ 1 8 z v a.D.B.(.m._.{.{.y.cXpXd.p.| o.*.+.*.0.7.*.'.&X|.0.9.9.w.9.8.N.!.W.CXcXf.n._._. XS.1Xa.e.n c x 7 5 @ X . . * ",
". . . * * @ 1 8 7 z &.Z.V.m.M._.[.}.hXlXB s.d X.O.+.>.O.i.A.=.~.#X.Xy.v.q.9.q.9.q.(.~.-XCXVXV./._. XS.1Xt.&.N c z f 4 @ X . .   ",
"= = * * * O 3 6 7 u T a.x.b./.].]..XnXY -X&...O.+.>.2.>.t.=X'.i.<X=XR.XXj.9.9.q.8.z.!.W.uXJXA./._. XB.C.G.R M x z 7 $ O * X * . ",
"& & * * . ; # 4 8 M L ( >XV.M.].]..XqXW W.s | O.+.<.7.>.=.oX+X!.W.@XOX=XD.4.9.9.9.8.N.'.:XZXI.m.(.B.A.>X6XH l z 7 6 $ X * * . . ",
"& & * * * = O $ u wX] U uXMX3X X}.<X8XB p.a X.@.>.+.r.-.=.[.@X@X[.$X@X%X|.t.x.9.8.9.z.!.E.jXP.b.|.3XhX` y P E l 7 6 % X . . . . ",
"& &   * * & = @ 4 Y.xX8X` eXMXJX5XfX8Xs.g a  .+.2.>.e.'.c.#X$X@X$X@X@X&Xf.i.A.9.8.8.k.^.E.yXhX<XMXaX/ F / { W k 5 2 O . * . . * ",
"= & & = * - . O 3 U wXcXzX7X{ jXcXMX{ K.g |  .+.>.4.O.'.#X%X@X$X+X+X&X&XA.}.|.q.q.9.q.(.R.rXmXxXwX} ` eXCXjXR 5 2 $ O * * . . X ",
"= & X & * & * = + l wXpXcXnXjXY.6XrXY.J.d X.@.X.e.g.@.u.+X$X$X@XoX+X+X@XoX+XW.5.8.8.w.(.R.[ ] 6X} jXHXJXmXeXL % $ O ; . X . . . ",
"= &     * - * . + e iXxXiXsXFXCX6Xe t d.d .. . .e..X|.i.#X+X%XOXy.=X$X$X$X#Xf.c.8.8.w.(.R.G r ! CXJXJXMXcX' e 4 @ ; . . * + . . ",
"& &   X * * . . * q ( jXZXrXpXDX8Xe + y.d a o.>.@.u.*X*X$X@X'.OXr..X#X+X%X+X|.|.8.q.q.^.Q.i q eXJXAXZXmXaXI e + + + . . . . . X ",
"= & & = & * * & * : Q eXnXcXxXcX9Xe < m &.| X.O.@.%.[.+XOX}.y.c.h.f..X%X+X+X*X`.9.8.q.^.Q.> e kXGXnXGXmX( D , @ * * * . . . . . ",
"& & * & * * * . o : P ` jXmXxXkXiXZ = n p.|  .O.+.X.!.+X}.i.f.+.7.5.|.XX$X$XVX(.q.9.z.`.d., t jXmXnXnXaXQ l > . * > . . . . . . ",
"* & & & * * * * . > G Q wXxXmXmXuXG : 8 W.s ..O.>. .u.@X}.g t.7.9.7.r..X%X5X4Xv.8.q.b.|.M 3 D lXmXHXpX( F t > + * * . . . . . * ",
"& = = & * * & * * . t P ( aXxXmXaXP q y s.e.a o.<. .=.].OXt.o.9.8.1.g.#X&X5Xv.q.1.x.^.W.y : F xXmXcX7XI J r X . . . . . . * X . ",
"& &   =   * * & *   t G P ' pXnXpXP 3 L W i.;...+.*.X.u.OX!.o.,.w.0.|.%X5X~.k.1.8.v.R.W t e P xXFXpX! H J r   . . . X . * . X * ",
"* = & & * * * * * . V H P I ' iXrXI w u ` d.p...+.3.O.s t.'.c.$.4.c.*X4X`.q.q.w.z.c.-XQ t e P vXZX7XU P P V . . . . * . . . * . ",
"& = & * * . * * * * F / ( Q Q ` / I r D / uXE.f.#.O.%.#.$.e.R.}.!.oX.X;XA.R.Z.l.|.W.Y.~ G y U 9X7X/ / ( / D * . . . . * . . . . ",
"  & * & * * & * * * G ! ] wX7X` { 7X_ / 6XqXL.-Xf.#.g #.#.#.$.%.=.=.t.h.r.c.i.~.>XY.) 7X/ wXwX7X7X7XeXwX/ t . * * . . . . . . . ",
"* & * * * * & . * : C H ( wXkXjXpXlXtXY T wXzXkX;XW.t.$.X.o.>.>.,.,.<.j.v.~.;X>XtX0XwXW Y rXzXpXpXjXeX/ D H   * . . * . . * * . ",
"* * * * * * * * - 9 ` U Q / wXZXmXvX/ G T G.gXgXSXdXE.i.i.u.t.h.g.l.c.~.W.-XbXkXuXgXG.T G ) vXMXxXeX! F U ] q o . . . . . . X * ",
"& . * & & * * * & & Z 7X! ` Q / nXnXY P K j >XmXjXZXnX:XW B y.R.y.Q.E.W wXSXZXiXZXP.j F Q U xXpX' I U K wXU   . . . . . * . * * ",
"* * * * . * * & o : = D 7X( wX/ ' ( K ^ R T G.KXGXgXxXHXFXcXjXwXwXeXvXZXZXbXkXJXFXj M T ^ Q Q Q I I Q 8X/ : . . . . . * . . * X ",
"* * * & * . * * = &   : C wX7X( ( C A g  .j I cXLXLXJXnXcXZXmXbXxXnXcXlXmXJXKXHX7XY j  .g Y Q C H ( iXQ : ; o * . . . . . . * . ",
"* * * * * * * . & & = - : V 7XeX] Y._ P h h G / aXgXaXtXiXeXeXwXuXiXiXiXsXiXwX( _ J h T E [ uXwXjXiXF * * . .   . . . * X * * * ",
"& . * * * * * * * > * o & & w ! jXHXZXiXQ J G G Q 7X) D e A I ( Y U l G Q 6X~ Q G C ! 6XzXmXGXvX_ t   > . . . X . . . . . * X * ",
"* * * & & * * & .     :   = * : t ( lXbXvXwX} Q D C ` iXP , e t Z q q wXsX/ F H / 0XxXmXmXaXQ V 9 & = & . . X   . . * X . . X * ",
"* & * . * * * * * * * * & * * * * > q P ] pXkXkXpXrX` 8XxXG q r w : 8XaXI ( pXxXnXnXkX7XF 9 * * * X . . . . X . . . . X * * * X ",
"* * * * . * & * * * * * * . * & * * * * * q V I ' pXjX! jXiXy U P Q aXeXI [ iX{ U G 3 * . * * * . . * . * . * * . . * . * * X * ",
"* * * & * & & *   * & & & . . & * *   . * * . * > 0 r G D I / F D U / / G q : o * * * * * * * . . . * . . . . . . . . . * * * X ",
". & * * * * . * *   * . . * & . * * * * * * * *   :   > > . * .   > . . - * * > * * * X * * * * . * X * . . . * . . * . * * > * ",
"* * & * * * & * . & & * & . & . o * * * * * . * *   * * * * * > * * * o * * *   * * * * - > * . . X . * . . X . . . . . X X * X ",
"* * * * * * * * * * * * * * * * > * *   * > * * = *   * > * * - *   * * * * & > * * * * o o . * . * . . * . * . . * . * * * > * ",
"* * *   & . * * * * = * * * * * * * * * * * * * * * : & * : - * * * = - * * * . * * * * - * * * * X . * . . * . . . * X * X * * ",
"& * * * * * * . * - * * = * * - * * > * * * * * . =   * * * * * * *   * * * . * * * * * * * * * . . . . * . X . . . X * * * X * "
};
