/* XPM */
static char *enemy1669831952[] = {
/* columns rows colors chars-per-pixel */
"64 64 255 2 ",
"   c #020202",
".  c #0B0102",
"X  c #010A00",
"o  c #02020B",
"O  c #0B0507",
"+  c #120006",
"@  c #040115",
"#  c #05021C",
"$  c #09041D",
"%  c #090215",
"&  c #130419",
"*  c #040123",
"=  c #0B0324",
"-  c #04022B",
";  c #0B032C",
":  c #0E082C",
">  c #080927",
",  c #120525",
"<  c #12052B",
"1  c #13092C",
"2  c #190629",
"3  c #050233",
"4  c #0C0334",
"5  c #06023A",
"6  c #0C043B",
"7  c #0D0934",
"8  c #130533",
"9  c #140934",
"0  c #1B0A34",
"q  c #13053B",
"w  c #1A063C",
"e  c #15093C",
"r  c #1B0B3C",
"t  c #1B0636",
"y  c #1E103C",
"u  c #21022D",
"i  c #220B3C",
"p  c #23063C",
"a  c #2B103E",
"s  c #0C0443",
"d  c #0B024B",
"f  c #0E0846",
"g  c #130543",
"h  c #1B0543",
"j  c #140944",
"k  c #1B0B43",
"l  c #14064B",
"z  c #1C054B",
"x  c #160A4B",
"c  c #1C0A4B",
"v  c #1D1145",
"b  c #1E114D",
"n  c #1D0B52",
"m  c #1B0855",
"M  c #1E175B",
"N  c #230C44",
"B  c #290D46",
"V  c #23064B",
"C  c #230C4C",
"Z  c #2A0E4B",
"A  c #210345",
"S  c #241145",
"D  c #24124C",
"F  c #2B124D",
"G  c #2C1546",
"H  c #240C54",
"J  c #2A0E54",
"K  c #240C5B",
"L  c #2B0D5B",
"P  c #250553",
"I  c #251254",
"U  c #2B1354",
"Y  c #25115B",
"T  c #2C135B",
"R  c #2D195B",
"E  c #2A1956",
"W  c #32145C",
"Q  c #341A5C",
"!  c #381758",
"~  c #350A56",
"^  c #2C0C64",
"/  c #2D0A6B",
"(  c #280A65",
")  c #320E64",
"_  c #320D6B",
"`  c #3E0F6F",
"'  c #2C1462",
"]  c #2D156D",
"[  c #271564",
"{  c #331464",
"}  c #3A1564",
"|  c #341A63",
" . c #3A1B64",
".. c #34146B",
"X. c #3A156C",
"o. c #34196B",
"O. c #3B1B6C",
"+. c #380B78",
"@. c #361372",
"#. c #3B1573",
"$. c #371A73",
"%. c #3C1B73",
"&. c #3B127B",
"*. c #3E1C7B",
"=. c #37147B",
"-. c #2F1471",
";. c #3B216D",
":. c #3D2267",
">. c #3B2175",
",. c #411D6C",
"<. c #441763",
"1. c #421B74",
"2. c #42147C",
"3. c #431C7C",
"4. c #481D7C",
"5. c #411672",
"6. c #44226B",
"7. c #432373",
"8. c #44237C",
"9. c #4B237B",
"0. c #4B2A7B",
"q. c #492574",
"w. c #51257E",
"e. c #57256E",
"r. c #471959",
"t. c #3C0B83",
"y. c #3D1488",
"u. c #3E2383",
"i. c #431483",
"p. c #451C83",
"a. c #4B1D84",
"s. c #4C148D",
"d. c #451C8B",
"f. c #4C1C8A",
"g. c #44138A",
"h. c #511D8D",
"j. c #501C85",
"k. c #4D1C93",
"l. c #4C1B9B",
"z. c #471795",
"x. c #521D93",
"c. c #551D9C",
"v. c #571B9A",
"b. c #462382",
"n. c #4C2383",
"m. c #4D238B",
"M. c #4B2888",
"N. c #522B84",
"B. c #52248D",
"V. c #532B8B",
"C. c #562788",
"Z. c #56318D",
"A. c #4C2492",
"S. c #4B2991",
"D. c #4F269A",
"F. c #542493",
"G. c #5A2695",
"H. c #542B93",
"J. c #5A2B94",
"K. c #55249A",
"L. c #5A249C",
"P. c #5A2B9B",
"I. c #562B99",
"U. c #5A3293",
"Y. c #5F329B",
"T. c #4D3192",
"R. c #622C9A",
"E. c #65369B",
"W. c #6D2E90",
"Q. c #4C1AA2",
"!. c #541CA3",
"~. c #5A1DAA",
"^. c #5B1CB3",
"/. c #631FBB",
"(. c #5A24A4",
"). c #552AA3",
"_. c #5D2BA3",
"`. c #5623AB",
"'. c #5D25AB",
"]. c #5E2AAB",
"[. c #5524A2",
"{. c #5B32A4",
"}. c #5A32A7",
"|. c #5C22B4",
" X c #5F2AB4",
".X c #5A24BA",
"XX c #4F20A2",
"oX c #6325A4",
"OX c #632BA3",
"+X c #642DAC",
"@X c #6628AC",
"#X c #6334A4",
"$X c #6B34AB",
"%X c #6836A8",
"&X c #743AA9",
"*X c #6324B4",
"=X c #642CB2",
"-X c #6C2CB4",
";X c #642BBD",
":X c #6A2CBC",
">X c #6725BC",
",X c #722EBA",
"<X c #6C35B4",
"1X c #6D34BD",
"2X c #6E3BBA",
"3X c #6636B5",
"4X c #7432BD",
"5X c #743BBB",
"6X c #7D3BBC",
"7X c #7337B4",
"8X c #712DA8",
"9X c #7843B8",
"0X c #7442AC",
"qX c #5E24C6",
"wX c #6225C3",
"eX c #6D2CC3",
"rX c #6C2CCB",
"tX c #6629C5",
"yX c #712CC2",
"uX c #732DCB",
"iX c #7B2BC8",
"pX c #6C34C4",
"aX c #7333C3",
"sX c #7C34C5",
"dX c #7B3BC4",
"fX c #7533CB",
"gX c #7C3CCB",
"hX c #7A36CA",
"jX c #752BD4",
"kX c #7532D4",
"lX c #7937D5",
"zX c #6C2AD4",
"xX c #7C32E8",
"cX c #7E45C4",
"vX c #7B44D4",
"bX c #862DCE",
"nX c #853AC9",
"mX c #842DD5",
"MX c #8B3CDA",
"NX c #8738D5",
"BX c #9139DB",
"VX c #853AE2",
"CX c #963CEC",
"ZX c #8547CA",
"AX c #9643CF",
"SX c #8949D6",
"DX c #9646DB",
"FX c #8A52D6",
"GX c #9B53D4",
"HX c #A248D9",
"JX c #8A48E6",
"KX c #9846E5",
"LX c #9A52E6",
"PX c #A546E8",
"IX c #AB52EC",
/* pixels */
"* - * * * * * # * - - ; 4 q g h z x w g H y.S.S.S 6 4 q y 9 > * $ = w g q q e 6 e 7 ; = = * > * # - ; 4 4 3 5 7 5 5 - * - - 3 3 ",
"3 3 3 3 3 - - - * * * - - ; 4 6 l n n C N I #.m.T.>.0 = 8 r 9 $ # * ; e q w j 7 j 9 : > = = = * # = 4 4 3 5 5 5 5 5 - * * 3 5 5 ",
"5 3 3 3 3 3 3 3 - - - * * * - - 8 w n K T T W X.S.{.M.F 1 0 y 0 $ * = 8 e w e v k e 4 ; = = = = # - 4 4 4 5 5 5 5 3 > # - 3 3 5 ",
"5 5 3 3 3 3 3 4 3 5 3 > - - - * $ * ; j K ....W ..S.3X}.O.i 0 y 1 1 * : 8 q j v v k 9 : = 1 : : # = 4 6 4 4 5 5 5 3 - * - > 5 5 ",
"5 s 5 5 5 s d s 6 s 6 s 6 6 4 4 3 : $ $ 8 V | >.b.,.N.3X;X8.B 0 0 9 , = ; q w C I C 0 1 = : < < # : 4 4 6 4 5 6 3 4 - * = 4 5 5 ",
"d d d d d d d l l l l l g g g g j g 6 : , , r U 1.,.q.V.3XpXH.U C i 1 < 4 q w N I C v 1 , < < 8 $ ; 4 e 6 4 6 5 5 - * * - 3 6 5 ",
"d d d d d d d l l l x m m m n P D z n n v 0 0 0 Z 1.n.q.Z.9X2XU.} F 0 0 8 q w k R E S 9 1 : < t * , 8 q e 4 6 6 5 - * # = 3 6 s ",
"5 5 3 3 5 5 6 6 d l m m [ ' Y ' W | Q U I E F y C Z } a.F.R.%XvXN.Q i 0 8 8 w i Q E S 0 < < 0 0 = < 8 q q 4 6 6 5 3 * # - 5 5 s ",
"3 3 3 - 3 - ; 3 4 4 4 q h V U | ;.7.8.8.8.7.%.o.T J U  .7.n.P.5XgXZ.! B t 8 q t Z | ! w : , 0 N $ 8 k k w : 4 s 6 * # * 4 g s 3 ",
"3 3 - - - 3 - ; 6 4 8 4 q h H H { O.0.N.V.Z.V.0.0.O.W L ..3.H._.<X2XZ.Z B q 2 h V | R S 1 , 0 N , 0 k k w 8 6 s 5 - # * 4 d s 3 ",
"- - - - - - ; - ; ; ; ; ; q h h L { X.1.n.V.J.U.N.N.0.O.X.@.p.B.R.pX1Xn.~ w q q A R  .U 0 , y B < r S k w 4 7 s 5 = # = 4 j 5 5 ",
"- - - - - - = = ; ; 4 8 8 w w k C L { %.2.8.a.b.m.N.V.N.1._ @.3.G.}.tX<X,.Z h q z U O.| i < S B < D U k w j j 6 - > * - j s 5 5 ",
"- * * * # * * * - : 4 7 w w k k j C T { X.1.3.p.m.f.n.n.n.7.#.@.L.H.@X1XP.X.V w h V 1.O.N 8 U Z p U R N w g x 9 = * - 4 j s 5 5 ",
"* * * * * - * = ; ; 8 9 w k S F R R W { ..O.2.3.p.a.f.n.B.V.b.@.t.F.E.oXaXf.Z h z V *.3.F p | Z i W  .N w c c 9 = - ; w j 6 5 5 ",
"- - - - - : ; 4 8 9 e k S D E R :.6.q.0.9.8.3.#.a.m.B.B.B.H.B.p._ p.R.oXfX+X%.V z A 2.p.! Z #.J Z { o.S k Y I < > - 4 j l s 5 5 ",
"- - - - 4 4 6 7 6 e e w w h A N J L { 1.w.V.Z.U.M.n.n.a.f.F.F.P.8.#.l.4XoXpX).H m h 3.f.Q J 3.J Z O.o.S S [ I , = = q x l s 5 5 ",
"3 - - - > * * # = = ; 4 q w h z h A C H H W O.7.R.$X-XR.h.j.F.K._.4.4.'.wXpX$X&.P P #.K.,.=.z.B F 3.X.F O.B.h > % 8 K x 6 d s 3 ",
"- - - - * * * * 3 4 q z n L ' ..=.#.#.#.X.) ) ) E | 0.E.%XK.b.n.].+Xx.x.-X4X4Xs.P ^ 2.h.4.d.y.i <.p.{ ! D.b.r > , c [ z s g d 5 ",
"- - * * * ; 4 6 z m K K ^ @.*.p.d.d.A.K.).[.(.].x.a.2.%.M.#X$XoXf.+X3Xv.~.sXeX].L _ g.B.m.`.=.i a.1.! 9.<X=.0 = w T [ x 6 s s 6 ",
"- - - - - 6 g z z H P L ) +.i.p.a.f.x.K.(.=X:X:X5XaXyX*Xc.h._.<X$X(.+X<XoX:X;XfX#.&.s.G.|..XL V v.5.%.OX%XH r t H ' m l j 6 6 5 ",
"3 - - - 4 g z K ^ { %.b.V.P.P.P.H.F.F.B.x.B.G.G.OX@XyXhXdXaX1XrXVXlX:XnXaX-XgXtXm.2.s.-XqXQ.A { v.Q m.;X9.y k N ..' z l x 6 6 s ",
"3 4 6 g z K { >.b.b.M.S.J.P.P.K.B.G.)._.+X=X-X-XeXuXdXdXgXSXDXnXnXGXSXNXCXmXDXiX`.g.v.:X^.&.V p.p.<.!.=X! G T W o.Y g j j 6 6 s ",
"g g x n Y o.>.7.8.7.3.3.p.a.a.f.x.L.+X:XrXuXkXlXVXMXPXIXPX&X<.a u u ! C.SXPXKXbX*Xv.OXeXQ./ L k.5.g.!.A. .Q X.{ [ j w x d 6 q l ",
"x n [ [ o.......L L L } X.1.4.w.G.OX@X-X*X:X,X4XiXBXDX8X~ o   X o     + u &XLXDX=X/.3X;Xg.P +.F.$.~.!.1.>.3.#.O.m q v x d q w H ",
"H Y [ Y n h w t h k Z { 3.m.F.J.I.(.*X-X,XeXyX4XbXMXJ.% O     o       o   . e.IXjX-XuX).) t.l.d.!.x.B.9.4.*.| J H n n j q g n x ",
"Y x g q 8 q w g r J ..8.n.w.f.k.`.=X@X~.^.=X4XsXMX5XA o               o     u OXVXsXhXk.#.l.(.!.!.h.4.9.1.O.L H H I h 8 P [ l ; ",
"l 6 4 ; < 8 q h H { %.O.1.a.L.'.'.~.^.eX5X8X@XlXSX6.O     o     o     o   X o t fXSXnXg.!.qX|.!.z.m.n.9.O._ T R I N q z ] m 4 # ",
"4 ; ; = ; 4 h C L { #.p.m.K.L.c.x.eXkX=Xv.R.4XLX9X&         o   o           X   w.DXmXv.qXtX(.k.k.F.n.X.) ..o.| U w V ] m = # 4 ",
"= * * - 4 w k N G ..z.).K.h.x._.2X<XG.h.(.fXDXGXZ.. X o     o         O o       a LXBX,XtX>Xv.!.G.F.2.X.#.8.$.^ H [ @.K ; @ = 4 ",
"# * : 4 6 w z C ..3.n.p.2.F.+X2X+Xf.a.%XdXdXnXDX!     @       o         o       2 JXmXbXeX*X*X*Xx.f.i.a.n.8.$./ ) =.( ; $ 4 4 * ",
": : : ; ; g H { y.%.! <.B.<X3XF.p.h.@XaX4X7XnXBXw .   o             X       O   & gXmXsX>X;X*X].x.x.F.H.b.@._ _ ] L w # : 4 - # ",
"3 - ; * 8 H ' / Y W 1.P.<X].f.5.p.(.gXnX,XnXDXNXB                             O & dXBXmXtXrX^.h.L.OX_.A.i._ / / ( < % 4 5 * > * ",
"; * $ w H K n c T O.R.$XF.*...>.@XZX8X#X5XxXBXAXr.    o   X       o o     o o   ~ ZXlXrX-XoX~.*X-X+XK.&.( ( ( J q q q 8 * = ; 8 ",
"# * q x C V j x } m.OXk..._ p.+XnX7X#X$X1XaXDXDX#X@ X       . o o             O v.NXuX/.~./.uXlX1Xc.+./ ^ L h q q t < * = ; q x ",
"o ; x m g 8 h I n.J.d.] L #.OXNXcXW.E.OX=X-XAXKXFXA   o . .   o         O     & ,XyX/.:XuXkXeX(.s.+./ ^ K m z z h ; $ : 4 g j q ",
"= 4 l g 6 w C o.n.7.L K #.P.6XZX#XG.%XK.K.6XAXBXKXW.% X   O   X   .   o     ; S.nXyXyXuX>XoXl.+./ / ^ H H n P z < w 4 6 n n 8 ; ",
"h q 6 6 6 c R #.' H A X.h.7XZX0XC.P.#Xd.x.ZXSXsXPXIX<.o       o o o       + 4.VXxXuXyX/.c.l.z.l.y.t.K V z h h w w h H Y g q 8 < ",
"m 6 ; ; j K ' ' g g ~ a.8X6X0Xw.G.P.m.i.%XDXhX4XAXIX6XR.h O   o   X   @ p C.BXCXxXuXtX/.qX.X[.x.=./ ^ J H P C U H T K h 0 , ; q ",
"g 4 ; 8 n Y K h 8 c o.H.&X9XE.b.J.m.*.m.6XSX,X=XDXnX8XHXbXoX! 2 & 2 ~ h.gXJXBXbXjXiXuXzXzX!.d.+...^ L ) ..) ^ L H z h 9 ; : 4 - ",
"; ; 4 g H T z 4 2 H b.}.0XE.n.U.k.%.:.J.SXZX@X_.HXkX4XnXBXbXHXMX6XiXjXjXjXjXjXuX,X/./.^.z.` 2.t.&.i.5._ ^ L H h q 0 < 8 4 > - # ",
"- ; 4 c Y x 4 = h T n.#XE.0.0.b.8.%.N.0XFX2XR.K.PX#XE.dXiX*X1XCXJXmXiX>X^.`. XwX^.^.~.~.!.l.s.s.@._ P m z h w w < ; : > : : - - ",
"- 4 w z n j ; = z ' n.Y.Z.0.0.7.#.1.U.9XFX<XG.F.PX&XV.nXNX`.v.nXKXBXrXtX*X~.z.t.g.g.t.&.@...W W P V A h w t 9 8 r w 9 7 ; - > - ",
"- 6 g z j 4 ; ; C { n.M.9.,.6.} o.;.E.cXFXR.F.d.DX&Xn.nXsX!.k.s.bXVXkX]. XtXwX X|.|.`.!.l.g.=.=.) ) ' { R T I I v k k e 4 7 5 5 ",
"; g n x 8 * ; q K o.>.7. . .6.W O.6.E.cXcXG.B.a.DX9XB.8XnX(.A.&.f.,XsX'.g.y.D.(.:X:XpXyX-X+XI.H.f.f.p.*.$...[ K v k e e 4 4 4 : ",
"; j x g = # - h T ' $.o.Q ! Q U Q :.0XvX9Xw.C.9.hXZXF.(.SX+Xg.B.} B.uXlX(.} F T X.*.n.B.G.C.B.n.M.9.8.;. .R D k k 9 9 : : - : = ",
"w g z 6 * # 4 j Y [ [ I D U E E Q Q {.FX0Xw.n.2.uXcXJ.F.ZXdXl.p.y.&.k.aXiXoX*.m g h c C L R | ' T T I S r 0 1 : 8 < : : = $ # * ",
"g g q ; * * 8 c I Y K x C S S R E ! #XJX&Xq.8.X.:XcXP.A.+XZX<Xi.z.3.1.f.>XkXwXz.U C w 8 8 0 9 9 k w 9 9 9 1 : : = = $ $ # @ # # ",
"g h 8 - * * q k Y Y n g k r y Q G ! #XFXE.6.3.X.'.5X%Xn.$XdXZXOX} 3.3.1.m.).`.OXh.2.) V k r r w , , = > = $ * $ = = # # @ # @ @ ",
"l q ; # * 3 j x K x j 6 9 w k U S E E.ZXY.q.,.L d.5X2X4.x.vXZXaXF.` _ %. .%.D.K.k.d.&.] L V t 2 1 : = $ $ % $ # # $ % # @ @ @ @ ",
"g q ; # # 4 j x K x e 4 4 8 k D v E E.FXE.q. .T ) =X<XC.4.3XcX5X%Xa.) W | { #.a.`.a.X.@.$.R B c 8 2 8 < < , = 1 $ $ $ # # # # $ ",
"g 4 = # # 4 x x n j 6 4 : 8 k D y E E.FXU.q.Q ! p Q.3XZ.%.4.2X9X0XOX5.Z L V B { 1.I.).p.L { ' Y F N w w 0 8 < 8 > = = * * * - = ",
"q ; * # * 4 x x z j 4 - ; 1 w k 7 y U.vXH.0.! F 2 @.[.J.,.W H.7X%X<XC.} L C w h C ..D.}.H.} U K J J C A r w w 8 ; ; ; - - ; 3 3 ",
"6 ; * * - 4 x c c q 3 - ; < w e 4 8 N.cXJ.0.Q D t N p.A.7.F W ).}.#XE.n.{ F k 2 j 9 C b.{.{.b.W K H c C k k 9 e 6 4 4 4 4 5 3 4 ",
"4 - # * = 6 j x x 6 - - ; 4 w e : : 6.%XH.0.Q B w 2 ^ p.0.F i =.{.U.I.H.7.Q J r 9 r 0 8 T A.{.H.7.' H b b j e j e 6 7 6 4 5 5 5 ",
"; * # * - 6 j l j 6 - - ; 4 4 e : * Q T.Z.7.| F g & i @.%.R k k 7.M.V.m.V.1.W J w 0 0 r 8 9 W S.N.>.| I b c j g 6 q 6 6 5 5 5 5 ",
"; * # * ; 6 x l j 6 - * - : q e 3 # I b.N.;.' H k 1 , ) ..R T , A 8.N.4.m.9.W W ! V w < , : < 1 [ >.8.| H c x g j s 6 5 3 3 5 5 ",
"- # # * - 6 f j j 6 - * * - 4 9 = # 7 >.T.O.Q b h 1 , q T U B h < z *.8.O.b.n.R H D S r r e < = $ , v I E M c s j d f s 5 5 5 5 ",
"* * # * - 6 f f j 4 - - - > 4 8 = # - [ >.>.K b k t , 8 k I C N k < S >.>. . .$.U D S r w q 4 < > * - ; 6 j b M j j f f s f d f ",
"* * # * - 6 6 j s 6 - * - ; 4 < : * * e | u.K b k r < , 9 k V r w < < B ' O. .| T I S k 9 8 4 9 : ; * * * - 3 5 s s f 6 s f d s ",
"= $ # * = 5 f f s 6 - - * - - ; - - # # b u.] w e k 9 , ; w k r 1 e 8 = r o.%.Q { I k w r e 8 7 4 4 > * - * * - 3 3 3 5 5 5 5 5 ",
"* * # # - 3 5 6 d 3 - - - - - - - - # # 7 M >.c 6 j e 1 = < w 9 : 0 e 9 < t I ;.| Y z k w 8 6 4 : 4 3 3 3 - - - - - - 3 3 3 3 5 ",
"- # # * - 3 5 6 6 5 - - - - - - - * # $ 3 s [ [ 6 s 7 9 ; ; 4 < 9 : ; 9 9 = 9 K R T I x q 8 4 4 ; 4 5 6 6 3 - - - - - - - 3 3 3 ",
"* * # * - 3 5 5 s 4 3 - 3 - - 4 > * # - - - j o.x s 6 g 4 ; ; ; < ; = * , < : ; N I Y n j 4 4 6 5 3 - 3 3 3 5 5 3 3 3 - - - - - ",
"* * # # - - 5 6 6 5 - - - - 3 - * - * - > > 3 ( M 6 6 s q = ; ; ; = $ $ * - > # ; k R Y j q 4 4 7 4 - - - 6 6 s 5 3 3 3 3 - - - "
};
