/* XPM */
static char *exit_c1669747541[] = {
/* columns rows colors chars-per-pixel */
"64 64 240 2 ",
"   c #0F060A",
".  c #130507",
"X  c #1D0407",
"o  c #14050A",
"O  c #1C050A",
"+  c #14080C",
"@  c #1B080A",
"#  c #240407",
"$  c #2C0406",
"%  c #240509",
"&  c #2B0509",
"*  c #23080B",
"=  c #2B0908",
"-  c #340306",
";  c #3C0305",
":  c #330409",
">  c #3B0409",
",  c #300808",
"<  c #430304",
"1  c #4B0204",
"2  c #420408",
"3  c #4B0308",
"4  c #490A09",
"5  c #530203",
"6  c #5B0102",
"7  c #540309",
"8  c #5C0209",
"9  c #630202",
"0  c #6B0202",
"q  c #63020C",
"w  c #6C010A",
"e  c #630A0C",
"r  c #730202",
"t  c #7C0102",
"y  c #72030A",
"u  c #7D020B",
"i  c #7B0904",
"p  c #830101",
"a  c #8B0102",
"s  c #8A0800",
"d  c #84030A",
"f  c #8C030A",
"g  c #930202",
"h  c #9B0102",
"j  c #9C0A05",
"k  c #940009",
"l  c #97070A",
"z  c #A40102",
"x  c #AB0202",
"c  c #A40901",
"v  c #AD0901",
"b  c #A4020A",
"n  c #A40B08",
"m  c #AE000B",
"M  c #B40201",
"N  c #BC0201",
"B  c #B40B02",
"V  c #BA0C02",
"C  c #B4010A",
"Z  c #BF020D",
"A  c #B40B0A",
"S  c #BB1203",
"D  c #BC1A04",
"F  c #B41100",
"G  c #A80010",
"H  c #BC2103",
"J  c #C30301",
"K  c #CB0301",
"L  c #C30B02",
"P  c #CB0C01",
"I  c #C6040A",
"U  c #D20401",
"Y  c #D30C02",
"T  c #DB040A",
"R  c #DC0C0B",
"E  c #DA0705",
"W  c #CC1401",
"Q  c #CD1C02",
"!  c #C31404",
"~  c #D41301",
"^  c #DA1302",
"/  c #D41B01",
"(  c #DC1B01",
")  c #DD1C0A",
"_  c #C30C10",
"`  c #C41417",
"'  c #E30B01",
"]  c #E80000",
"[  c #F00900",
"{  c #E31401",
"}  c #E31A04",
"|  c #EB1C04",
" . c #E51209",
".. c #E81707",
"X. c #D52300",
"o. c #DC2501",
"O. c #DD2C02",
"+. c #DD2B0B",
"@. c #D22900",
"#. c #DD3400",
"$. c #D73205",
"%. c #CA260D",
"&. c #E42300",
"*. c #E32B03",
"=. c #EA2D03",
"-. c #ED2C08",
";. c #EA2200",
":. c #F32201",
">. c #F92A08",
",. c #E53402",
"<. c #EB3402",
"1. c #E53E00",
"2. c #EA3C02",
"3. c #EC3D09",
"4. c #E3380C",
"5. c #F33502",
"6. c #F63D0B",
"7. c #DB4500",
"8. c #DC4D00",
"9. c #DB5501",
"0. c #DC5A00",
"q. c #D65000",
"w. c #E54501",
"e. c #EB4301",
"r. c #E44C00",
"t. c #EC4C02",
"y. c #EF4D08",
"u. c #F44501",
"i. c #F64B04",
"p. c #F74C08",
"a. c #F54705",
"s. c #E45301",
"d. c #EB5401",
"f. c #E35C01",
"g. c #EC5C01",
"h. c #E85908",
"j. c #F35501",
"k. c #FB5503",
"l. c #F35B02",
"z. c #F95C05",
"x. c #F25209",
"c. c #FD560B",
"v. c #F2590B",
"b. c #FB5809",
"n. c #F14B11",
"m. c #DC6400",
"M. c #DD6A06",
"N. c #D47102",
"B. c #DE7203",
"V. c #DE7A01",
"C. c #E46302",
"Z. c #EC6300",
"A. c #E46C01",
"S. c #EC6B02",
"D. c #EA690B",
"F. c #E36109",
"G. c #F46403",
"H. c #FB6302",
"J. c #F36C01",
"K. c #FB6C02",
"L. c #F26C0B",
"P. c #FA6B08",
"I. c #F36708",
"U. c #E57301",
"Y. c #EC7401",
"T. c #E37B01",
"R. c #ED7B01",
"E. c #EC7D0A",
"W. c #EB7008",
"Q. c #F37402",
"!. c #FC7302",
"~. c #F37C02",
"^. c #FB7C04",
"/. c #F7740A",
"(. c #FB720D",
"). c #FA7D0B",
"_. c #EB6510",
"`. c #FC6D10",
"'. c #FF6211",
"]. c #FB7611",
"[. c #DD8400",
"{. c #DE8C00",
"}. c #DB9E00",
"|. c #E48303",
" X c #EB8301",
".X c #E58902",
"XX c #EC8B01",
"oX c #E98A08",
"OX c #F38401",
"+X c #FB8301",
"@X c #F38C01",
"#X c #FB8C01",
"$X c #F4840A",
"%X c #FE840B",
"&X c #FD8B0A",
"*X c #E69302",
"=X c #EC9401",
"-X c #ED9B01",
";X c #F49302",
":X c #FC9402",
">X c #F49C01",
",X c #FD9B02",
"<X c #F3950A",
"1X c #FE9509",
"2X c #FE9A0A",
"3X c #F49B0D",
"4X c #FF8113",
"5X c #FF9A12",
"6X c #DFA200",
"7X c #ECA401",
"8X c #EDAC01",
"9X c #E5A800",
"0X c #F4A301",
"qX c #FDA303",
"wX c #F3AB01",
"eX c #FDAC02",
"rX c #FEA30B",
"tX c #FEAB0B",
"yX c #E5B900",
"uX c #FDB302",
"iX c #F5BA01",
"pX c #FDBC02",
"aX c #FFB30C",
"sX c #FDBE0B",
"dX c #F4B600",
"fX c #FFA412",
"gX c #FFAF10",
"hX c #F4C200",
"jX c #FDC401",
"kX c #F5CB01",
"lX c #FDCD02",
"zX c #FFC50B",
"xX c #FFCA0A",
"cX c #FCD300",
"vX c #FDDB01",
"bX c #FFD209",
"nX c #FFDA08",
"mX c #F7D200",
"MX c #FFC813",
"NX c #FFDA10",
/* pixels */
"o o o . . . o o     o o O % O % # # # # # % # # X X O % # * $ $ = & & # & % * @ * * # % % % & # & $ # # % X O O O O o o     .   ",
"o o O O . O o O . . o o O % % % # # # # & # # # & # & % & & : - & & , & & & & % & = # & % & # $ # & & # % X X O O o O o o     . ",
"o o O O X O O O O O O % % % & & $ $ $ $ & $ & $ - : : : - > ; ; > : : , : > : : $ $ $ , & & & & $ # & # # # * * O O o o . . . . ",
"o o O O X X % X X % % # & % & & - $ - - - - - - > > > 2 4 3 3 1 2 2 > > 2 > > > ; - - , : $ & $ $ $ $ & # # * * O O O o O O o . ",
"o o o % % % # # # # $ $ & $ $ $ - ; - ; ; ; ; ; < < 3 1 5 5 7 5 3 3 < < 4 3 < 2 ; ; ; - - : - : : $ $ $ # $ * # X O X O O O . O ",
"o o O O % % $ $ $ - - - - - - : ; ; ; < < < 1 < 1 5 6 6 8 9 6 8 5 5 5 6 8 7 1 < 1 < < < ; ; ; > - - - $ $ # # # * % % % X O O . ",
"+ + + % % & $ : ; ; < ; < < < ; ; < < < 1 1 5 5 6 6 9 0 0 0 0 0 6 9 9 r r 0 6 1 1 1 1 < < < < ; > - - $ $ # # # % # % % O O . . ",
"+ + + % & & $ : ; < < 1 < < 3 2 ; < < 1 1 5 5 5 9 9 0 r r r r r 0 0 r i i r 6 5 5 5 1 1 3 1 < < ; ; - - $ $ $ # & # # % % X O . ",
"+ o O % # - - ; ; ; < 1 1 5 1 5 1 1 1 5 9 9 6 5 0 r t f g a a d r p k g p i 0 9 5 9 6 1 3 1 1 1 < < - $ $ $ $ $ $ & # # % X X X ",
"+ o O # $ $ - > < < < 1 5 6 6 6 8 3 1 5 9 r r r t t p h x x z h s h z z h f t y 0 0 0 6 6 5 5 < < < ; - - - - $ & & # # X X # X ",
"o O % # $ $ - > 1 < 1 1 5 6 9 9 0 9 5 5 9 p a a b b z M N N N B M M S B x z k a t p t 0 9 6 5 1 1 < < < < ; ; - $ $ $ % # # % X ",
"O O # & $ $ - > < < 1 5 5 6 9 9 p t r r r a z x M N M K E U U R ..^ W L J N z h p p p 0 6 9 9 7 5 1 1 1 < < ; - $ $ # $ % % # % ",
"% % $ & - $ - > ; 2 1 3 5 5 9 0 p g h g g h N U T E P ( -.=.=.,.#.w.e.5.| ^ L M V m h d r 0 0 9 5 5 1 1 1 1 ; ; - $ $ $ # # # # ",
"# $ : : - - ; < > 2 1 1 1 6 0 r p g m C b M Y { =.u.d.!.1X,XeXaXuXaXtX:XS.d.,.,.} U N b a a t 9 6 6 5 5 1 1 < ; ; - - $ $ # # & ",
"$ $ : > > > ; < < < 5 5 6 6 r p a h M K Y / 1.z.=XuXxXcXcXcXcXlXjXkXlXvXNXMX,X~.t.X.K N x z g t r 0 6 5 5 1 < < ; ; - - $ $ & # ",
"$ : - > ; ; < 1 1 5 9 0 9 0 t a h z L ^ :.u.^.aXbXnXvXvXkXzXzXjXsXuXpXjXlXmXmXlXfXS.#.~ J N z p p t 9 6 5 1 < < < ; > - $ $ & & ",
"# & - > > < < 5 1 5 9 t p d k c m V Q <.g.>XjXjXjXxXpXwXuXuXeXeXtX8X0XrXaXhXhXpXlXkX-Xr.&.W x x h d 0 0 0 6 7 5 ; ; ; ; > - $ $ ",
"& $ - > ; ; < 1 6 8 9 t p f g x N Y 5.(.tXjXzXpXuXpXuXwXeXqX>X0X0X0X>XqXwXwXwXeXpXpXjXtXI.o.P z z k t 0 9 5 1 < < 1 < < ; ; - - ",
"$ & : - ; ; < 1 6 6 0 t g h x J U ( z.uXhXpXaX0X>XqXqX,XqX>X=X-X;X>X0XwX>X;X;XrX7XeXpXvXsX(.,.Q x z a r 9 6 7 1 5 1 1 < < < ; - ",
"& & : > > < < 3 6 8 w t h x J R -.g.qXlXdX,XrX,X@X,X1X X X:X<X;XOXOX;X8X>XOXOX:X>XqX8XhXvXpXS.*.L N b a t r y 9 5 1 1 1 < ; ; - ",
"& & : : : ; < 1 5 8 y p z J U | v.2XpXdXeX,X,X,X;X1X&XR.Y.OX@XOX+XR. X=X;X^.Q.R.+X;XrXuXhXmXrXg.( K I b p t r 9 1 1 < < ; - - - ",
"% % & : - > < 1 1 8 i a M K U <.@XeXqX:X,X0X0X:X=XOX XY.Y.Y.OX@XR.~.R.XX~.Y.Y.R.Q.~.@X>XqXpXpXeX1.K I z p r 6 1 5 1 < ; ; - - - ",
"O % & & : - < < 1 9 p g N K X.H.pXeX,X1X:X0XaX7X@X|.Y.R.~.R.@XXXY.R.~./.Y.U.R.~.~.~.R.R.@XqXeXhXS.X.K x a t 9 5 5 5 1 < < ; ; ; ",
"O * * & $ > 2 1 5 0 l c Z Y w.5XpXeX>X:X:X#X>X8X;XOXR.~.~.@XXX*XR.R.S.l.S.R.XX~.;XR.(.).R.;XaXpXfXe.^ M h k a r 6 5 5 1 < < < ; ",
"& & : : > 2 1 6 6 p b A P &.#XtXtXeX>X#X%XOX XQ.Z.R. XR..XwX8X-X XY.A.Y.T.oX=X;X=X.X~.OX@X>X0XtXpXR.-.W m h t r 6 5 1 1 < ; ; - ",
"& & : > 2 1 6 6 r s z B ( i.qX>X,X,X:X#X;X=XXXS.l./.@X X X=X8XyX;XE.S.!.^.;X-X*X@X~.^.~.OX;X;X,XpXqX6.E C z p 0 5 5 1 1 < < ; ; ",
"& - > 2 1 7 6 0 t j B Q -.^.jX>X#X:X#X#X7XwX;XP.Z.U..X*X=X$X<X-X<XE.S.Q.OX@X=X7XR.~.~.~.OX:X;X@XuXcXl.] L x k 0 6 5 1 1 < < < ; ",
"& : < 3 7 6 9 0 p v ! +.5.,XcXqX:X,X,X;X>X-X Xg.g.s.U.9X9X*XXX.X XR.S.R.R. XOX@X~.R. X X>XtXrX0XeXvX^.[ P M l p 9 6 5 < < < ; > ",
"& : 2 7 8 6 0 r f v S ( e.eXlXrX#X>X0X>X@XOXS.d.v.h.E.7X9X[.|. X[.Y.D.R.U.W.J.J.Q.S.Y..X;X3X0XwXqXhXtX>.| L b g r 9 5 1 < ; - - ",
"& : > 3 7 6 9 0 f z V } j.pXpXqX:XwXwX<X/.Z.Z.l.f.m.T.|.A.F.T.*X{.R.S.Y.S.v.g.C.l.g.J.Q.~. XXXqX5XeXzX6.{ J h h r 0 5 1 < ; - : ",
"& : : < 3 5 9 0 a v W ..K.jXaXeXeXeX;XJ.d.f.f.f.1.r.0.s.s.C.{.}..XD.g.U.U.Z.d.g.z.l.G.K.J.J.OX,XrXeXcXt.^ J h a r 9 5 1 2 ; - > ",
": & : > 2 1 6 w g v K  .~.lXaXdX0X,XQ.d.l.Q.~.D.r.h.d.w.s.M.V.U.B.0.C..X|.C.d.G.h.f.g.l.G.J.Q.:X>XpXvXb.) K g t 0 9 1 < ; ; ; - ",
"% & > 2 3 5 0 t h v K ] +XjXaX7X,X$XG.g.A./.(.C.M.3XS.w.t.d.s.0.r.q.B.*X*XT.f.p.i.s.t.b.G.J.Q.>XeXjXcXZ.E J z d 0 6 5 < ; - > - ",
"& : > ; 2 5 9 r g v U ..+XlXtX0X,X~.g.P.$XA.M.T.*X8XT.r.t.r.w.9.f.F.E..XT.C.s.d.v.g.g.l.Z.K.^.,XuXpXxXZ...K x r 9 5 1 ; ; : $ : ",
": > < < < 1 6 w a z K } R.jXqX,X#X~.S.OX=XV.m.U..X0XR.s.r.d.8.8.F.F.U.U.U.S.f.s.G.S.G.G.S.Q.^.,XsXpXuXd.) K x i 6 5 < ; - - $ , ",
": ; < < < 5 9 0 a x J | ^.xX:X#X+X&X#X-X7X Xx.n.f.G.v.y.w.r.8.0.M.9.f.C.T.B.f.t.g.J.I.P.S.Y.^.:XaXeX,Xe.{ P z t 0 6 5 < < ; - - ",
"& : > 1 5 6 0 t a x K | P.aX@X+X^.^.Q.@X-XY.e.3.x.e.1.x.r.7.q.D.0.0.A.U.V.N.F.l.d.g.l.P.Q.OX~.,X>X0X&X5.| L h p 0 9 5 4 < 2 ; ; ",
"% : < 1 5 9 r p a b J ' e.:X:X:X+XJ.l.l.S.Z.s.Z.I.w.r.Z.s.h.q.F.w.m.E.{.V.W.Z.G.G.Z.g.!.:X:X#X,X,XwX`.:.~ m a t 8 5 1 < ; > , = ",
"& > < 5 6 e r t p m L E =.+XrXpX,X^.k.u.d.I.Q.XXY.d.g.U.m._.C.9.s.m.[..X XY.S.Y./.OXY.+X,XqX:X,XuXuXp.' B h p r 5 1 ; ; - - - = ",
": ; 1 5 5 8 6 9 p h N T ;.^.eXiXuXOXH.i.d.l.G.~.Q.t.d.A.0.f.0.0.h.m.[.oX XA.A.~. X>X@X@X7XeX,XrXpXuX,.U z k t 9 5 1 < 2 2 - - - ",
"> > 2 < 1 5 5 6 r h z L } i.fXeX>X+X'.g.G.c.J.T.Z.w.,.s.f.f.0.N.0.f.S.W.R.A.S.Q.oX1XR.OXqX,XqXqXlXJ.~ N c a t 0 6 5 < ; - , , , ",
": ; < < < 1 6 6 0 d n ! ^ w.#X0X:X@X^.K.j.j.Q.Q.g.,.,.w.s.g.S.T.F.0.C.C.S.C.Y.$X=X;X#X#X2XqX0XuXrXs.L M h p 0 0 5 5 4 > > - : $ ",
"- ; < < 1 1 5 6 9 0 p x N o.K.rX1X>X+X%X!.K.R.P.j.2.<.1.8.f.W.R.S.f.f.g.Z.Z.~.$X;XqX:X+X1XeXwXaXS.#.J x a r 9 6 5 1 < 4 > > - - ",
"- < 2 < < < 3 7 0 9 p b V o.u.!.qX2X).^.Y.S.R.L.g.w.3.e.r.0.S.C.Z.Z.Z.Z.J.Y.OX@X;XqX,X:XeXpXpX X@.W N z p y e 6 5 4 < ; > > > : ",
"- - - ; ; < 1 5 q 0 g S D / ~ *.;XtX#XOXQ.]. XXXS.f.t.j.d.F.D.Z.g.Z.Q.U.$XXX:X;X,X:X@XqXpXjXtXd.L M x g i 0 7 6 6 1 < ; - ; : $ ",
"$ $ - - - ; 1 5 w i s c h b N Y t.,XqX:X%X4XqX8X XS.l.l.Z.S.S.J.S.S.R.|.=X>X,X,X1X#X:XeXjXeXJ.6.~ M g a r 6 5 5 7 1 4 < 2 - - $ ",
"# & : - ; < 1 6 9 r t d f g z V W Z.:XqX#X~.eXpX,X!.j.G.Q.Q.Y.Q.OX X@X;X:X:X,X,X@X#XrXpXaXP./ ( ^ b a t 0 5 < < < < ; ; ; ; - - ",
"& $ : > ; 1 5 6 9 9 6 6 t a j z I W t.,XuX:XtX,X,X!.k.J.+XQ.Q.+X0X>X,X,X,X:X#X:X:X1XtXpXT./ T N K x f u 9 4 4 ; > ; ; ; ; ; ; ; ",
"$ $ : > < < 1 1 < 1 5 9 0 t p g z M O.g.rXiXpXeX#X!.K.!.^.+X#X1XwXeXuXuXuX,X+X+XeXeX1XI.4.! B z h f t 0 6 1 < ; ; ; ; - - : , : ",
": - - - ; ; < > > < 5 6 0 r p p a B ) ( e.!.rXaXrX<X+X#X,XrX:X#XrXeXuXuXpXeX@X&XfX+Xs.,.W M g p r 0 9 6 6 5 1 1 ; - ; - - : : $ ",
": - - - : - - - - < 1 5 6 0 r r p j V J } *.g.R.:X:X,XeXpXjXuXqXqXeXuXjXjXeX;X^.d.b.a.*.N h t 0 6 5 5 1 1 1 1 < - - ; - - : $ $ ",
"$ $ $ $ $ - - : ; < 1 1 5 6 9 r a a a n ` L #.t.j.z.K.#XeXjXuXuXpXuXqX:X+XK.k.<.( *.+.F g t r 6 5 5 1 < < < ; ; ; > > , $ , $ $ ",
"% & % & & : - - < < 3 1 5 6 6 0 r t s h h z %.$.7.#.O.#.d.h.s.v.i.i.<.o./ X.+.W N B c a t 0 6 5 5 1 < < < ; ; - ; - - $ $ $ $ = ",
"O O % & & : - > ; < 2 3 1 1 6 6 9 r s g p a c x D B N I ) *.o.6.@./ P J N Z _ M p a p d 0 0 5 < 1 < ; ; > < ; < - - - - $ $ = # ",
"O O % % & : : - > ; 2 < < 1 5 6 9 9 r r r r a z z h h x L N B H B x b k a s s s 0 0 6 6 6 e 7 < < ; ; ; 2 > 2 ; - - - $ = # # # ",
"% % % & & : $ - > ; ; ; < < 1 5 5 7 8 6 9 0 r d k p r p n x g l h a p r 9 9 0 u w 6 1 1 7 1 5 8 1 < ; ; ; ; - , - - $ $ $ # # # ",
"O % # & & & & : : $ - > ; 1 1 3 1 5 1 7 5 6 0 t r 9 0 r d a p r p t 0 6 5 5 5 6 9 5 1 2 2 ; < 1 4 < ; ; - $ > : ; - : $ * * @ @ ",
"X X * # & & & : $ $ : - ; < < 1 1 < 1 1 1 5 6 0 9 6 6 9 r r 0 9 r 0 9 6 5 5 5 5 6 1 < < > ; ; 2 < < ; , - : : - - - $ = # * @ @ ",
"O O % % & & & & # & $ > ; > < ; < < ; < < < 5 6 1 1 1 1 8 8 6 1 6 6 5 1 1 1 < 1 1 < < ; ; - - ; ; ; ; ; ; , $ $ $ $ $ # # @ @ @ ",
"O O X % % % % % % # $ : - > > > - > > > > < < 5 2 2 2 2 3 1 4 < 1 1 1 1 < < < 2 < ; > < > - , , - , - ; - - $ # = # # * * @ + @ ",
"O O % O % % O % O % & : - - - - : : > > > > < < 2 ; < 2 < 2 < 2 2 < < 3 < < 2 ; > - > ; > : & = $ : : - - - $ = # * X X @ + @ + ",
"o O O O O O O o % % % & - - $ & & : : > : > > ; > > ; ; > > > 2 > > 2 2 2 ; > > : - - > : : & & = & $ - $ $ $ # X X @ @ + @ + + ",
"o o O O O O o o O % * * % % & & = & : : - > > > : - : - : : > > > > ; ; > - , - , : : : : & & % % # # # # * * @ @ @ + o + + + + ",
"o + O O O o + + O o @ * @ * % % * = & , , : > - & & : : & & : : : - , - , $ $ : & $ $ : $ = % % * X * @ @ X O X . . o + + + +   "
};
