/* XPM */
static char *exit_o1669747541[] = {
/* columns rows colors chars-per-pixel */
"64 64 252 2 ",
"   c #020605",
".  c #010B05",
"X  c #090A06",
"o  c #02060D",
"O  c #0C070C",
"+  c #01090E",
"@  c #0B0A0C",
"#  c #130706",
"$  c #1A0505",
"%  c #1C050A",
"&  c #130A0A",
"*  c #1A0A0A",
"=  c #170A07",
"-  c #00120C",
";  c #06120B",
":  c #1C150D",
">  c #030613",
",  c #090615",
"<  c #020A11",
"1  c #0A0913",
"2  c #03051A",
"3  c #020C1A",
"4  c #0B0A1B",
"5  c #031113",
"6  c #0C1214",
"7  c #181315",
"8  c #1A0B10",
"9  c #2B030A",
"0  c #230A0C",
"q  c #2A0906",
"w  c #340504",
"e  c #330C04",
"r  c #3C0209",
"t  c #3A0707",
"y  c #241A0D",
"u  c #28130C",
"i  c #251616",
"p  c #371B0E",
"a  c #3A230B",
"s  c #222011",
"d  c #3E2413",
"f  c #0C0423",
"g  c #000F20",
"h  c #430305",
"j  c #4D0201",
"k  c #470B09",
"l  c #540101",
"z  c #5B0101",
"x  c #550308",
"c  c #570807",
"v  c #481706",
"b  c #5C1909",
"n  c #640101",
"m  c #6B0201",
"M  c #680904",
"N  c #730301",
"B  c #7C0301",
"V  c #750802",
"C  c #7B0C01",
"Z  c #760E0D",
"A  c #6C1B08",
"S  c #781505",
"D  c #49280C",
"F  c #432B19",
"G  c #563715",
"H  c #51330F",
"J  c #752208",
"K  c #6D360E",
"L  c #63481A",
"P  c #7E5B19",
"I  c #72510E",
"U  c #830501",
"Y  c #8C0401",
"T  c #850801",
"R  c #8D0A01",
"E  c #800F09",
"W  c #930501",
"Q  c #9B0600",
"!  c #940B01",
"~  c #9B0C01",
"^  c #95070B",
"/  c #8C1202",
"(  c #891908",
")  c #941301",
"_  c #9D1101",
"`  c #971806",
"'  c #A30600",
"]  c #A90600",
"[  c #A40A01",
"{  c #AC0B01",
"}  c #A70E08",
"|  c #B30D01",
" . c #A41201",
".. c #AB1301",
"X. c #A41A01",
"o. c #AC1B02",
"O. c #AE1D08",
"+. c #B41302",
"@. c #B91401",
"#. c #B31B02",
"$. c #BC1B01",
"%. c #B71709",
"&. c #9B2205",
"*. c #AB2606",
"=. c #B42301",
"-. c #BB2402",
";. c #B42A02",
":. c #BC2B03",
">. c #B3250A",
",. c #BB240B",
"<. c #BA3507",
"1. c #A53318",
"2. c #C11601",
"3. c #C41B00",
"4. c #C91C01",
"5. c #C01F0B",
"6. c #C42302",
"7. c #CB2401",
"8. c #C42C03",
"9. c #CC2B03",
"0. c #C02C08",
"q. c #D22D02",
"w. c #D32906",
"e. c #C43305",
"r. c #CC3404",
"t. c #C43807",
"y. c #CC3A03",
"u. c #C63508",
"i. c #CB3609",
"p. c #CD3C0A",
"a. c #C53908",
"s. c #D43203",
"d. c #D93404",
"f. c #D33C05",
"g. c #DB3C05",
"h. c #D33D0A",
"j. c #DA3C0A",
"k. c #D7330A",
"l. c #C72C11",
"z. c #E13E04",
"x. c #865319",
"c. c #95430B",
"v. c #AE400F",
"b. c #8A6413",
"n. c #956B15",
"m. c #BD7111",
"M. c #A96C15",
"N. c #B07622",
"B. c #C74009",
"V. c #CC4309",
"C. c #CF4B0D",
"Z. c #D34206",
"A. c #DC4305",
"S. c #DC4B03",
"D. c #D5440B",
"F. c #DB440A",
"G. c #D44A0E",
"H. c #DC4C0B",
"J. c #D14A06",
"K. c #DC530B",
"L. c #DE5508",
"P. c #C64C14",
"I. c #D54B11",
"U. c #D94E11",
"Y. c #D44610",
"T. c #DC5313",
"R. c #D85915",
"E. c #E44406",
"W. c #E94606",
"Q. c #E34A05",
"!. c #E3470A",
"~. c #E34E0B",
"^. c #EB4B0B",
"/. c #E9440A",
"(. c #E5530B",
"). c #E9530C",
"_. c #E55B0C",
"`. c #EA5B0C",
"'. c #E45906",
"]. c #F25B02",
"[. c #E34D10",
"{. c #E45B13",
"}. c #EA5D12",
"|. c #E55513",
" X c #DC6608",
".X c #DD6414",
"XX c #DF6F17",
"oX c #C97C11",
"OX c #DE741A",
"+X c #CE7F08",
"@X c #E3620C",
"#X c #EC640D",
"$X c #EC6B0D",
"%X c #E86A0B",
"&X c #F1670C",
"*X c #EB730D",
"=X c #E9790C",
"-X c #F0740D",
";X c #E46413",
":X c #EC6412",
">X c #E56B13",
",X c #EB6B13",
"<X c #E46D18",
"1X c #EC6D19",
"2X c #E26219",
"3X c #F26A15",
"4X c #ED7416",
"5X c #E5741B",
"6X c #EC731A",
"7X c #EC7C1C",
"8X c #E87918",
"9X c #F27C19",
"0X c #F27815",
"qX c #BF8524",
"wX c #D1800D",
"eX c #CB8418",
"rX c #DB8412",
"tX c #D38E17",
"yX c #D5971C",
"uX c #C69314",
"iX c #F8970C",
"pX c #EC8414",
"aX c #ED8C16",
"sX c #EC841B",
"dX c #EF8C1A",
"fX c #E48717",
"gX c #F28515",
"hX c #F48C16",
"jX c #F28419",
"kX c #F48A1A",
"lX c #FA8A19",
"zX c #FB9D13",
"xX c #F5941B",
"cX c #F79817",
"vX c #EC9A14",
"bX c #EEA01F",
"nX c #FCAB15",
"mX c #FCA319",
"MX c #F7A518",
"NX c #FAB51E",
"BX c #FEA708",
"VX c #DD9722",
"CX c #EB8D2A",
"ZX c #F18C22",
"AX c #F58524",
"SX c #F39524",
"DX c #F69A22",
"FX c #FC9C20",
"GX c #F89325",
"HX c #F5AC22",
"JX c #F7A524",
"KX c #F7B022",
/* pixels */
"o o o < o o < > o o o < < < < > < o + o + + o + < + + < , , , > 3 < 3 < < 1 , , < < < < < < < < + + < + o + < < + O + o + + o + ",
"< < o < < o < o o o > o < < < < + o o + < o < o + + + . + . - . + + + . . - - 5 < + 5 + < < + 5 + + < + < + + + + < + < o < + o ",
"< o < < < > o < < < o < < o o < o + < o o o + + O < < < > < 4 < + + < 3 4 3 2 , < < < < + < < < < + + + < + + + < < o o + o + o ",
"< < < o o < < < < < < < < < < o + + o + + + o + + + + X + + o o 3 < < < + + . . < < < < < < < < + + + < + < o < + + + + + + o < ",
"o < o < < o < o < < < o o o o < + + o + + + o + > < < < 1 1 @ +   o > 3 3 < < 5 < + < + < < + < + < + + < + + + + < < o o < + o ",
"< < < < < < < < < < < > < < > o o < + o o o + + < . . .   + < < + - . - + + < < < < < 5 < < < < + + o + < + < < + + + + + o o + ",
"< < < < < < < o < < o < < < o < + o o o + o + o 3 < + 1 @ = 7 i 7 6 1 @ X - 3 3 < < < < < < < < > + < 1 + + + O < o + o + < + + ",
"o < > o < o < > < o < < o o < < + o + < + + o o q a K x.M.m.oXrXrXrXeXM.P G y @ < < + < 5 + < < + + + + o < < + < + < + o o + o ",
"< + < < < + < < . , 2 < X o < 3 + + @ @ o X a c. X*X9XlXlXlXxXxXGXcXcXmXJXJXVXm.L y 3 3 3 o < + . 2 , O < + . > + o + o + < o + ",
"< > < < > > < < 4 o X < 3 5 <   3 . o 2 p c. X5X>X4X0X9X9XjXjXdXxXxXcXcXzXMXJXbXbXuXI : + 5 <   o o < ; . > < . o + o + + o o + ",
"< < > + < + < < f + . 1 > + O <   + u K R..X'.&X<X1X<X>X>X>X<XXXOXOXfXsXfXdXxXDXMXmXnXtXL 6   4 4 . + 3 X O 3 + + + o + o + + o ",
"> < < < < < < o < < < > < O X 3 $ v v.'.]._.;X.X@X@X_. XL.;X2X<XOXOX5X8X7XpXpXpXCXxXcXMXnXN.F + < ; + > 3 . + 4 + o < o + + o < ",
"+ < < > < < < < . < > 3 1 <   & A v.S.Z.J.'.].-X#X#X:X:X;X;X;X;X1X<X1X5X7X7XsXhXxXSXHXnXnXNXyXI X + + 5 2 < . @ + o o < o o < o ",
"< < < + < + < < < 3 o . 4 < & ( y.a.V.Z.Z.G.K.Q.#X:X3X:X:X,X1X1X,X1X6X9X7XsXZXGXcXiXmXJXHXKXNXvXb.u > + + O < + o + + o + + + + ",
"< < < < < < < < 3 + X + + 0 A 0.6.s.f.r.p.y.V.I.S.L.(._.}.;X1X6X-X-XgXjXjXhXhXhXiXZXCXxXaXaXDXbXHXb.y o   @ + < + + o + < o o + ",
"< < o < < < < + 3 X > 3 @ S -.;.;.=.-.8.u.f.Z.A.S.H.H.H.K.K._.L.2X2X2X XXX8X5X8X7XfXpX7XjXhXcXcXmXNXn.* g 3 o + < o + + o + + o ",
"< < < > + < < 1 2 - . , b =.=.#.o.=.=.=.=.8.u.p.Z.D.D.Y.Y.Y.Y.I.U.I.R.T.R.2X;X>X1X6X0XjXgXkXhXcXzXxXMXx.5 . 4 . + + + o < + o + ",
"+ > < < < < < o , < + u ( =.=.#.#.=.-.;.;.8.8.r.r.f.f.f.f.D.G.G.G.I.H.T.T.{.;X2X>X1X4X4X0XpXsXdXfXDXbXVXG 3   4 o + o + + o o + ",
"< < > < < < < < 6 2 O A o.` o.X.o.=.-.0.e.s.f.g.f.Z.F.Z.D.D.G.G.G.H.U.T.{.T.{.}.@X,X,X,X4X4X7X9XAXaXFXBXeXs . f + + o + o + + o ",
"< < + < < o < < @ 2 t X...) [ ) _ X.o.-.8.r.f.g.g.h.F.Z.Z.Z.Z.J.G.G.Y.U.T.{.{.{.;X;X;X#X>X>X4X0XjXaXaXcXDXP . < + o < o + + o < ",
"< < o < < + < < + 8 E #.) ) ~ ) ) _  .o.#.-.8.r.f.Z.D.D.D.F.D.H.C.G.C.Y.I.I.T.T.T.|.{.{.:X$X,X0X*XjXfXZXlXyXa - + o o < o o + o ",
"< < < < < > < < @ k o._ / ` / ~ _ _ _  .X.o.#.-.:.8.e.r.y.p.a.a.B.B.B.a.p.V.V.G.H.T.{.}.:X#X$X$X$X6XjXfXlXcXn.+ o + + o + < + + ",
"> < < < < < < > 9 S X.) ! ~ R ! _ _  . ...#.#.#.-.:.0.0.e.<.t.t.<.t.t.a.a.p.D.D.H.K.{.}.:X#X&X,X0X1X4XpXsXiXtXd < + o + + o o + ",
"< + < + > < < + k ( ) _ ` ^ ^ )  . ...+.#.#.#.-.-.-.:.:.:.:.:.e.e.t.u.a.p.h.D.F.K.(._.}.:X:X:X:X#X#X3X4XZXiXZXx.+ o + + o + < o ",
"1 + 1 1 . , 2 X C / _ _ ! T ! ! ~ _ X...#.#.3.6.q.9.s.r.r.r.r.p.y.y.Z.Z.Z.A.F.F.~.~.[.[.[.).|._.#X@X>X4X7XsXrXwXi .   < 3 @ o + ",
"> + , < + 3 3 = / ) _ _ R R / ~ ! ~  .[ ....#.$.$.3.7.r.r.y.y.y.p.p.B.p.p.p.p.B.r.f.Z.F.F.(.(.}.}._.%X$X*XpXxXaXF - . 3 < X + < ",
", + > < . , 1 t ) ` ! ! / ) ! ~ ! ~ ~  .{ ....+.+.%.#.$.-.-.-.:.:.:.:.:.:.:.:.<.r.u.h.h.F.[.|.|.`.`.].#X%X-XhXxXI @ < + < @ + < ",
"1 + < < + o , v ) ! ! R R R _ ~ _ _  ... .{ +.+.+.+.+.+.+.+.%.%.=.=.;.=.:.:.:.:.e.u.a.f.Z.F.!.~.)._.`.#X#X-X0XhXM.& 2 . < + < < ",
", + < < + < # M _ ! ! T R ! ~ _ [  .[ ......+.+.$.$.3.6.3.-.6.-.-.-.6.:.:.8.u.u.e.i.f.f.Z.E.Q.~.).).`.#X&X&X*X=XwX: 2 . < + 5 < ",
", + o < + < # C ) ! R ! ! ! ~  .[  . ...{ ....+.+.@.@.2.3.3.6.7.8.8.8.8.e.e.e.r.r.f.h.j.E.E.~.).).).(.).`.#X$X*X=Xa 3 + @ + 3 + ",
"3 . < < , < # C R T T R ! ! ~ _  .......+...| { %.| | | | @.@.#.6.6.7.8.8.8.8.8.e.r.s.d.g.A.E.A.Q.Q.Q.S.)._._.*X*XD + < X + 3 X ",
"3 + + < 1 3 @ T T U T ! ! Q ! ~ [ ..#.#.#.+.+.+.+.+.+.@.@.+.+.+.+.+.#.$.-.-.-.8.7.r.r.f.g.g.A.!.W.W.E.E.).(.L. X%XH . 3 + + 2 X ",
"< + 1 < + < % V T B B T T ^ ~ ~ [ { | +.@.$.$.@.2.@.2.2.2.2.2.2.3.3.6.6.8.6.9.9.r.q.s.f.g.z.E.W.W.W.^.^.!.H.H._.%XG   < 5 . 3 < ",
"< o 1 3 + 3 % N B V B B B T Y Y ~ ~  .o.+.+.@.+.$.2.2.2.4.4.4.4.4.4.3.3.6.7.6.7.7.7.q.s.d.z.g.z./.z.z.z.d.g.H._.#XG X + < . 3 + ",
"> o 1 > + > * m V V N N B B U Y R R ~ _ { { +.+.+.@.2.2.4.4.4.4.4.4.7.7.7.7.9.w.w.l.9.9.q.s.s.d.d.d.d.d.j.j.[.}._.b @ 3 o @ < . ",
"> + , > X < & z V N V N N B T R T R Y W ~ [ ] ] [ { | | @.2.2.2.2.2.4.2.3.3.6.7.6.6.6.7.7.7.q.q.q.w.w.k.j.j.F.~.K.p - < < 1 < 5 ",
"> + , < X < O x m m m m N B B T R ! ! W Q Q Q Q [ ' [ [ ] | | @.%.| | @.@.@.@.$.$.$.#.-.6.6.9.q.k.w.q.d.q.d.F.S.P.u - < < X < + ",
"1 + , > + 5 o h n n n m m m N B Y Y ^ ~ ~ Q ~ ~ Q ' Q ] ' } [ { ] ] ] ] { | | | @.$.3.-.6.7.7.7.w.w.q.q.s.j.F.~.c.& < + < O < + ",
"> + 2 < X + < w n z z z z m m N B U R R ~ ~ _ [ ~ [ ' [ ] { [ { ] | | | @.@.@.%.$.$.$.6.-.6.6.7.4.7.q.w.k.j.h.Z.K O 3 . +   3 + ",
"1 o , > + < + 9 z l l z z n n n N B B Y W ! Q Q [ [ { { { { ..{ +.| @.@.@.@.@.@.+.+.#.+.#.$.$.3.4.4.7.7.8.i.p.V.v > 2   ; . 3 < ",
"o < 1 + < + < < z l l z l z n n m N B U Y Y W W Q Q [ [ } [ { +.| | | | | | | | ] { | | @.@.$.6.7.3.,.l.w.r.v.;.+ + + + < + + < ",
"> 1 > < < > < < t x n l l z n n n m N B B U T T Y W W W Q Q Q Q ' [ ] } ] [ ] ] | { { +.+.@.2.3.@.3.#.6.w.9.P.J + + < + - < + + ",
"o o < o < < < > = j n l j x z n m m N B B B B B Y Y Y W W W W Q Q Q Q ] [ } ] [ { ] ] { | +.@.@.@.5.#.-.l.s.v.p + < + + + + < + ",
"< 1 > 1 > < < + < r n z l l c n m N N B U Y Y W Y Y Y Y W W W W ' Q ' ] { ] ] ] | { ] | | | +.@.@.%.6.-.8.p.J < + + + < < < + + ",
"< O + 1 + < < + 2 * h m z j l n n m N B Y R ! Q Q ~ ^ [ [ } } } [ [ [ { { { { | | | | | +.| +.| @.+.,.:.<.1.e . + + + < + < + + ",
"> < > > < < < > 1 + q z c j z z l z z n N B R R W W ! Q Q Q Q ' [ [ ] [ { { { ] { ] { { | { { { +.$.>.;.;.b <   < < + + - < < + ",
"< > > < < < < < < < @ r z z z z l l x z z n m N B T T Y Y W W W Q W Q Q ' ' ' ' ' ' ] [ ' ' [ .. .>.>.*.J * < . + + < + + < + + ",
"o 1 < O < > + < . < 3 % l n l x n z z z z n n m N N N B B U T Y Y Y Y W W Q W Q Q W Q Q Q ~ [ } X.*.*.*.t + + 5 < + - < + + + < ",
"< < < < < < > < < 1 , + 9 x m l z n z z l l l z n m m m m N V B B U B U U U U U W Y Y W W ~  .X.&.>.&.v o 2 < . . + + + < < + < ",
"< < < + < < + < 1 , < + @ q l n l l z n z z z n n z n n n n n n n n m m m m N N N N N E R ! ) ( O.( v & . 3 < + + + < + + + + 5 ",
"> < > < + < < < , < < < + - q x z z z z m m n z M n M n m m m m m m m N N N N B N B B B V C / ` ` v 6 + + . < , + + + + + + + < ",
"< < + < > < < + + + < 1 + . X 9 l z n n z z z n n n n m m m N m B B B B B B B B B N m m m C S S p & < 2 + . + 2 < + + < < + + 5 ",
"< + < < < > + > + < > 1 < + + o 9 r z z z l z n n n n n m m m m m n m n n n z z z l l z V Z b e + + < , < + + + + + < + + + 5 + ",
"< < < + < + 1 < < 1 < < < 1 > < + # w j z n z x z l l z z l l l x z z l l j l l x n m V M t & + < + + - < , X . + + + + + < < + ",
"> < < > < < > < 1 1 < + + 1 1 3 < + + 0 h x j j j j l l j l j l l l x l z z z z n m m c e X + 3 6 @ . . + , < + + + < < < + 5 + ",
"< + < < < < + < + < < + + < < o < > > < + # w l z l l l l l l l j j l l z z n n M j * < 2 > < + < + < @ 5 - < + + + - + + + < + ",
"< < + > < 1 < < < < < < < < < < < < < < < + < < q w r j z z z z z z z x j h w w < < < < + < < < + < + < < + + + + + < + < < 5 < ",
"> < < < < o < < < < < < o < < < < < < < < < < < + + O = % % % * # # # # @ O + o < < < < < < + 5 + + + + + + < < + < + + - < 5 < ",
"+ < < < < < + < o o < < o < o < < + + < < + < < 3 3 3 3 3 < 5 5 < < 3 3 3 > < 3 < + < + < < + < < + < + + < + + + + < < + 5 @ < ",
"< < < < < o > < < < < o < < o < + < < + + < < + 1 < < < < < 1 < < < + < o 1 + > < < < 5 < < < < 5 + < - + + < - + + + + + < < 5 ",
"< + < < < > + < + < + < < o > o < < + < + < + < + . + < + + + . + + + + + + . + < + < < < < + < + + < + + + < < < - + + < + < 5 ",
"< > < < < < < < < < < < < < < < < < < < < < < < 3 < 5 5 < 3 3 < < 3 , < < 3 < 3 < 5 < < < < < < + + < + < + + + + + < < < 5 < @ ",
"+ < > + < < < < < 1 < < 3 < < < < < < + < < 5 < 3 , 3 3 3 < 3 < < 3 3 < 3 < < < + < < < < < < < + < + + < + < + + + + + + 5 5 < ",
"> < < < < < < < < < < < < < , < 5 < 5 3 < 5 < < @ + + < < - + - + + @ + + @ + + < < < < < + < < < - + < + + + + + < + < + + 5 < "
};
