/* XPM */
static char *ship_w1669747139[] = {
/* columns rows colors chars-per-pixel */
"64 64 124 2 ",
"   c #020202",
".  c #080706",
"X  c #000A02",
"o  c #0A0806",
"O  c #01060C",
"+  c #0A0609",
"@  c #02090E",
"#  c #0B0B0B",
"$  c #0E100F",
"%  c #11100E",
"&  c #020710",
"*  c #020A11",
"=  c #0A0D12",
"-  c #0C0F18",
";  c #1E0F12",
":  c #061012",
">  c #0C1115",
",  c #07111A",
"<  c #0D1419",
"1  c #141414",
"2  c #181514",
"3  c #1A1917",
"4  c #11151A",
"5  c #15191C",
"6  c #1B1B1C",
"7  c #360711",
"8  c #201E1F",
"9  c #301015",
"0  c #17211D",
"q  c #23211E",
"w  c #171B20",
"e  c #1B1E21",
"r  c #211F20",
"t  c #1D2224",
"y  c #232324",
"u  c #2A2826",
"i  c #25262A",
"p  c #262A29",
"a  c #2B2B2B",
"s  c #32262A",
"d  c #312D2D",
"f  c #34332F",
"g  c #2A2D31",
"h  c #2E3434",
"j  c #2F3438",
"k  c #333334",
"l  c #363837",
"z  c #343738",
"x  c #373B3A",
"c  c #3B3B3B",
"v  c #4E0C18",
"b  c #590212",
"n  c #620A20",
"m  c #5A252D",
"M  c #522A33",
"N  c #473134",
"B  c #413B3D",
"V  c #593036",
"C  c #6E2737",
"Z  c #41413F",
"A  c #3D3E41",
"S  c #3E4244",
"D  c #434343",
"F  c #484846",
"G  c #454649",
"H  c #47484C",
"J  c #4B4B4C",
"K  c #524C4E",
"L  c #4E504F",
"P  c #52524F",
"I  c #584F52",
"U  c #445350",
"Y  c #4D5253",
"T  c #545353",
"R  c #5B5257",
"E  c #535758",
"W  c #5B5B5B",
"Q  c #625F5F",
"!  c #57605D",
"~  c #61615F",
"^  c #635F61",
"/  c #5E6265",
"(  c #646464",
")  c #686566",
"_  c #656669",
"`  c #666D6D",
"'  c #6B6B6B",
"]  c #63726D",
"[  c #6B716F",
"{  c #71706E",
"}  c #6E6E70",
"|  c #786C70",
" . c #6C7473",
".. c #6D7977",
"X. c #747474",
"o. c #7B7476",
"O. c #767979",
"+. c #7C7C7C",
"@. c #7B817F",
"#. c #7D7E80",
"$. c #798480",
"%. c #848484",
"&. c #8D8D8D",
"*. c #908186",
"=. c #849187",
"-. c #82938D",
";. c #869B8C",
":. c #91918F",
">. c #949494",
",. c #929992",
"<. c #9F9498",
"1. c #9D9D9D",
"2. c #A0A09E",
"3. c #A3A3A3",
"4. c #ABA7A8",
"5. c #ABABAB",
"6. c #B3A4A9",
"7. c #B1B2AE",
"8. c #B2B2B2",
"9. c #BBBBBB",
"0. c #C0C0C0",
"q. c #CAC5C2",
"w. c #C2CBC6",
"e. c #CACCC9",
/* pixels */
"@ @ @ & @ & @ @ @ @ @ & & * * = & O @ @ @ O @ @ @ @ @ @ & @ @ @ * @ * * * * * : @ * * * & : @ * * * @ @ * @ * @ * @ @ @ @ @ @ @ ",
"& & & & @ & & & O @ @ & & * * * & @ @ @ @ O @ O @ @ @ @ @ @ * @ & * * * * @ * * * & : & & : * * @ @ @ @ & # @ @ @ @ @ @ @ @ @ @ ",
"& & @ & @ * @ * & & & & & & * * @ @ O @ @ O O O @ @ @ @ @ @ @ * @ @ * * * * * * & O * * & * * * @ @ * @ & @ @ * @ @ @ @ @ @ @ @ ",
"& @ & & & & & & & & & & & & & & O @ @ @ @ O . O @ @ @ @ * @ @ * * * * * * * * : *   * * & * * * @ * @ @ @ @ @ @ * @ & @ O O @ @ ",
"& @ & & * @ & @ * * * * * @ @ @ @ @ @ & *   O . @ @ @ @ @ @ * # * * * * * * * : = @ @ & * * * * @ * @ @ * @ @ @ & @ & O @ @ @ @ ",
"* & * * * & * & * * & * & @ @ & @ O @ @ @ @ @ O @ @ @ @ @ & * * * * * * * * * * @ 4 @ @ @ * * * @ @ * & @ @ * @ @ @ & @ @ O @ O ",
"& * * & * * * * * * & & & & & & O O @ O @ 4 w O @ @ @ @ @ * # * @ & * * * * * * . j > @ @ * * * @ @ @ # @ @ * @ @ @ @ @ O @ @ O ",
"& * @ & & & @ & & & & @ & @ & & @ @ = @ & i g @ @ @ @ @ @ & * * @ * * * * * * : = Y t * O : * @ & @ * @ & @ @ @ @ & & @ @ @ @ & ",
"& * & * * * * * * * * & * * & & < O * & O c z @ * O = @ * * * & @ @ @ @ , O @ @ O ` h @ , @ > > @ @ @ @ @ @ @ @ @ @ @ O @ @ @ O ",
"* * * * & * & & * * * & * & * & # & * @ @ W S   @ & * O : * , = * @ @ O & * @ @ . / k @ * & * = @ * @ * * & @ * @ @ @ @ @ O @ & ",
"* & & * * * * * = * * * * * & * . * @ & O G a . @ & O O , @ @ O & & , : & * * * O D i . * * * = @ & @ @ @ @ # & @ @ @ O & O @ @ ",
"* * * * & * * & * * * * & * & & @ @ @ :   6 . O @ @ O * # O * > * & @ * & * & O   6 1 O * , * < # @ @ @ * @ & @ @ @ @ @ @ @ @ O ",
"* * * & * * & * * * * & * & & @ # O @ O   1     . O # > # > w 5 t i 6 5 y w 6 1   # # . & * @ < & * @ @ @ & @ @ @ O @ & @ O @ @ ",
"& * * * * * * * * * * * * * & * # O * @   4 . # . O = 1 1 6 >   + 6 u y a r y 6 # . # O * * @ > * @ @ @ @ & @ & @ @ @ O @ @ & O ",
"* * & * * * * * * * * * * & @ & @ O @ =   4 . = o o $ 1 6 3   3 1 # h a a u y 8 # o 1 . & * , > @ @ * @ @ @ @ & O & @ @ @ @ @ @ ",
"* & * * * * * * * * & * * * * & . @ O *   r . . o o 1 6 3 % % ' L # a a k g y 6 . # 3 . O & : # @ & @ @ @ & @ @ @ @ O @ @ & O @ ",
"& * * & * & * * * * * * * * & & * @ @ @   i       # 1 6 y 1   1 %   i k c d a 4   = y   @ @ @ * * @ * @ * @ @ & @ @ @ O @ & @ @ ",
"& * * & * * & * * * * * * * & & & @ @ O   a     . = 3 6 y +   # #   6 z c c k 3   + i   # @ @ = @ @ @ @ @ @ @ @ @ @ @ @ @ O O @ ",
"* & * @ & * * * * * * & * * * & * & @ O   k     . % 1 y y           % c c Z c 1   . a   @ @ @ & @ * @ * * @ & @ @ @ O O @ @ & @ ",
"* * * * * * * & * * * * * * & & & - +     l     . 1 6 u y           # D c c z 3   . x   O @ & @ @ @ @ @ @ @ @ @ @ @ @ @ @ O @ @ ",
"* * * * * * * & * * * * & & & & O - @   # Z     # 3 r a y           . D F Z c r   # F     @ * O @ @ @ * @ @ @ @ & O O @ O @ @ O ",
"& * & & * & * * * * * * & & & @ O + O   1 J     $ 6 i k 1             x T F x r   o E .   . = O @ * @ @ @ @ = @ @ @ @ @ & @ @ @ ",
"* * * * * & * & * = & * * * @ & = =     6 T     # 6 a a #             y E J D y   . Q #     * . @ @ @ * * @ * @ @ @ @ @ @ O O & ",
"& * * & * * * * * * * * & * @ @ 1 %     6 E     $ 6 a f               3 J T D a   + _ 4 O . # # @ * @ @ @ @ @ @ & O & O @ @ @ @ ",
"= & * * * * * * = O * & * @ @ > 3       f W .   $ y k 6 .   . . X X . . K R J k .   ( 3 1 # + 1 * @ * * @ & & @ @ & & @ @ @ @ @ ",
"@ & * & & * & * @ - & * @ * @ 5 +     . k W     ; y h 0 # 9 v b n 7 # O U W K x   + ! 8 6 3   # > * # * * * * @ @ @ @ @ * @ @ * ",
"& * * * & * & * & * & & * @ 4 1     1 + a D   + q a x 0 2 N V m C M u X Y ) T B . . F 6 k c .   > : * @ = * @ @ & @ & & @ @ @ @ ",
"* * * & * * * * = @ * & * * 5     . y # a l   # 6 p Z 8 k %.&.;.,.,.'   J ' ~ K $   c 6 c E 3   . 1 * @ @ & @ & @ @ @ @ * @ @ * ",
"* & * * & * & * & * @ * = e #     + a # D Z   # d c J 6 J 8.7.q.w.e.>.X W @.' T 1   J a D ( k .   > 4 = @ @ @ # * @ @ @ @ @ * @ ",
"* * * & & * * * @ = & @ e r     . 6 x 1 K c   1 s B T y U 3.<.6.6.4.O.. Q %.O.[ 6   W x J [ J 1   + 1 1 = @ @ @ @ @ & @ @ @ @ @ ",
"* * * * * & * & & @ - < i =     1 k L 1 T k   y k D T k D O. ...X.X.( d | *.o.{ k   T c W &.) d .   # < < @ O @ @ @ @ @ @ * * @ ",
"& * & * * * * * * O = g <       6 D W 6 W l   y k D J B B W ' _  ./ K c ] -.@.o.S . F D ' 2.+.F 1   . 4 4 # @ # @ * = @ @ @ @ @ ",
"* & & & * * * * = O p 6 .     = a T ) 8 ( i # d B J E u 1 c l D D H a 1 X.>.%.+.E . Z F _ 5.&.( g     # 3 w O @ & * @ @ : : @ : ",
"& = = & & & * * * w i 1     . 6 D W X.p ( y + p l F E p # a u a y d q . X.1.&.+.(   D F ' 8.>.X.S 1     # 6 4 O & * @ @ @ @ @ * ",
"& - * & * * O * < g 6 .     1 a J X.%.u ( y # k B J W x + t 6 6 y 6 1 1 >.3.&.#.) # c E ( 9.4.%.W u     . > y : @ @ : @ O @ @ @ ",
"& & & & - * @ - t i +       6 A W X.%.i ( 6 3 z D F W F . 6 6 6 1 1   y 3.7.1.&.X.6 a W ) 9.7.1.+.F 1 .   . t 5 : @ @ @ @ @ * O ",
"= & & & * @ = e p >       $ i J ' +.%.k ( % y Z F T W E . $ # # # 3 . c 4.8.5.&.%.y u W ( 5.5.3.&.( d #     # e 4 @ @ * * * @ @ ",
"& & & = & * 5 a 1 .     X q c R X.3.%.y ) 2 6 c F J T W 1 + . o . #   E 1.1.>.%.) y a ' J 0.8.3.1.%.T 1   . . % 0 > @ * * * @ @ ",
"& & - & & < y y +       # a F ~ %.1.J 1 ' 6 y H Z Z J T 6     . .   + ( +.' ' _ W p p X.y >.8.5.2.:.' a .     o 6 3 : * @ @ @ @ ",
"+ & & & * t i 1 .       3 l P [ %.F   6 _ y F +.%.+.%.+.L 1 1 6 1 1 c >.3.3.5.8.3.B a '   1 >.3.1.:.+.F 4     . $ 6 5 : @ : @ @ ",
"& - & @ 6 i 3 +       # y D W X.D     3 R p l ) O.&.>.3.O.X.>.>.>.%.X.1.3.7.5.4.:.k a ^   . 6 :.3.,.%.J p .     . 1 6 1 * @ * * ",
"& & & 4 r y %   .     1 l R ) D # #   6 ( 6 l W R ~ ' %.+.#.3.5.8.>.( +.+.%.#.#.' d 6 ( .   + p %.1.+. .Z #       $ 6 6 > @ @ : ",
"* O = r y 4 +       . y F / D .   6   p ( 3 D ( +.#.[ ( T ~ 2.4.8.1.( %.&.>.1.5.>.k 6 ( .   6 . F 2.>.%.J 6 . .   . > 6 4 # O @ ",
"& & w r 5 # .     O 5 y J T 1   .     d Q 0 D W W ( X.%.#.) 1.3.8.3.' %.#.$.+.%.+.d y ( #   . # . ' 5.&._ S * . .   . 1 0 4 : @ ",
"& 4 r r # O + O O . : > y 6           k T 1 D X.X.+.X.( / Y >.1.5.>.( #.%.>.2.2.&.k 6 W o   .     1 J z h t @ @ . O X : 1 5 > : ",
"- w w - O @ # O * @ O :           .   l Q 1 6 y B K ( X.+.E >.3.5.&.( +.X.o.' E T D y T 1   X +     O . # : @ @ @ @ @ # : : > : ",
"- 4 = & & - * & & * O -     .     .   l T # y p p c Z D J c &.4.5.+.( +.X.X.+.' W K 6 W 6   .         @ @ @ * & @ & @ X X @ : : ",
"& - & O * * & * & & @   O       .     l l   3 6 p k B W _ J &.2.3.X.+.1.%.+.O.) E c   T y     +       . @ @ & * : * @ @ : @ @ @ ",
"& * * * * * & & * * * @         O     q 8   # 5 q u d Z ( G &.3.2.' +.&.O.' Q W H 1   f o     O + X     @ @ @ @ @ @ @ @ @ @ @ @ ",
"& & * & * & * * * & * & O   O O .     d q   O > 1 q u c J j / ( O.E ` #.{ ( R D i     D q       # .   O @ @ @ : @ @ @ : @ : @ : ",
"* & * * * * * & & * & & O @ @ @ .   . u %   . @ 1 6 0 e e * < & > & i S G H F z = .   u 1 X . O @ O O @ @ @ @ @ @ @ @ @ @ @ @ : ",
"* * * & * & * * & * * * & @ * & @     D y   O & @ @ = = = * * O * @ O * @ > t < @ O   k k     = * & @ @ @ @ @ @ @ @ @ @ : @ @ @ ",
"* & * & * * * * * * * * & & * * @     ( k     @ * - * * * , * , @ * @ = : & * O .     D J     @ : * : * * @ O @ @ @ @ @ @ @ : @ ",
"* * * & & * & & * & * * & & * *   .   ) a   O O & & * * & , * : * , @ & & @ , * O O   D T     O * * * @ @ @ @ @ @ @ @ : @ @ : @ ",
"* * & * * & * = & * * & * & & &     o { d   O @ * : * , & * @ & & * * , : & & @ .     D (     O * @ @ @ @ @ @ : @ @ @ @ @ @ @ * ",
"& * * * * * * & & * * & # * @ @     # T o     . * * * * * * * : * * * & * * * & O .   f P   .   @ @ : @ @ @ @ @ @ @ @ * @ @ : @ ",
"* & & * & * * * * * * * & & * *       # .     * * * * * * * , * * * * * * * * * .     + 1   .   @ @ : @ @ @ @ @ @ @ @ @ @ : @ * ",
"* * * * * * & & & * * * * * & * .             * * * * , * * * * * * * * * * * * @ .     .     . @ @ @ * @ @ : @ @ @ : @ : @ * : ",
"& * * & * & * * & * & & & & @ & .     .     @ @ * : : * * : : * * & * * * * * * . @     .     @ : @ @ @ @ @ @ @ @ @ @ @ : * : * ",
"& * * & * * & * * & @ & @ & @ * O   X 6   . O O * * * * * * * * * * * * * * * * O O   . 1 X   . @ @ @ @ @ : @ : @ : @ @ @ * : @ ",
"* * * * * & * * * & & & & & * @ O   . q   O O * * * * * * * : * : * * * * * * * * O     6     # @ : @ @ : @ @ @ @ @ @ @ @ @ : * ",
"* & * & * & * & * * & * * * * & @   O t     O , , * * * * * * * @ * * * * * @ : * O     y   O * @ @ @ @ @ @ @ @ @ : * @ * : : * ",
"* & * * * * * * * * * * * * * * O . @ 6   @ * * * , : * * : : * * * * * * * * * * @ .   6 . X & @ @ @ @ @ @ @ @ @ @ @ @ @ * * @ ",
"* * * & * * * * * = * , * * = * @ O # @   O , * * * * * * * * * * * * @ * * * * * * O   =   O * * @ @ : @ @ : @ @ @ : @ @ : * : "
};
