/* XPM */
static char *ship_s1669747139[] = {
/* columns rows colors chars-per-pixel */
"64 64 128 2 ",
"   c #020203",
".  c #080607",
"X  c #020903",
"o  c #0A0806",
"O  c #01060B",
"+  c #0A0709",
"@  c #02090E",
"#  c #0B0B0B",
"$  c #100D0D",
"%  c #010710",
"&  c #020A11",
"*  c #0A0E12",
"=  c #0C0F18",
"-  c #1E0F12",
";  c #071017",
":  c #0D1115",
">  c #07111A",
",  c #0D131A",
"<  c #141414",
"1  c #1A1715",
"2  c #171916",
"3  c #1C1817",
"4  c #12161A",
"5  c #161A1D",
"6  c #1B1C1C",
"7  c #34050F",
"8  c #211D1C",
"9  c #301015",
"0  c #16211D",
"q  c #1F211E",
"w  c #21201E",
"e  c #191D21",
"r  c #1D2125",
"t  c #232324",
"y  c #222826",
"u  c #2B2926",
"i  c #232629",
"p  c #272A2C",
"a  c #2B2B2C",
"s  c #342B2E",
"d  c #31302E",
"f  c #2A2E31",
"g  c #312F30",
"h  c #2E3334",
"j  c #343434",
"k  c #383637",
"l  c #323834",
"z  c #383A37",
"x  c #343638",
"c  c #3B3738",
"v  c #373D3B",
"b  c #3B3B3C",
"n  c #4D0B17",
"m  c #5A0313",
"M  c #60081E",
"N  c #552C34",
"B  c #5D2830",
"V  c #483235",
"C  c #433D3F",
"Z  c #732C3C",
"A  c #3E3F43",
"S  c #3E4245",
"D  c #434343",
"F  c #4B4746",
"G  c #454749",
"H  c #464B4B",
"J  c #4B4B4B",
"K  c #53484E",
"L  c #4E504F",
"P  c #51504E",
"I  c #4D4E50",
"U  c #544E50",
"Y  c #475653",
"T  c #535353",
"R  c #595054",
"E  c #555658",
"W  c #535C59",
"Q  c #5C5B5C",
"!  c #61615F",
"~  c #5E5E60",
"^  c #615F62",
"/  c #5E6265",
"(  c #646464",
")  c #686264",
"_  c #63676A",
"`  c #696768",
"'  c #666C6A",
"]  c #6B6B6B",
"[  c #726B6E",
"{  c #65716D",
"}  c #6E706F",
"|  c #6C7373",
" . c #6D7977",
".. c #747474",
"X. c #7A7174",
"o. c #767779",
"O. c #7C7678",
"+. c #75797A",
"@. c #7B7B7B",
"#. c #7B817F",
"$. c #7D7E80",
"%. c #798480",
"&. c #838483",
"*. c #898385",
"=. c #818E84",
"-. c #8C8C8C",
";. c #908186",
":. c #82938D",
">. c #8E908F",
",. c #879C8D",
"<. c #8D8E90",
"1. c #8E9890",
"2. c #939393",
"3. c #9C9C9C",
"4. c #A3989C",
"5. c #9EA09F",
"6. c #A3A4A4",
"7. c #ADA1A5",
"8. c #ABA7A8",
"9. c #ABABAB",
"0. c #B3A2A8",
"q. c #AFB1AE",
"w. c #B3B2AE",
"e. c #B3B3B3",
"r. c #BCBCBC",
"t. c #C8C3C0",
"y. c #CCCECB",
"u. c #C7D0CB",
/* pixels */
"@ @ @ % @ @ @ @ @ O @ % % & & * @ O   $   O @ @ @ @ @ @ @ @ % & @ & & & & @ ; @ % ; O   # O O O @ @ @ @ @ % + & @ @ @ @ @ O % @ ",
"% % % % & % % % @ % % % & % & & X O   6   . O @ @ @ @ % @ % @ @ % % & & & & & & % @ O   6 O O O @ @ @ @ @ @ & & % @ @ @ O @ @ @ ",
"% % % % % % % % % % % % & % % % O     t       & @ @ @ @ @ @ @ @ @ % & & & & & ; & O     t O O @ @ @ % @ @ % @ @ @ & @ @ @ @ O @ ",
"% % % @ @ & % @ % % % % % % % % O     w       % @ @ @ & @ @ & & % % & & & @ & & @ O O   t     O @ & @ @ @ % @ @ @ @ @ @ O @ % O ",
"% @ % & @ % % & & & & & % @ @ @ .     < .   @ . @ @ % @ @ % # & @ & & & & & ; @ @ . O   6     O @ & & @ @ % @ @ % @ % O % O @ @ ",
"& % % & % & & % & & % % & @ @ % @     .     @ @ @ @ O @ @ & & @ & @ & & & & & & @ .     .     . @ @ % # @ @ * @ @ @ % @ @ @ % O ",
"% & % & & & & & & % % @ % % % % .             % @ O @ @ @ & @ & @ & & & & & & ; @ O           @ @ @ @ % & @ @ @ @ & @ @ @ @ @ @ ",
"% & % & % % @ % % % & % % % % %       < #     @ @ @ @ @ @ % * & @ & @ & & & & @ O     o #       @ & @ @ @ @ @ % @ @ % @ O @ % O ",
"& & % & & % % & & & & & @ @ # @   +   J d       O O @ @ % * & & @ & & % @ @ & & O     # T #     @ . @ @ & @ @ @ @ @ O % @ O @ O ",
"% & & & & % * & & & & % & & @ O       ( F     . O O @ & * & & % @ @ & & ; & & & @     d [ +     @ @ @ @ @ & @ @ @ @ @ @ @ @ @ % ",
"& & % & % & & % & & & % & & % % O     T D O     O @ O O % O * * ; % & @ & @ @ @ O O   a ` O X O @ % % % @ @ @ @ @ O @ % O @ @ @ ",
"% & & & % & & & & & & & & & & % @     I D     O X & @ & * @ & @ ; % & @ & @ & & O     z (     . & % % @ & @ @ & O @ @ O @ @ % O ",
"& & & & & & % % * & & & & % % % @     h k     O 4 e : @ & O @ * O @ & & @ . @ O @     u D     O & & & @ @ @ @ @ @ % @ O @ @ @ O ",
"& & & & & % & & * & & % % O @ @   .   < u   O . x H H G S i # * O : & r 0 r 6 < @ .   < t O   O @ @ O O @ @ % @ @ O @ @ O % @ % ",
"& % & % & & % & % & % & O     @       w S   O t F E ( | %.] T o._ / x J b u w < < X O t s     + O   O   O @ % % O % % @ @ % @ O ",
"& & & & % & & & & & % %     . $ O     # d   2 G Q ! ] ..-.@.] 6.6.-.G Q D s u 8 4 #   6 t     +         O % % % @ @ O @ @ O @ @ ",
"% % & & % % % & > % % % O       .     t P   b T ' ..@.&.5.&.} 6.6.-.J ] E b l u 6 2   k c     .         O @ % & % % @ @ & @ O @ ",
"= = + % % * & & & & % % %             5 Q 8 J Q ] O.O.} @.! ..w.8.-.b J F A z u p t # T k   X     .     * . % % @ O & # O # 4 * ",
"= = = * + % & % * % * & # O     .     < T u D T E ] @.O.$.! -.w.6.>.T @.o.! K D u 6 < ^ z   .           * @ @ & O O . @ * 6 e * ",
"% = 6 4 * + O + * @ t f x I <     o   # E 6 k 2.3.3.2.&.$.! 2.8.6.2.L ! ( ..o.....D 2 T j           6 t : *   @ O X O @ r i * @ ",
"@ * 4 6 4 +   +   * A ` -.q.] O # .   $ ( t a @.&.$.$.$.*.] 6.e.8.2.( %.*...( Q E C 6 ( g     .   < P J p 4 +     . . 4 f e O O ",
"% @ & 5 e < .       8 J %.3.5.J . 6 .   ( q a 2.8.3.2.-.*.( 3.q.8.5.( E ( } @.#.` D < ( u   2   . D ! G t .       . 4 i e & @ @ ",
"& % @ < 5 6 *       # D ] @.3.&.a X   . Q t a ] $.&.#.#.&./ 3.w.9.6.@.@.-.] ! E E z 6 ( 6   # # D ` T k <         $ t i * O & & ",
"% * @ @ < 6 < . .     a J &.2.5.-.t     ! p k 2.8.e.9.6.5.] -.2.3.2...o.5.2.-.o.` b u E 2   . D ..Q D t #         q u 4 @ % % % ",
"@ @ % % & e 6 # +     < F O.2.3.6.2.q   ] j b 6.e.9.6.3.2.C < < 2 2 < L @.&.@.*.@.D t ` 6   F &.| T k 6       . < p e * % & @ @ ",
"% @ & % % : 4 6 .     . a ] 2.5.8.e.-.t ..p u Q ( ] ] @.( #           6 T J D D J t 5 ` < P 3.&.( F a #       # t t , @ % & @ @ ",
"& & % & % @ : e <   .   < T &.3.6.e.r.J ] a u ( &.3.3.5.E   # . . o . < Q T L G b w < ( t &.6...E z 8         2 a 5 @ @ % % @ @ ",
"% & & & & @ & 5 r . .   . j ( -.6.9.e.( E a 6 &.-.9.e.9.b   5 # # $ $ . E E P G b t < ( a -.@.] J u <       # t 0 # @ & % @ @ # ",
"% * % % * % % * e 6 #     2 D @.3.9.r.( Q d < ..-.4.w.6.t   < < 5 q 5 o J Q J C k < 6 ( p *...Q b 5 .     # i p *   @ & @ O @ @ ",
"& & @ % & & & & : r <       p ~ &.9.r.( T b < ( #.>.6.2.< < 6 t 2 w 6 . z Q J A j $ u / u &.[ J a $     X 6 f , & @ @ * @ % & @ ",
"& % & % % % & & @ 4 5 #     < D ..3.e.] J D . ( @.-.3.... t a u a u p # a T F z a X t ! p o.Q C 6 o     < t e % * % @ @ @ & & @ ",
"& % & > % % & & & @ 5 2 o   . a ( &.9.( J D   T @.&.2...< p F D D b z < u T L b j . u ( 6 ' T a *       r t & * % % & @ @ @ & @ ",
"% * & % & & % * & & & , 5     2 J o.6.] C J   C X.#.:.{ v K ( } ` ) Q C c J D k u   k Q 6 Q D w       < f & X * @ @ @ @ @ @ @ @ ",
"% & % * % & % % % ; & : 5 #   o d ( -.Q b L   j ..O.;.[ a ( .... .| +.D c T D j w   h P < T j $     * t : : O @ @ @ @ & @ @ @ @ ",
"% % & % & & & & & & % & 4 < X   < J ..J b E   t ' ..&.) # @.8.7.0.4.6.H y T c s <   b J < b 5 .     t e O @ & X & & @ @ @ @ @ @ ",
"* % % * % & % & & & @ % & , $   X g ( D a P   5 T { #.W   2.y.u.t.w.q.H 0 J c s #   D D # a #     * r & & O @ @ & @ @ @ @ @ @ ; ",
"% % * % % & & & & & @ & & : : #   5 E C 3 b   # F Q [ K   } 1.1.,.=.&.k 3 A a 5 $   k a o t .     6 # % @ & O @ @ @ @ @ @ ; @ @ ",
"* % * % & & & % & & & ; & & ; * .   z d 5 J . . D R ( L X u N Z B N V 3 6 v d w o   D a . <     < , @ & & @ ; O @ @ @ @ @ @ @ @ ",
"% * % % & % & & & & & ; & & @ ; #   2 8 8 ( X . b J Q Y @ # 7 m m n 9 $ 0 h u -     Q j . O   o 5 @ * % ; O ; O ; @ X ; @ @ @ @ ",
"% % % * & & % % @ & & % & @ @ ; < . $ < 2 (     l J R K + . X X   X     6 h q <     Q a       5 , & @ % @ ; O O @ @ ; @ @ @ @ @ ",
"* % * % % % = % & @ & & & ; @ & @ :     < ` .   g G L L <               j a 5 $     E t     : e @ @ @ @ ; @ @ @ @ @ @ @ @ @ @ ; ",
"% * % % % % % % & & & & @ @ @ ; O #     # ~ .   t D J T t             . a p 3 #     P 5     e i @ @ @ @ @ @ @ @ @ @ ; X @ @ @ X ",
"% % * * & & * % & & ; & & ; @ & O # O   . T .   q c F T z             < d u 6 #     F :   : f f ; X @ ; @ @ @ @ @ @ @ ; @ ; @ @ ",
"* % % % & % & % & @ @ @ & @ @ & O @ X O   J .   6 b S G D o           t a t 2 #   . D .   O 5 * ; @ @ @ @ @ @ @ @ @ @ @ @ @ @ @ ",
"* % % % % % & & & & & & & @ ; & @ # @ O   v #   2 k b b D #           t t 5 < o     k .   O % O @ @ @ ; @ @ @ @ @ @ @ @ @ @ @ @ ",
"% % * % & & % & & & & & & & & & % @ @ .   a +   < z D c b #           t w 2 : .     a O @ * 5 ; @ @ @ @ @ @ ; X @ @ @ @ @ @ @ ; ",
"* % % = & & * % & & & & & ; & & * % & @   u .   5 k b b j 5   . #   # t 8 < < .   . u   O : , ; ; @ @ @ @ @ @ @ @ @ @ @ @ @ @ @ ",
"* % % % & % & % & @ & & @ @ & & & @ @ &   w #   2 a s z j u   < <   < t 3 < . .     u   @ , , > @ @ @ @ ; X ; @ @ @ @ ; @ @ @ @ ",
"% % % * & & % % & & & & % & % & : & ; O O 3 # . w r a j a h # J ` 2 < 2 5 < . . o   w   & % @ # @ @ @ @ @ @ @ X @ @ @ @ @ @ @ @ ",
"% % % % & % & & % & % & & & % & : & & O X < X # 8 u u f p f # < 2   2 2 2 < . o . o <   & > & @ @ @ X ; ; @ @ @ @ @ @ @ ; @ @ ; ",
"& & & % % & & & & & & & % & & & : & & & . $ # # 6 t t p u u 6 # . # 5 < < $ .   # # $ O & & & @ @ ; ; @ @ @ @ @ @ @ @ @ @ @ @ @ ",
"% % % * % * % % & % % & & & % & : & % ; . . $ O < 5 5 r 6 5 y r e 6 : : : # O @ X   < O * % @ # @ @ @ @ @ @ @ @ @ & @ @ @ X ; @ ",
"& & & & % * & & * % & % & % % % : : % & O $ 6   @ O @ @ % @ % % & * % > % @ % % . . t   ; ; @ @ @ @ @ @ @ @ @ @ @ @ @ @ ; @ @ ; ",
"& % & % % % & % % & & & % = % * : ; % & O t G O & ; > % ; > & & % % % & @ & > % . p H O % ; @ @ @ ; @ ; @ @ @ @ @ X ; @ @ @ @ @ ",
"& & & & & & & & % & % & % & % & : & % & . l / . @ & & @ @ & & * * * % & @ * @ O O A E @ @ % O @ @ @ @ X ; @ @ @ @ @ @ @ @ @ @ ; ",
"& % % & % & % & & % & & & & % & 4 ; & % O h _ O * % @ : @ & * @ @ @ @ & @ &   * O A b O & & @ : @ @ @ ; X @ @ @ @ @ @ @ @ @ @ @ ",
"& & & & % & & & & % & & % % & & @ & & @ & r I : & @ & @ ; & @ ; % % & & & & & & # p i @ @ & & & @ X @ @ @ @ ; @ @ @ @ @ ; @ ; @ ",
"% % & % & & % & & & & & & & & % & & & @ @ : h O & ; & ; & & & & & & & & & & & & O 6 5 @ @ & & & @ ; @ @ @ @ @ @ @ @ @ @ @ ; ; @ ",
"& & & & & % & % % % % % % % % & % % % O @ O 5 . & ; & & & & & & & & & & & & & @ O @ @ @ & & @ & @ @ @ @ @ @ @ @ @ ; X @ X ; @ @ ",
"% & % & & & & % % & & % % % % % @ @ % @ & O @ & & & & @ ; & @ ; & & & & & & & & @ O O @ & & & & ; @ @ @ @ ; @ @ @ @ @ @ ; @ @ ; ",
"& & & % & & % & % % % % % % % % & & ; O & @   @ & @ & & & ; @ & @ ; & & & ; @ @ @ X @ ; & & ; @ @ @ @ @ @ @ @ X @ @ @ @ @ @ ; @ ",
"& % & & & & & & & % * % & & & & & & ; O & & O @ & ; ; & & & & & @ & & & & & & @ & @ & & @ & @ @ @ @ @ @ @ @ @ ; @ @ @ @ @ ; @ @ ",
"& & & % & & & & & & % & & & * & & & & & & ; @ & & & @ & ; & @ ; @ & & & & & & & & & & & & & @ @ @ @ ; @ ; @ @ @ @ @ @ @ @ @ ; @ ",
"& % & & & & & & & & = & & & * & & @ ; ; % & ; & & ; & & & & & & & & & @ & & & & & & @ & & @ @ ; @ @ @ @ X ; @ @ @ @ ; X ; @ ; @ "
};
