/* XPM */
static char *ship_d1669747139[] = {
/* columns rows colors chars-per-pixel */
"64 64 134 2 ",
"   c #020203",
".  c #080704",
"X  c #020A05",
"o  c #0B0906",
"O  c #01060C",
"+  c #0B060A",
"@  c #02090E",
"#  c #0B0B0C",
"$  c #100F0E",
"%  c #11100E",
"&  c #030710",
"*  c #020A11",
"=  c #0A0E12",
"-  c #0B0F18",
";  c #071117",
":  c #0D1215",
">  c #031019",
",  c #0C1319",
"<  c #141414",
"1  c #1A1515",
"2  c #161817",
"3  c #191816",
"4  c #12161A",
"5  c #1B1719",
"6  c #15191C",
"7  c #1B1B1C",
"8  c #370812",
"9  c #2E1116",
"0  c #201F1D",
"q  c #17201F",
"w  c #1E201F",
"e  c #21211F",
"r  c #111820",
"t  c #1B1E21",
"y  c #1D2123",
"u  c #232323",
"i  c #282723",
"p  c #292927",
"a  c #242629",
"s  c #292728",
"d  c #24292C",
"f  c #2B2B2B",
"g  c #322B2D",
"h  c #2C302F",
"j  c #32302E",
"k  c #2B2E31",
"l  c #2F3336",
"z  c #333434",
"x  c #393534",
"c  c #383A37",
"v  c #303538",
"b  c #3D3739",
"n  c #363A3B",
"m  c #3C3C3C",
"M  c #4A0B16",
"N  c #5D0416",
"B  c #620A20",
"V  c #5C272F",
"C  c #562F34",
"Z  c #4A3739",
"A  c #413D3D",
"S  c #583039",
"D  c #6F283A",
"F  c #3E403F",
"G  c #42413F",
"H  c #393D40",
"J  c #413C40",
"K  c #3E4143",
"L  c #444444",
"P  c #4C4847",
"I  c #414548",
"U  c #474C4D",
"Y  c #4B4B4B",
"T  c #524C4E",
"R  c #4D514F",
"E  c #4E4F51",
"W  c #554D51",
"Q  c #584F54",
"!  c #445350",
"~  c #4E5255",
"^  c #535353",
"/  c #585451",
"(  c #595854",
")  c #545658",
"_  c #565F5C",
"`  c #5B5B5B",
"'  c #625E5B",
"]  c #5D5E61",
"[  c #635E61",
"{  c #646464",
"}  c #656668",
"|  c #6B6569",
" . c #66696A",
".. c #6B6B6B",
"X. c #73676B",
"o. c #64706C",
"O. c #696D70",
"+. c #786F72",
"@. c #6B7271",
"#. c #737473",
"$. c #727876",
"%. c #73777A",
"&. c #7C7678",
"*. c #767A78",
"=. c #7B7B7B",
"-. c #7E7F81",
";. c #857F81",
":. c #8D7E83",
">. c #7D8481",
",. c #848484",
"<. c #858688",
"1. c #8C8C8C",
"2. c #908E8F",
"3. c #819186",
"4. c #889A8C",
"5. c #859690",
"6. c #8E9890",
"7. c #949494",
"8. c #959A94",
"9. c #9B9B9B",
"0. c #A59B9C",
"q. c #9EA09F",
"w. c #9FA1A0",
"e. c #A4A4A4",
"r. c #ABABAB",
"t. c #B8A3A8",
"y. c #B4A8AC",
"u. c #ACB1AD",
"i. c #AFB0B2",
"p. c #B3B3B3",
"a. c #BBBBBB",
"s. c #C8C0BE",
"d. c #C8CAC7",
"f. c #C7D0CB",
/* pixels */
"@ @ & @ @ @ @ @ O & & & * * * * = * = = O @ * * = O O # @ * # @ & * * * * * * * * * * > @ @ * * @ @ @ @ @ @ * @ @ * @ @ @ @ @ O ",
"& & & & & * & & O & & & * * * * O 4 7 - O @ * * @ @ * * @ @ * @ * & * * * * * * * * * * @ @ * * @ @ * @ & @ @ @ @ @ @ @ @ O @ @ ",
"@ * & & & & & & & & & & * & & * @ * t y 7 * O & * * * @ @ * * @ @ & * * * * * * * * * @ * * * * @ @ @ @ @ @ * & @ @ @ @ @ @ O @ ",
"& & & * & @ * * & * * & & & & & & & = t d t = O * * * & * * @ @ * @ * * * @ > * * * * @ * * * * @ * @ @ @ * @ # @ & * @ O @ & O ",
"& & & * & & & & * * * & & @ & @ @ @ @ # 4 a a 6 @ @ * * # @ @ = @ * * * * * * * * * * @ > * * * @ * @ @ @ @ O * & @ @ @ & @ O @ ",
"* * * & * * * * & * * @ * & & @ @ @ O   o < u i t , O @ @ & * * * @ * * * * > * * * > @ @ * * * @ @ * @ @ * @ * @ @ & & @ @ O @ ",
"* * * * * * * & * & & * & * & & & @ O # # X % w d u 4 * @ * = * @ * * * @ @ @ * * * * @ @ @ * * @ = @ @ @ * @ @ @ & @ O @ & & @ ",
"& & @ & & & @ & * & & * & & & & * @ X           % i k t = @ * * * @ * * * @ > * * * * * * * * @ @ @ @ @ @ @ @ @ @ @ @ @ @ O @ @ ",
"* * * * * & * * * * * * & & * * * @ O @         o o 4 f d , * * * @ @ * * * * * * * * * @ * * * & # @ @ @ @ @ & @ @ @ @ @ @ O & ",
"& & * & * * * * * * * * * * * * * * @ X             . # t k y # O @ * @ * * * * * * * * @ @ * * * @ @ * @ @ * @ @ @ & O O @ @ @ ",
"* * * * * * & * * * * * * * * * @ O O = 6 .             = 7 i a ; = @ * * & * * * * * * * > * * & @ & @ @ * @ @ @ @ @ @ @ O @ O ",
"& * * * & * * * * * * * & & & & O @ # # f 7 3 o o         . $ 0 d , @ @ * * * @ * * * * * * * * * @ @ @ @ @ @ * @ O O @ @ @ @ & ",
"* * * & & * * * * * * * & O O       # t Y L c u < # .         . 6 y t , * * * @ * * * * * * * @ @ @ & @ @ @ @ @ & O @ & O @ @ O ",
"* & * * * * & * * * * * * @           2 ^ ' ) L k f 7 <           : t 7 = @ @ * * * * * * * * * @ @ * @ @ * & @ @ @ @ O & @ @ & ",
"* * * & * & * & * * * * * O O           4 Y | ` ( U c i 3 =           # 4 , # O * * * * > @ * * @ @ @ @ @ @ & @ @ @ O @ & O @ @ ",
"* & * * * * & & = * * * = O O             . H #...} ( Y m f 7 :   .     . , 4 , * * * * @ @ * * @ * @ @ & @ @ & @ O @ @ @ @ @ O ",
"& O * =   O O     O   O = O O +             . L ,.<.#...` R A f t %         X 3 4 = # O * * * * = O O # + # - = * * & @ O @ @ @ ",
"O O                   O           . .   . 7 = . L 9.e.&.*...` ^ L c 0 . .       = # & & * * * # @ * * # * * O O O O O @ @ * @ @ ",
"  + # +           . X     .                       ^ ,.<.<.<.#...` Y c f u < +       O @ * # @ @ @ * * & * * * * * @ @ @ @ @ @ O ",
"+ 4 t t < .   $ ( #...{ I i f i c c m c f f 7 3 < < u f p p f 0 u < < < O . .             O O * O O O @ @ @ @ * O # @ @ O O @ @ ",
"  O             . f f j u % u 7 m Y ` ) { { ] ` #...{ { } { ] ] ^ ^ Y K u f z f y 3 < #         X   .     @ =   O O O @ & @ @ @ ",
"  O O   .                         # < < e < 7 f 3 6 < < 3 u e f x b m L c Y ( ] ) ^ P H c j k a 3 1 4 < 7 L ) H i 4 O O @ @ @ & ",
"& & & & O O         O     O O $ 3 7 i m J H c c Y i 7 u 2 # o # .                                 o X   # k H m k 6 #   O O O & ",
"* * * & O = * @ . O O # = # < < y i p #.` | ( { *.P m F m j f g a 7 7 o # . .                   . # #   O O O O o O O O O O @ * ",
"* * * * & * * > * & & & @ = 1 0 s f m #.( -.( =.<.A Y L H m m m n h g p y 7 0 = = # # # # o . O   # O   @ * * * * * @ @ @ @ @ * ",
"* * * & * * * & & & & & = 6 u i c z ^ =.{ =.{ <.-.A Y Y Y Y Y Y F L L A f i e u 3 7 7 7 < % # # .   . # = * * * * @ * @ @ & * O ",
"* & * * * & * * > * > & * 7 f g L b { #.#...+.7.-.Y ` ` ` ` ( ) ^ Q Y Y J H x z j f i 7 7 < 5 3 3 < = = X @ * * @ @ * @ @ @ # * ",
"* * * & * & * & & & & & = t m L ) L *...<.{ <.9.-.^ ` ) Y m f u b c u 7 5 t 7 t f k z z f u 7 3 1 < < = O @ * * @ @ @ @ @ * @ & ",
"* & & * * * * * * & & & & t E [ { ^ #.{ =.` =.=.P w < .   . # < c U Y R z 5 + .   o < 3 y u a p 0 3 < , = @ @ * @ @ @ @ @ @ * @ ",
"* * * * * & & * & * * * - * l H Y m ^ ) { { *.#.3   . # 4 u f m ' *.q.u.>.Z 9               o # $ < 1 , @ & * * O @ * @ @ & @ @ ",
"& & * & * & & * & & & & * 4 ] 7.1.2.7.7.8.e.e.7.<   . < 3 u i b ' @.0.p.3.C M                 + % . < 6 # & ; O * * @ @ @ @ @ @ ",
"* * * * & & & * & * > * & & [ e.e.e.e.9.e.r.r.7.< . . : < 7 a L ..$.t.s.4.V N .             # < ..5 X 6 = O * * & # * @ & @ @ * ",
"& = & & * * * & * * * @ * = %.e.e.u.r.r.y.a.p.8.6   o # 5 0 f L @.*.y.f.6.D B X             . : E $ . t = @ * @ @ @ @ * @ * * * ",
"& & * & & & * * * * * * * * ) ..#.*.1.7.e.9.7.<.<   # % 3 7 f L [ #.e.d.8.S 8 X               . = < e y @ * * @ @ @ @ @ @ * @ @ ",
"& & & & * * * * * * @ @ @ d O.=.-.{ } ] @.{ {  .m #     . < e z T { *.2...p .         O # $ 3 s f h p 6 @ * @ @ @ @ @ @ @ @ @ @ ",
"- & & * * * & * * * * * * H =.1.9.&.=.&.,.,.,.0.7.' ` m a < # # H g o O . X X o < u b L L c z z z j p 7 * @ O = * @ @ * @ @ * @ ",
"& & & & & * * * * * * * * I #.*.,.*.=.1.,.<.=.e.e.=.w.e.e.2.=.#.o.X.{ _ P U ! W Y ^ ^ Y L m m m a f d 7 @ * @ @ @ @ @ @ @ @ @ @ ",
"& & - & * * * & * * @ * = U { ..=.&.#.2.=.7.-.p.e...9.y.p.e.8.2.5.:.;.>.+.| ] Q ^ Y P m m m m z z f i 6 @ * * @ @ ; @ @ @ @ ; @ ",
"& & & & * & * * & * * ; t P ( ' &.=. .9.,.e.=.r.r.@.9.r.e.2.<.2.>.*.*.o.' T W Y Y H m m c c x p u 7 0 7 * @ O # @ @ @ @ @ @ @ @ ",
"- & & & * * & * * * * @ , b L ` { #.` 8.,.e.-.r.u.{ ,.1.2.=.=.=.+.+...^ Y G c l f i 7 7 5 < 7 < t u 7 < @ > @ @ @ @ @ X ; @ @ @ ",
"* & @ @ @ # @ X   O   @ # @ a U R ' T 7.=.7...1.e.` } ,.#.{ { ) G f i < # . .                     # #     X @ O # @ @ # @ O O * ",
"& & O O O           O     O   < F Y A c z z i c x f a 7 < < .         .     o X . O + . # # + # $ $ # # t L _  .! F 4 @ X @ @ @ ",
"O O                               u u 7 u 7 t f c f f f f c m L L Y ~ ) c Y [ [ ..{ ) L n f a e 5 1 # o < i j c q : X X @ @ * * ",
"  .     .     . j L G P c s G x R ` R { { { ` [ { #...` ` ) Y Y P L c g < w 7 7 # + X         O O   O O O @ @ X @ @ = @ > @ @ @ ",
"$ t e 0 4 . . 3 / ' ) Y z % 7 o i 3 < # #   . . o u Y { } { ..{ } ` P I m c 7 < O . X O   O O   & * * * @ @ @ @ O O O X X O @ > ",
"      O                             .           1 2.a.p.a.a.u.u.9.7.#.] ^ c 1 =     X O @ = 4 = * * @ @ * * @ @ ; = @ ; > @ @ X ",
"& O       .     @         #           . o 3 . u 8.p.p.r.r.r.9.<.#.{ Y z 7 o   X - = # @ @ ; 6 - * # * ; : = @ O X O @ O O O @ ; ",
"O & = O @ X       # @ @ # O O   .       O # f <.e.e.e.e.9.<.&.] Y z 2 o     o < +   @ @ @ ; r * : = : , = = < 4 * * > @ @ @ @ @ ",
"& * * * * & * * & & * * * * = +         . L <.w.9.q.9.7.=.] L l 1 o     # , , * ; @ * * * ; @ * @ @ @ * @ @ @ @ @ @ @ @ @ @ ; @ ",
"& & * & * & * & & & * * * & O   O     < ..9.q.2.9.7.,.{ L g < .     . < , = @ * * * * * * ; @ * @ * @ @ @ @ @ @ X @ @ ; @ @ ; @ ",
"* * * * * * * & @ & * * O O           E p.9.=.;.*...^ z <         o 4 4 = @ * * @ ; * * * ; * * * @ @ @ ; @ @ @ @ @ @ @ @ @ X @ ",
"* * & * * & * * @ & * * & O O O   * = H <.>.O.^ P f : .       o , 6 4 @ @ @ > * * * @ * * * * * * @ @ > @ @ @ @ @ @ @ @ @ @ ; @ ",
"* & * * & * * * * * * * & * @ @ ; O   l { R L u < .         # 3 6 ; * * * * * * * * @ * * * * @ * @ @ @ ; @ @ X @ @ @ @ @ @ ; @ ",
"* * * & & * & * * * * & & * & & & * * d H 7 #       . o # < 7 7 * * * * * @ * * * * @ * * * * * @ * @ @ @ @ @ @ @ X @ ; @ @ ; @ ",
"* * & * * & * * * * * & & * * * * ; & O : X           # t y 6 * * * * * @ > > @ @ @ @ @ * * * @ @ ; @ @ @ @ @ @ @ @ @ @ @ @ X @ ",
"* * * * * * * & * * & * * * * * * * * *     .   . o < t t = * * * @ * * * @ @ * * @ @ @ * * @ @ @ @ @ @ @ @ @ @ @ @ @ @ @ @ ; @ ",
"* * & & * & * & * * * * * * * & * * * O     . . $ 6 w 6 @ > > * * * * * * * * * * * * @ @ ; * * @ @ @ @ @ @ @ @ @ @ @ @ ; ; @ @ ",
"& * & & * * * * * * * * * * * * & * @ O   . # < t 7 : @ O * * * * * * * * * * * * * @ @ * * * * @ ; @ @ @ @ ; @ @ @ @ @ X @ @ ; ",
"* * * & & * & * * & & & & & & & * @ # O # % 5 7 4 ; * @ * > * * * * * * * * * * * * * * * * * * @ @ @ @ @ @ @ @ @ @ @ @ X ; ; @ ",
"* & * * & * * * & & & & * & & & & O @ = 4 t 7 4 * * @ = ; @ * * * * * * * * * * * * * * * * * * @ @ @ X ; @ @ @ @ @ @ ; @ @ ; @ ",
"* * * & * & * * & * * * & & & & @ @ O < 6 6 : @ * * > * @ @ * > * * * * * * * * * * * * * * * * ; @ @ @ @ @ @ X * X @ @ @ @ ; @ ",
"& * * * * * * & * * * & * * * * * ; , 4 , # @ @ > * * * * @ * * @ * * * * * * * * * * * * * * ; @ @ @ @ @ @ @ ; @ ; @ @ @ ; ; @ ",
"* * & * * & * & * * & * * * * * * , , ; = @ * * * @ * * > ; * @ > @ * * * @ * > @ ; * @ * * @ @ @ @ ; X ; @ @ @ @ @ @ @ @ @ @ ; ",
"& & * * * & * * ; & ; * * ; * * * ; ; = * @ * > = * ; * @ * * > @ @ * * * @ @ @ @ @ * * * * ; @ @ @ @ @ @ @ @ @ @ @ @ X ; ; @ @ "
};
