/* XPM */
static char *ship_a1669747139[] = {
/* columns rows colors chars-per-pixel */
"64 64 121 2 ",
"   c #020203",
".  c #080605",
"X  c #020902",
"o  c #080806",
"O  c #01060C",
"+  c #090608",
"@  c #02090E",
"#  c #0B0B0C",
"$  c #11100E",
"%  c #020710",
"&  c #020A11",
"*  c #090E12",
"=  c #070E18",
"-  c #080F19",
";  c #110F11",
":  c #071017",
">  c #0D1115",
",  c #0C131A",
"<  c #141414",
"1  c #181617",
"2  c #161817",
"3  c #1A1917",
"4  c #131619",
"5  c #15191C",
"6  c #1B1B1C",
"7  c #2E0F14",
"8  c #360711",
"9  c #221316",
"0  c #211D1D",
"q  c #16221E",
"w  c #21211F",
"e  c #151C22",
"r  c #1B1E21",
"t  c #1D2223",
"y  c #232324",
"u  c #292625",
"i  c #272926",
"p  c #232629",
"a  c #27292B",
"s  c #2B2B2B",
"d  c #322C2D",
"f  c #2C302F",
"g  c #31312F",
"h  c #2B2E31",
"j  c #312F30",
"k  c #2E3333",
"l  c #343434",
"z  c #343539",
"x  c #353A3B",
"c  c #3B3B3C",
"v  c #4A0B16",
"b  c #590514",
"n  c #620A20",
"m  c #59262D",
"M  c #552D36",
"N  c #483436",
"B  c #413C3D",
"V  c #593237",
"C  c #712A3C",
"Z  c #3B3F42",
"A  c #3C4043",
"S  c #434343",
"D  c #434648",
"F  c #474B4D",
"G  c #4B4B4B",
"H  c #524D4F",
"J  c #4E4F51",
"K  c #554A50",
"L  c #584F54",
"P  c #455451",
"I  c #4E5152",
"U  c #535353",
"Y  c #555658",
"T  c #5B5758",
"R  c #555E5B",
"E  c #5C5B5C",
"W  c #635D5F",
"Q  c #605E61",
"!  c #5E6263",
"~  c #636464",
"^  c #696367",
"/  c #656669",
"(  c #6B6B6B",
")  c #716569",
"_  c #62716C",
"`  c #68716E",
"'  c #716F70",
"]  c #6C7172",
"[  c #6F7978",
"{  c #757575",
"}  c #797073",
"|  c #7D7779",
" . c #777B7C",
".. c #7B7B7B",
"X. c #7C837C",
"o. c #7E7F81",
"O. c #8E7F84",
"+. c #7C8582",
"@. c #848383",
"#. c #858688",
"$. c #878988",
"%. c #8C8C8C",
"&. c #84948C",
"*. c #859A8B",
"=. c #918F90",
"-. c #8F9190",
";. c #8E9890",
":. c #949494",
">. c #939892",
",. c #9C9C9C",
"<. c #A1969A",
"1. c #A3A3A3",
"2. c #A9A5A6",
"3. c #AAAAAA",
"4. c #B4A5AA",
"5. c #B2B3AF",
"6. c #B3B3B3",
"7. c #BCBCBC",
"8. c #C6C1BE",
"9. c #C5CEC9",
"0. c #C9CBC8",
/* pixels */
"@ @ @ % @ @ % @ @ @ % % & & & & % @ @ % @ @ O % % @ @ % # % % @ % & % @ @ & & & & & % & & , : % @ @ @ @ & @ @ & @ @ % @ @ @ @ @ ",
"% % % % % @ % % @ @ % % % & & & O @ @ O O @ @ @ @ % @ @ @ & @ & @ & : & & & @ @ % @ % & , , : & @ & & @ @ @ @ @ % @ @ @ @ @ @ O ",
"@ % % % % & & % % % % % & % % & O @ % O @ % @ O & @ % @ @ @ @ @ & % @ & & & & : @ @ * 4 5 < & & @ @ @ @ @ @ @ @ @ @ # @ @ @ @ O ",
"% % % % % % @ % % % % % @ % % % @ @ @ @ @ O @ @ @ @ % @ @ @ & @ & @ @ % & & & & # , 5 6 , @ @ @ @ & @ @ & @ @ @ @ & % @ O O @ @ ",
"% % % % & @ @ % & & & & % @ @ @ % @ @ @ @ @ @ @ @ @ @ @ @ @ @ & & & @ : & & & & < 6 r 4 # @ % & % @ @ @ @ & @ * @ % % @ % @ O % ",
"& & & & & % & & & & & % % & @ @ O @ @ O @ O @ % @ @ @ @ @ % & @ @ & & & @ % : 5 6 3 < @ # & & & & @ & @ @ @ @ @ @ @ @ % @ @ @ @ ",
"% & & % & & & & % % & % % % % % @ @ @ O O % @ O O @ @ @ @ & @ * @ % & O @ > 5 t < # o     % & & @ @ & @ @ @ @ & % @ @ O @ % @ O ",
"% & @ % % % % % % & % % % % % % % O @ @ @ @ @ O @ @ @ @ @ & & & & & @ & 5 t 5 # #       O @ % = @ @ @ @ @ & @ @ % @ @ @ @ O @ @ ",
"& % & & & % % & & & & % & % & % @ O @ % @ @ @ @ & @ @ & * @ @ & & @ : t t 1 #           @ & % & & & @ @ & @ @ & @ @ O @ @ @ O @ ",
"& & & % & & & & & & & % & & & % @ @ @ O O @ @ % @ & & @ @ & : % @ 5 t 5 # .         . , @ = & % & & @ @ @ @ @ & @ @ @ @ O @ O @ ",
"& & & & & & % & & & % & & & & % O % @ @ % @ O O @ @ @ & @ @ @ # 5 6 3 #         o $ 6 x r & = & @ & @ @ @ @ @ @ @ @ @ O @ O % @ ",
"% & & & & % & & & & & & & % & & @ @ O @ @ @ @ @ @ @ @ & # @ , 4 3 #         o 1 i B U / l O O & @ # @ @ & & @ @ @ @ @ @ @ @ @ @ ",
"& & & % & % & % & & & & % % & % @ O @ % @ @ @ O @ & @   # 4 5 < #       # < s D G ( +.#.c : &     O @ @ & & & @ O @ % O O @ @ O ",
"& & & & & & & & & & % % & & & & @ O @ O @ @ @ @ @ @ @ * , 4 #       . 3 l G ( ..$...,.3.D     .     O @ & & & @ @ @ @ @ % @ @ % ",
"& % & % & % & & & & & & & % % % @ @ O @ O @ @ @ & O & 4 < .   X + 1 u S ~ $.:.>.%.,.1.( 1           O @ % % @ @ @ O O @ % O @ @ ",
"& & & & & % & % & & & % & & & & O @ @ @ @ @ @ @ & = , #     + < s S ~  .%.,.<.,.1.$.D o         # # @ @ % % @ @ @ % @ @ @ @ @ O ",
"% & % % & & & & 4 > * ; - * & * = % % @ O O O # 1 #     + < g G ~ { @.,.3.,.2.2.%.u * .   .         O @ O # .     O . @ @ @ O O ",
"= & O @ % @ O @ = = = = * * = & % % % * @ # @ #     + 6 g G ~ | $.,.3.3.3.6.7.:.y # 3 . .       .   #                         # ",
"@ % & = = % = = & = = & & & % % @ @ @ @ @ O     $ 1 l T Q { -.,.3.6.7.7.5.7.%.1           o                               .     ",
"& & % % O O O @ % % % % & & & % & # . O       . < q l B S D E ( ~ ( / ~ ~ G y o     . # # < 6 y # 0 < h I T ~ J 1 o o 3 6 y 6 # ",
"% @ % & * & @ @ % * % O O . O .           + * < 6 q 0 ; s l S D G D T E E ( ' ~ Q E ~ ~ ~ U E G l S s z D S D d .           .   ",
"% % = O O O ; t z z u ; . # < 3 y y s x D U E ^ ~ E G c U U G G D c l g d s u x s y 0 q 6 y y             .         X       . O ",
"% % % O O , z I / E S y # + # # # + + + + . + #   #     . .   .   . $ 3 q u s l l u l l l B G S 1 . O                 # O O O O ",
"% @ % % * + @ * % + O     # # .                   .   < < y s A U ~ ( ` o.^ ~ 1.-.' :.{ :.I W U G y O # &   O   O @ @ O O O O @ ",
"% & % & & & & & & & : @ > q w 6 1 3 1 3 w 0 w s l c S G U ( { } ......%.%.$.~ 5.2...3.@.,.E ( ~ E D x > @ @ @ @ @ @ @ @ @ @ @ @ ",
"% % & & % & % & & % % @ t y 0 y i l x z c c c G I J H W ` | | X.%.%.-.1.3.,.] 2.2.@.1.+.,.( ..{ Q Y F e * @ @ @ @ @ & @ & @ @ & ",
"& & % & & & & & @ & & @ 6 y u z g Z B c B D G J L E W ' +.@.O.&.=.>.2.6.3.,.( 1.6.@.:.{ :.] | ..( ^ F , O O @ @ @ % @ @ & @ @ @ ",
"% % & & & % & % & % % @ r u s a x B B B D U U G K P G G R Q ) _ { | %.1.3.,...1.1.| $.@.%...{ $.} ] S * & % = @ @ @ @ % @ @ % @ ",
"& & % & & % & & & @ % & t i j z l l c B S x y < + X X . . . s S # # 1 i c T E :.,.@.$.@.{ ..{ ,.%.o.Z % % @ & @ @ & @ @ # % @ @ ",
"% & & & & & & % @ % , @ 5 i s s i 3 < # o       o o i ( -. .~ H l t < .   . # Z ( ~ ~ ( Q ( Q @. .( p O O O @ @ @ @ @ & % % @ & ",
"& & & & & & & & @ & & @ y w $ ; o               X 8 M >.0.2.] ~ S i 6 3 < #   < $.:.,.,.>.-.{ { ( U * @ * * @ @ @ & @ @ @ @ @ @ ",
"& % & % % & % & & @ % & t X # U < .             X n C ;.9.4.{ ] D s 6 1 # +   3 :.6.7.6.3.2.5.2.1.{ > @ O @ @ * @ @ @ & @ @ & @ ",
"% % % * % & & & & & @ : 6 . 1 ( < #             . b m *.8.4.{ ( S u 6 1 < .   5 >.3.2.1.,.3.2.1.1.! O O % & & @ @ @ @ @ @ & & & ",
"% * % % & & % & O : & & 5 ; X $ o                 v V &.5.,.] ~ c y t 3 < .   1 ,.2.1.,.:.%.%.%.-.! 4 @ @ @ % & @ & @ @ @ @ @ & ",
"% * * % & & & % @ & & & = 3 1 > # #               7 N X.5.1...E c i y 1 $     1 { { ~ ~ U U S G S k @ * & : @ X @ @ @ @ @ @ @ @ ",
"% % % % & % & & # O % & , 1 3 6 y y w y 6 < # .   # 3 l G G S B 1 # .   o < 6 G ..| E ..! { I ~ ~ G q @ X @ @ @ @ : @ @ * @ & @ ",
"* % * % & & & & & & & & = < < 1 3 6 y s j l l s 6 q t 3 q w l c y s c G U E U X.,.$.~ @./ | B T S x r & @ & @ @ & * @ @ @ @ @ * ",
"% * * % & & % & @ & & @ # * $ 1 3 3 4 3 w y s s l l x B G J T H U U T T T Y G @.:.{ ( ' { ( x D d s 6 @ O @ @ @ @ X : @ @ @ @ @ ",
"% * % % & % & % @ @ : : @ .   . # # ; 1 3 6 3 3 q u f f c B B S G G G H U G c @.$.~ X.~ { J l l u w 3 # @ @ X @ * @ @ @ @ @ @ @ ",
"% % % * & & & % @ @ & %   # # .   . . . # # $ $ $ 9 w q s d f x c x x S D G B $.{ T X.E { B s u w 3 ; O @ * O @ @ @ * @ @ @ * @ ",
"* % % % + O O + @ @     @ # # .                   o   # # 6 6 i g s g x S x D | ( T ( E ' i i 6 4 , @ @ @ O @   X : . @ % & @ & ",
"% % % O O * e h x A h *   . o +                                 $ # $ < y 6 u D l l B B c y y < * . .           X X O @ @ & * @ ",
"% % * % O + 4 p S I S y ; 4 3 3 p s l c c D H U ~ Y G l D c x l u 6 w 3 < < 3 y s q < i < 1 #       .                       X O ",
"* % % * % % + % O * @ O       O       O # < 6 y u l l y B G U T ~ ~ ( / ~ ~ / ( T ! ~ ~ U T J x 0 y $ w l s s o X         X     ",
"* % % % & & % % % @ O % : & @ & @ O O               . # 3 $ < y 6 i y i l y 3 3 3 6 y s x c l c u d y D ~ ( } T $   o 4 6 6 5 # ",
"% * % % & & & * & : & & & & & % # @ @ @ @ O       # < 6 s c D E ( ..$.$.@.@.H                       .         +         # O @   ",
"% * * & % % % % O & & @ & & @ % @ @ : & % # & #       + + w l S U Y ( { ..1.,.D   < 6 .   . .             O       . O     X X @ ",
"* % % % % & & & > > @ @ & : @ > & & & & % @ * 1 3           < 0 u S G W / { $.@.B #             O @   # @   O     O .   @ @ O O ",
"% % % & % & & & & % & & % & % & @ & & & & @ & & , 4 > o     .   < 6 s c G E ^ ` { c .               @ & @ @ @ O @ @ @ @ @ & & @ ",
"% % & & & & & % & & & % & & % & @ : & & & & & @ O * 4 4 #           * 0 s l S Y E / G 3     .     X @ & : & @ @ @ @ @ @ @ & @ & ",
"& & % & & % & & & & & & % & & & @ & & & & & & @ & @ @ > 5 r * X         $ w u l D T Q U 3         O O % & @ @ X @ @ @ @ @ @ * @ ",
"% & % & & & % & % & % & & & % & & & & & & & : @ & : & @ , t t 5 +       X   # 1 y l S G r #         @ @ & @ @ @ @ @ @ @ * @ @ * ",
"& & & & & % & % & % % & & & & & & @ : & & & & & : & & & @ & 5 p 3 ;     X     . # 3 y u > @ # O @ O @ @ @ @ @ @ @ @ * @ @ @ * @ ",
"% & % & & & & % & & & & & % & % & & @ @ & & & @ & & & % @ & & > y y 6 $   .         O 6 > @ O @ & @ @ @ @ @ @ @ @ @ @ @ @ @ @ * ",
"& & & & & & % & & % % & & & & % & & & & : @ & & % : : & @ @ & O & t h 6 #                 & : % : @ @ @ @ @ @ @ @ @ @ @ @ @ * @ ",
"& % & % % & & & & & & & % % % = & & & & @ @ & & : @ @ & : & & : & @ , p u 1 # .         @ @ % & & : @ @ @ : @ @ @ @ @ * @ @ @ * ",
"& & & & % & & & & % & % & % & & & @ & & & & & & & @ & @ & & : & & & & & t f i < o       O @ & : @ * @ @ @ @ @ @ @ @ @ @ * * * @ ",
"& % & % & & & % & & & & & & % & & & & & & & & & & : & : : & & & % = & @ & 5 p a 6 # . . @ @ @ & @ @ @ @ @ * @ @ @ @ & @ @ * * * ",
"% & & & & % & & % & % % % % % % & & & @ @ & @ & : @ & & @ & @ & & & & & @ % , t y y 1 # O % & % @ @ @ * * X @ * @ * X @ @ * @ * ",
"% & % & & & & & % % % % % % % % @ & @ & & @ & @ & & & @ : & : & : % @ & & % @ % 5 y y 5 + . & % * @ @ @ * * @ @ @ @ * * * @ * * ",
"& % & & & & & & % % % % % % % % & @ & @ & @ & @ & & & & @ & & & & & : & & % & & @ > t i t : X @ @ @ @ * * @ @ * @ @ @ @ @ * * @ ",
"& & & % % % & % & & & & % & & & & & & & & & & @ : & @ : : & : @ @ & & @ % & = & % @ @ t t t : @ @ @ @ @ @ @ @ @ @ @ @ * @ * * * ",
"% & & & & = & & & & & = = & & & & & & @ & & @ & & & & & & & & & & & & & & & % @ & & @ @ , t q @ @ @ @ @ * @ @ * @ @ @ @ * @ & * ",
"& & & % & & & & & & & & & & & & & : & : & : : & : & @ : @ : & & : & & & & @ @ & & & & & & & : : @ @ : @ @ @ @ @ @ @ @ @ @ * * @ "
};
