/* XPM */
static char *_95007bc170d4bc09be41c3fa73c69d36V8Wr1Z8RpCLmxOd[] = {
/* columns rows colors chars-per-pixel */
"70 70 256 2 ",
"   c #18141B",
".  c #100C19",
"X  c #25121B",
"o  c #0B0B28",
"O  c #140C2C",
"+  c #1B0D2B",
"@  c #160927",
"#  c #0B1828",
"$  c #1B1424",
"%  c #14142C",
"&  c #1B142C",
"*  c #141B2C",
"=  c #1B1B2C",
"-  c #181825",
";  c #0B0C37",
":  c #140C33",
">  c #1B0D33",
",  c #150D3B",
"<  c #1C0D3B",
"1  c #160538",
"2  c #0B1837",
"3  c #141433",
"4  c #1B1434",
"5  c #151B33",
"6  c #1C1A34",
"7  c #15143B",
"8  c #1C143B",
"9  c #141B3C",
"0  c #1C1A3B",
"q  c #240A2B",
"w  c #22142D",
"e  c #231B2D",
"r  c #271728",
"t  c #220C34",
"y  c #260B39",
"u  c #221434",
"i  c #2B1434",
"p  c #221B34",
"a  c #22143B",
"s  c #2A123B",
"d  c #231B3B",
"f  c #2A1B3C",
"g  c #2B1B34",
"h  c #321937",
"j  c #34122E",
"k  c #182229",
"l  c #192438",
"z  c #092733",
"x  c #25223C",
"c  c #282537",
"v  c #2F2D31",
"b  c #1D261D",
"n  c #4D3137",
"m  c #59292B",
"M  c #6D4C38",
"N  c #595334",
"B  c #190D46",
"V  c #0C1744",
"C  c #141444",
"Z  c #1D1443",
"A  c #1C1B43",
"S  c #1C144A",
"D  c #1B1B4C",
"F  c #141A48",
"G  c #1B1A56",
"H  c #120E51",
"J  c #260C46",
"K  c #221543",
"L  c #2A1443",
"P  c #231B44",
"I  c #2A1C43",
"U  c #23154B",
"Y  c #2B144B",
"T  c #241B4B",
"R  c #2B1B4C",
"E  c #341746",
"W  c #270C56",
"Q  c #241554",
"!  c #241A53",
"~  c #2B1C53",
"^  c #241C5B",
"/  c #2B1C5C",
"(  c #271459",
")  c #351958",
"_  c #340B4F",
"`  c #192548",
"'  c #1A2756",
"]  c #0E3250",
"[  c #252344",
"{  c #292244",
"}  c #2B234B",
"|  c #262748",
" . c #342749",
".. c #333944",
"X. c #2C2353",
"o. c #272558",
"O. c #352758",
"+. c #293559",
"@. c #383657",
"#. c #243446",
"$. c #1A1861",
"%. c #2B1C64",
"&. c #281A67",
"*. c #341868",
"=. c #341B77",
"-. c #192967",
";. c #183768",
":. c #173778",
">. c #0E3773",
",. c #282566",
"<. c #372665",
"1. c #282773",
"2. c #263A75",
"3. c #31336E",
"4. c #411B5A",
"5. c #4B2D4E",
"6. c #463370",
"7. c #5B2B5F",
"8. c #194657",
"9. c #3B4855",
"0. c #34434C",
"q. c #1A4679",
"w. c #104B71",
"e. c #274D71",
"r. c #0B6A6D",
"t. c #474B59",
"y. c #46525D",
"u. c #514E55",
"i. c #704F47",
"p. c #4D635C",
"a. c #4B5865",
"s. c #535C6A",
"d. c #4D4B75",
"f. c #596469",
"g. c #586475",
"h. c #536A70",
"j. c #676C78",
"k. c #6D7272",
"l. c #6A6B59",
"z. c #36423E",
"x. c #965134",
"c. c #A96532",
"v. c #C87134",
"b. c #D06D1A",
"n. c #A66845",
"m. c #853C47",
"M. c #79832C",
"N. c #748278",
"B. c #988C2F",
"V. c #E4A037",
"C. c #E5A346",
"Z. c #BF8651",
"A. c #11348D",
"S. c #2F3089",
"D. c #533D8E",
"F. c #19468B",
"G. c #194A97",
"H. c #115192",
"J. c #2C4F8B",
"K. c #136B92",
"L. c #2E688E",
"P. c #0359B7",
"I. c #1256A9",
"U. c #1769B5",
"Y. c #0F6CB1",
"T. c #2C70AE",
"R. c #2153A2",
"E. c #554A8C",
"W. c #4F7891",
"Q. c #697686",
"!. c #747C87",
"~. c #6C758F",
"^. c #6162A6",
"/. c #075AC5",
"(. c #095AD3",
"). c #0569C9",
"_. c #0976CA",
"`. c #1676C8",
"'. c #0568D5",
"]. c #1879D5",
"[. c #0D70D4",
"{. c #0676E5",
"}. c #0579F8",
"|. c #0A6FE9",
" X c #2478CC",
".X c #1889A4",
"XX c #7A8589",
"oX c #768796",
"OX c #708994",
"+X c #7390AD",
"@X c #558CA9",
"#X c #1887DB",
"$X c #0F8ED4",
"%X c #278BCF",
"&X c #0588EA",
"*X c #1789E6",
"=X c #1697E8",
"-X c #0785FC",
";X c #0899FB",
":X c #1797FB",
">X c #0E90F3",
",X c #2893EF",
"<X c #18A5EA",
"1X c #0BA4FB",
"2X c #19A8F6",
"3X c #1AB8FB",
"4X c #0DB3F7",
"5X c #27A8FE",
"6X c #26B7FF",
"7X c #33ADF1",
"8X c #19AED5",
"9X c #498DC7",
"0X c #74B3CE",
"qX c #4DB4F0",
"wX c #67AEE6",
"eX c #0CCAFB",
"rX c #30C6FB",
"tX c #49C9F3",
"yX c #848994",
"uX c #888E91",
"iX c #8697A8",
"pX c #979CA7",
"aX c #8E99B0",
"sX c #9AA4AB",
"dX c #8DA5B5",
"fX c #9AAAB6",
"gX c #92ACB1",
"hX c #A3ABB6",
"jX c #A7B4BC",
"kX c #ABB1B4",
"lX c #A4A59A",
"zX c #AFC2BC",
"xX c #8FB0CB",
"cX c #ACBCCA",
"vX c #A7B7C4",
"bX c #B3BCC6",
"nX c #B0B6CD",
"mX c #90AED9",
"MX c #C5B9D5",
"NX c #BCC4CB",
"BX c #B9C6D3",
"VX c #B2CAD0",
"CX c #AFD0ED",
"ZX c #B8EFFA",
"AX c #92D0F0",
"SX c #C8CAD4",
"DX c #C8D2D8",
"FX c #CACED2",
"GX c #CED9E9",
"HX c #D9E3EB",
"JX c #DBE6F6",
"KX c #CFEEFA",
"LX c #E9F2FB",
"PX c #E7ECF3",
"IX c #CFE3D3",
"UX c #C0BFBA",
/* pixels */
"/ c a 0 , a a % & a = 4 T U 8 0 9 u l w 4 ! R k 8 K p 7 $ Z + 5 y 9 P Z g $ q 6 f # S o.a < U a a 4 & P 7 p 8 A ! d u 8 & 6 3 w ,.E q & * s ",
" .8 : r K U K ~ T 4 K } & = u 8 s 8 4 d u E } @ 6 % K 8 o.0 I < I 6 & a < 9 C U > # s 5.O 9 g # Z P o.8 0 I d a 4 < 4 [ : 7 } 6 8 #.5 7 F C ",
"o d O.e 6 = = ( ! w 4 X.4 d 6 4 r K Y % P 3 &  .p & 0 & R s K a R A L U ; z ` C r d 9 * i X.+ Y r a Q L & d x T x 8 5 4 G X.o V l %  .K C a ",
"e.% U 4 8 3 0 s < & e S &.T = 8 z *.G & ` .X@ [ R 4 9 P i s 8 & % p y 2 r q q e 3.J .Xl 4 L g 2 6 U h s 4 5 ! ( 8 % 5 S %.4 # E.e.o E s 7 r ",
"& 0 *._ P 9 @ C d d K ^ &.a & S ) *.U * f 3 y &.R S ; y V , 5 P ! w u z j K.U.w ^.6.@ E *.$.u 4 u B 5 o d D &.~ U e % 1.*.i 6 V I a ^ U 8   ",
"- ` =.( : x.c., E.X.< X.Z 6 8 A &.y = 8 U * h &.I V i.v.[ 6.6.3 *.D Q X.y $X$X@ x e % @ G 1.A y v.n ,.d.d &.! u < d S ! + u I % t d -.! > x.",
"! 9 > p 7 x.c.9 E.O.4 P 4 d 8 4 K f % U Q E & 8 P C n b.i 6.6.e 8 X.T [ r ` D d p 8 *.a > Y 8 m b.m O.E.t T 0 u u < R } 6 8 :  .Y + | 0 t x.",
"s d 8 b 3 0 a B u Y a 4 Z 8 4 0 9 u 6 q l } 7 p y 4 l h C d F J 3 a 5 $ C < 9 / =.2 [ L p # q V T 7 3 Y L # 2 s = 0 4 3 7 p $ Y ' - 4 i H - ",
"K u 5 U d OX .Q ~ d W k E O s ` ! 6 & 7 u w 4 d a I l V s / U + 6 U p Z k 0 A / S = Z d = U A A 4 U ^ / u U ` t Z 4 Q 8 K $ , = 8 6 6 a d 7 ",
") < > @.6.# 0XnXo., J c l | U - S } [ P Z / R o K E.. [ =.&.x U &.0 < B B.c : K p 3 D W # w E.f / ! ) ^ 8 U X.f d = 8 d X.{ U 4 ~ B , @.6.Z ",
"l 6 7 t d P &.qX9XkXd * ! ^ h o X 0 ~ d 4 4 % { R % j Q 1.! r V <.G * S O o.0 6 y y K I d Z Z $ u ,.=.& a # =  .{ O b u a ,.4 6 4 [ 4 p & 4 ",
"q p 0 7 ` U G 8.{.tXz f.4 6 7 *.f , R d , 0 6 7 C 7 D =.D } o 5.V.i.: X Y S x t [ K.q * * w K 9 =.F D P / 8 A % 0 P S f Z - 4 8 a 4 4 > 7 ~ ",
"S # & 9 , E ' R.P.>X7XqXa.o g ` < Q > e $ 4 p Z 8 I l s q.T = p v.7.=.c + & C J A w._ = % > f F q q.q.j D K D K 3 K G ; U I a 7 K @ d d K U ",
",.y 5.E 8 5 H.eXG.).=X+X7XqXgX3 M.v 8 > R ( U } o.q X ' eXK.T D.q A l X.O.- k % 4.X U U  .<.& p y $X8Xq : M N # d L b B.B . X G o.Z @.d O 8 ",
"S.,.F 3 a 9 w.K.;.] +X6XF.&XtX] 9.C 3 * 8 &.=.e 8 a 4 d J.,.~ 6 c 6 4 > + / 8 a 7 c o.=.V g 8 u w q.w.E 9 a 4 U % p d p K 8 P T *.G S Z K 0 ",
"' ,.' z 4 L F ' F 3.>.;.] _.;XqXiXcX` A 0 G ^ p * a Z * C & > d 3 a & p 8 9 4 K ^ 6 + %.T w 4 K 5 y 3 1 * K 6 w 0 8 7 Z K 4 3 % Q X.3 4 p 0 ",
"+.' ' -.` l | A ;.2.] P.[.9X*X;XU.U.] +X#.u.A D 0 a & 8 8 { K I R p / 8 p 4 4 *.Y 0 z.k u W 3 i a w c [ a a 4 D L 9 5 E B g 7 5. .V # w f % ",
"uX+.o.F ` -.-.:.S.-.2.;.'.7X.Xe.1XxX}.5XAXlX@.% 4 4 P K Z } } I I U &.Z 4 8 & I K.N V.c.8 L = V 2 d E ~ 9 7 ) ) w g 8 u ,.G o V.V.& | y 7 C ",
"W.;.;.2.+.J.-.1.X.-.:.R.[.8X&X[.L.7X@X1X1XT.xX& d & 6.! X.Q % 4 u P Q A P O.4 & 8.) Z.v V i + 3.5.H ( S T c o.^ H B ' ` %.&.; n.c., B L } d.",
"G.F.q.A.-.2.+.1.` ;.>.>.I.{.>XJ.P.].T.-X4X7XH.:.3 I X.S T S { 4 8 6 & 3 8 | 4 U @ B r P [ 1 l g A X.^ F 3 ` F E x.5.w j $.m.m # 8 ,.3 a i | ",
"I.R.F.G.q.:.;.>.o.F e.8.3.e.}.1XqX,X3XwX&X4XrXcX` 8 O I 3 4 < 8 8 = = p 8 4 , { { = a D % X.3 A A w K l wXqX3.o.Z.i.l ^ < v.n.5 2 0 l 8 r = ",
"`.`.P.I.H.G.A.q.A.+.H -.A.2.@X}.$XP.>XrX%X0X>X=X#.C p @ p p 8 d > K P d d [ K - t K ' F ` ` F G 2 Y 2.rX6X,X5X=X`.q.-.-.:.) O.` g K - 6 a Z ",
"`._.#XY.U.I.F.F.I.H.>.' :.F.w.P.e.;.[.;XT.5XK.*XdXF P d > 4 3 4 a ( Z 8 O P R & [ F ' ` ' ' ] ` ] tXqX:X;X].).'.KX6XrXL.H.>.-.;.-.1.% ` 8 S ",
"U.U.U.].].`.U.U.F.F.J.F.A.2.w.2.).T.0X&X5XmX&X>XOXaXA P 7 P p 4 R ( d @.< & Q &.D [ ` ' ' ' 3.:.tXJ.G._.'.I.+Xw.6X5X:X5X2Xw.J.H.w.' ` G s t ",
"#X_.#X].`.`.#X#X`.`.I.R.R.G.A.>.l -X_.;.$X;XK.&X>X9.K l 3 / I F S.J 4.^.I NX!.#.z S.F.| >.q.tX5X&X{.7X0X] xXrX:X;X>X;X{.&XxXU.w.R.H.-.+.R 5 ",
"OXT.*X=X$X%XY.>X=X*X].].U.I.R.F.A.R.>XY.w.] ;.{.:X1XCXH = g 8.<.,.4 { O.5.v ..BXo.-.E.N.' 7X>X&X{.Y.P.HX7XCX,X}.-X}.{.` KX1X6X3X4XH.q.,.` K ",
"iX@XI.#X#X=X=X=X=X=X,X=X$X$X`.U.Y.:.).}.^.}.AXAX|.;X<X@.#.< e.a.iXuXf.c c r GXyX-.] d.BX#X}.'.P.P.L.w.5X<X].].KX/.P.ZX=X3X1X;X;X2X5X>XA.4 > ",
"L.H.R.H.].=X=X=X<X2X2X2X=X=X=X#X].$XY.).&XxX&X[.e.$X5XOXVXl c GXhXk.k.f.f.k.JXiXe.%X6X/.KXw.P.w.dX7X&X>X-X{.(.*XCXJ.:X=X;X;X;X1X;X:X%X@Xb B ",
"G.A.R.I.%X%X#X=X2X3X2X2X5X2X5X<X<X=X#Xk.h.P.w.-XH.9XH.,XGXl.HXJXLXv v hXhX9.cXQ.7X7X|.*X/.] KX#X{.:X{.&X|.{.V xX*X,XA.mX}.;X;X].}.@Xz D l.v ",
"` S.F.K.Y.K.%X*X<X2X3X3X3X3X3XeX3X4Xl.5.~.oXl '.6XAX].CXK.a.cXHX9.JXLXf.g.yXCXOXiX+.P.G.AXH.*XKXA.'.'.'.[.ZX<X2X&X}.}.|.K.>.|.9XW.F.` o.c Z ",
"Z : ' q.J.U.Y.`.$X<X3X3X3X3X3X3XrXeXk.k.hXQ.~.+X(.-XT.&X+XSX9.jXp.JXHXHXLXLXf.OXOX0X+.0X:X8X7X/.e.CX(.AXT.<X}.}.}.-X'.(.].L.W.F.:.-.* & f a ",
"9 } T ! -.G.I.`.].*X=X4X3XeXrXeXeXK.j.XXyXgXN.oX+XV H.$X,X5X5.p.sXbXk.PXJXPXPXLXLXLXe.,X).|.(.'.%Xe.T.Y.}.-X}.{.{.'.).# j.' ] ' T ~ ! d 4 d ",
") G T  .V .X$XF.U.].$X5X<X6X6XeXeX!.l.Q.pXdXpXFXaXiXpXxX].,Xe.j.PXiXt.NXGXLXHXJXJXKX).(././.'./.CX7X{.9XCX{.'.(._.(.+X2 l < 9 = U ' U h ` U.",
"R F 0 q 1 .XK.G ^.G.`.%X=X4X4X3X7XoXsXnXs.jXbXNXFXl.sXhX-.[.5XDXFXpXv f.hXsXvXfXgXxXH.P.P.P.KX%X<X,X_. XI.ZXP.(.9X] q.l.S l u W ) Z U L 2 K.",
"Z 6 & d s o 3 E 6.;.w.L.Y.=X1X6X. uXgXcXFXN.sXjXVXSXj.FXlXzX%X|.f.uXuXkXjXjXfXXXh.nXH.P.+XL.%X_.&X'._.P.].(.L.] A.3.,.n K : e 8 A = K K $ p ",
"S e & 7 f P 9 q 0 A A ;.:.R.%X=Xk.kXXXnXNXFXsXt.bXcXuXBXDXFXSXT.kXf.- 0.k.oXyXuX~.H >.8.).P.[.).P.P./.(.:.W.+.-.] D . o 0 8 c 9 8 q a P d u ",
"s > 0 8 y o.C u C > 4 SXz.a.q.`.oXh.FX5.uXkXNXDXXXkXyXDXSXFXHXPXyX!...y.s.g.j.g.9.t.XXLXLXLXVXP.P.Y./.dXF ' | ` 4 }  .v L & T ( f 6 - - t ~ ",
" .E.A 0 &.) t A w r - 4 d JXBXv Q.c kXNXDXXXfXNXVXkXu.BXSXSXHXIXPXPXy.v ..y.j.s.DXW.xXdXgXxX9.GXP.J.v A l 5 H &.K @.o.c.n.l X.R <.E.l 9 &.&.",
"O.d.4 R 3.V 5 A Y a [ / *.Q nXPXz oXk.kXNXGXu.pXkXhXPXuXzXDXFXFXHXPXPXhXjXt.!.LXOXOX+XxXfXz.mXcXlXV a y } ' / 6.y J , c.n.$.=.| Y E.q Y 4.R ",
"W * 5 _ Z u 8 u * d T D i 5.m pXPXu.oXa.sXjXSXuXXXfXhXlXNXNXSXFXIXPXlXkXLX0.fXg.~.OXaXdXh.cXbXhXVXsXa A 3 d x W M h %.w s / ( , ` O a &.C * ",
"` > p 8 8 e i A P 4 X 4 W c.v.Q k.HXjXXX0.uXbXvXSXXXlXsXSXkXSXFXIXLXkXPXy.XXh.g.~.+XdXfXfXvXcXvXnXl.G 9 a 5 a h V.i.&.; D [ & Q 7 p @ U 0 C ",
"< q 0 C 0 8 K & K - ! U 6 n 7.W c . kXHXoXfXQ.jXsXSXu.sXNXSXNXNXFXu.HXHXGXa.s.Q.OX+XiXOXvXfXcXcXVXcXw X < Z  .7 m j _ E u . 7.. 4 K Z 8 x : ",
"6 p p 0 E + 2 K f 3.+ U l o 0 r.. u a hXHXQ.iXuXkXfXkXsXkXjXFXNXHXj.HXPXy.y.g.Q.~.oXoXfXfXcXxXnXvXVXf 5.#.4 s 8 W 8.e.@ Q 2 ` 3.$ e   c a R ",
"` C a a E O.] j v 6.O ) [   o.e.c I a - pXGXk N.jXhXhXSXNXNXSXNXkXsXsXt.a.g.g.Q.oXoX#.vXfXfXcXvXvXnXs. .+.+ L d X F.] h <.# } <.5.E o.[ ! > ",
"w d : 9   [ 2 V.Z.y U D.6.4 U + K x = 8 @ u.UXj.yXnXjXhXjXNXbXGXn.xXHXa.a.s.g.~.oXyX..jXgXjXvXVXcXvXu.M H O.^.<.a y . 9 f 4 : m C.i.} = = 0 ",
"8 d ! S + ` B m.i.s I  .@.5 6 ~ ~ 8 2 7 a u.X nXDXiXbXbXp.bXFXDX= ~.JXt.y.g.g.OXGX9.fXsXdXhXjXvXcXVXu.n %., 6.J 9 i <.G   a F 3 x.7.B [ . Q ",
"4 & F  .5.3 , =.A.u 3 A A } ~ O %./ P & t X.~ & hXDXs.NX!.SXNXQ.XXt.v y.d.g.g.~.HXhX!.f.j.fXcXvXnXjX6.K 3 6 L w O.S S =.O.> A C %.! e 1 z.h ",
"L d 2 N n B $ 9 s K 0 - t s Z 5 &.<.U U d A A K o jXSXv kXsXSXXXk.k.y.a.a.g.Q.9.fXa.sXHXl hXjXcXBXcXU } & 9 4 7 2 r u ,./ S r a ' 8 X L l.c ",
",.^ F , Z l y T < p 8 K 0 U a 4 K Q %.D 4 & 0 4 6 > v z k.MX!.k.j.pXa.9.s.g.Q.!.Q.f.Q.vXfXjXjXvXcXg.8 8 6 8 4 a / 3 l a ) ) 8 & y e 2 = H t ",
"=.u q e 5 t a l u l @ w o.<.L ` } 6 4 8 K 6 d U y | * a d ' @.v = aX9.g.s.g.Q.OXQ.dXaXvXfXvXvXVXbXyXK 0 d & p &.*.P { < Z A 8 0 5 K E 9 4 r ",
"% g K.` i ,.F / K a 6 O Q &.` K 4 p c & 4 A T Z O.$ o.K.H 7 d p = cXa.a.a.g.Q.oX+XiXiXgXjXvXcXvXhX8 ! d o 4 4 %.o.- c B 6 5 A 8 &.G s O.u 8.",
"O.' eXK.w D a ) Y 4 o.) @ r.r.q ! ! P 6 8 / / 4 0 q K.eX] 7. .Z x bXs.a.g.s.j.| dXaXdXvXfXvXcXcXfXP %.T c R A 4 .Xz y )  .5 8 d ) ' - L 9 $X",
"D.3 :.R   > C = K 0 <.< h t q s 1.U & K Z Z 8 d 9 3 J w.$ D.D.h d j.g.a.a.s.Q.W.dXoXdXfXjXcXcXa.: e K K K } 8 6 y q ~ &.8 i Y 0 [ 1 K J 5 ] ",
", k % % l E ; = 9 & w $ 7 o.6 a Z 4 $ p 7 8 4 4 y 9 P < . ' U 4 { x g.t.h.a.g.s.+XdXdXfXvXvXnXx ! & e 4 , [   U Q & < A * 5 Z K - r f u 2 - ",
"O.s t Z y a 2 h 0 w 4 l d S % K & p 4 = p O.R % t u j Z x 2 + A + 4 Q.a.9.a.s.W.OXaXfXvXvXhX@.6 Z 4 u u P : - ~ Y p 6 8 6 9 0 < <.K o r d 8 ",
"Y * [ 6 d 3 d ( L 5 D 4.@ p u 8 8 8 8 U , 8 p d ` & - 0 7 ) u -  .d 5 ~.a.s.9.~.aXfXxXvXoX* x % & P ^ K % X.} + 4 6 = y L 4 = w a ` K 4 E 3 ",
"0 4 O.6 A s q ,.Z Z 8 p d d 8 0 q Y D 4 Y ] $ U x - K w ( D d 7 d & a MX^.h.y.~.dXvXfXsXA o.4 k u d ! 0 & T K f Q 6 - u U I 3 ' ] q 5.4 O I ",
"e.# K 6 3 6 6 4 e w K ^ &.! d & z *.o.t d .X@ I U u S k 4 t a e s 6 $ # gXKX..@X#.HXa.#.y L 8 J 8 3 u B P # ^ %.8 e % ( <.a # d.w.A 7 e l > ",
"< Y =.L , h y B K + K %.&.Z & & ) <.3 = E @ f &./ 4 < j S a ` 4 ( F u < l .XY.a E.@.. O o.<.< 5 j E u s 4 ` 1.a u O P 1.( P 6 o $ Y =.) V j ",
"& , )  .@ n.v.4 ^.6.a Z 8 & 6 A &.C p 6 4 - 6 &.*.V M V.j 6.E.> / ( [ +.& Y.K.d 8 a Z K 8 ~ / E C.M / ^.s Q ^ + f 8 Z o.7 & 4 C j % &.X.& x.",
"} V 6 6 H M m u 6.P 4 4 d 8 A Z 3 K 9 8 I O.w 9 X 9 n c.t 3.O.g 8 Z P d 4 P 6 6 R < O.7 p 8 K u x.m D 3.u 6 0 U Z R : 4 p $ 4 O.4.o V 5 1 i.",
"4 6 p . A R L & P U P d 4 < K 8 f 4 s > K s 4 u % 7 B J G d C H = A d t Z 7 8 *.*.P & U 2 9 O k B y l U I * O f 3 d 0 d + p p 1 8 = x w H s ",
"D A 4  .~ # G ) / U a 8 0 d 6 4 F a 5 6 2 I P 3 X.4.% C A ) ! p & P $ 9 u.l l $.l $ a G w 4 <.Y l D ( &.B P o.+ 4 4 f P Z 8 > c 9 a < E X.  ",
"L ^ ; 5.O.d / o.R u 4 / o.d 4 P 5 4.X.u 5 ! J p { 3.% / o.%.Y a =.H p s M l $ y Z & K R 6 7 6.x U ) *.I w B O.{ | 3 u { R X.7 4 ^ g # 3.*.P ",
"a = 3 3 r s ) %.S 8 a U & X.Z p p : O.4 & d 7 K i o a Y 1.^ K 7 7.@.5 w 1 G D t s [ s j 3 a # A Q ,.! E 7 Z 4 d ~ 7 p 8 & <.A & 0 4 p 4 4 Z ",
"* d U 2 * T &.^ l Q T 4 4 e & ! , a 3 K 8 O p & 2 c F *.A e O n C.i.> f a C [ X ` K.: { 2 s f 3 ,._ K K D K 4 a - P ( a & $ 4 K 8 4 6 4 4 P ",
"8 s U ` 9 Z 1.K.U 8 f b 8 = a K v f 4 K , P d e C f 8 _ K.+.% } x.5.O.I u [ o a l ] A 2 A a 6 I , K.q.+ 0 | c q - K K v U $ d 4 S Z d 8 8 P ",
"%.a  .0 I . K.eX1.J v M.H w 4 B M.v 7 8 8 O.S } { J w ] eXI.{ S.@ d 5 I Y 8 x 3 5.> E ) ~  .4 7 u $X8XD : N M V I B { M.$.@ u B ~ T R 0 8 8 ",
"*.~ + P 4 h A :.l a w , Z ! x   B W Z - & &.*.Z a < l e ;.*.U # l 9 9 & d K 4 8 y 2 L <.C t p A t #.] y e K H u - 4 a , & Z } = / T R a 4 8 ",
"D G T + 3 3 6 s 0 8 K p Z O 4 K c 8 , d p 4 } U * A 8 k q A u j y ( F = w a < R o.0 P H ~ a 3 8 F y 3 A 8 j $ 4 p Z T e a + : T ! D P 8 4 0 "
};
