/* XPM */
static char *wall1669747277[] = {
/* columns rows colors chars-per-pixel */
"64 64 253 2 ",
"   c #020405",
".  c #00060D",
"X  c #01090F",
"o  c #090A0C",
"O  c #070906",
"+  c #01120B",
"@  c #030612",
"#  c #020A11",
"$  c #0A0B13",
"%  c #020D1A",
"&  c #090716",
"*  c #041014",
"=  c #01121B",
"-  c #0A131B",
";  c #091217",
":  c #11171E",
">  c #141113",
",  c #020A22",
"<  c #011423",
"1  c #001925",
"2  c #0C1924",
"3  c #00152B",
"4  c #011A2C",
"5  c #0A1C2B",
"6  c #121A25",
"7  c #021C32",
"8  c #011D39",
"9  c #041634",
"0  c #09222E",
"q  c #1B242B",
"w  c #1B2428",
"e  c #032235",
"r  c #06233C",
"t  c #172F39",
"y  c #252B35",
"u  c #293339",
"i  c #2A3130",
"p  c #012544",
"a  c #022B4A",
"s  c #062746",
"d  c #022C54",
"f  c #052D57",
"g  c #03345D",
"h  c #063657",
"j  c #163756",
"k  c #133049",
"l  c #333D46",
"z  c #293A4E",
"x  c #033A64",
"c  c #033866",
"v  c #053D73",
"b  c #0F3562",
"n  c #051B44",
"m  c #17405C",
"M  c #2F474F",
"N  c #334753",
"B  c #05467A",
"V  c #0F4670",
"C  c #255578",
"Z  c #30506E",
"A  c #2A6271",
"S  c #464D59",
"D  c #4B555D",
"F  c #4C5451",
"G  c #455563",
"H  c #4A5564",
"J  c #4C5B6A",
"K  c #4D5965",
"L  c #525E6A",
"P  c #545B66",
"I  c #474E61",
"U  c #59646D",
"Y  c #49667C",
"T  c #556474",
"R  c #5C6A74",
"E  c #5B6979",
"W  c #4F757D",
"Q  c #616D7C",
"!  c #656C75",
"~  c #66737D",
"^  c #706D73",
"/  c #80786D",
"(  c #87897E",
")  c #054B88",
"_  c #05568C",
"`  c #055796",
"'  c #1A558A",
"]  c #275C91",
"[  c #1D6294",
"{  c #266499",
"}  c #356A8D",
"|  c #045BA5",
" . c #035BB7",
".. c #1056AC",
"X. c #0767AA",
"o. c #0568B8",
"O. c #0776BB",
"+. c #1372AF",
"@. c #2873AC",
"#. c #3974A9",
"$. c #2676B9",
"%. c #3678B4",
"&. c #2F69A9",
"*. c #426A89",
"=. c #5A6E85",
"-. c #51728D",
";. c #6A7684",
":. c #6C7B8C",
">. c #677686",
",. c #727C84",
"<. c #747A86",
"1. c #657B95",
"2. c #767A93",
"3. c #427CB7",
"4. c #4D73A5",
"5. c #667AAC",
"6. c #055CC9",
"7. c #0869C7",
"8. c #0C7BC5",
"9. c #087AC9",
"0. c #1879C6",
"q. c #0668D7",
"w. c #0477D7",
"e. c #1770CC",
"r. c #2979C6",
"t. c #3278CD",
"y. c #0578E7",
"u. c #0176F6",
"i. c #0060E2",
"p. c #487DC3",
"a. c #887A91",
"s. c #3B8AB8",
"d. c #308BB9",
"f. c #1A86AF",
"g. c #75838B",
"h. c #7A848A",
"j. c #7D8184",
"k. c #6D8295",
"l. c #7C8D9D",
"z. c #788795",
"x. c #778A8E",
"c. c #5684A8",
"v. c #4788B7",
"b. c #5796BC",
"n. c #4E87AF",
"m. c #7692A8",
"M. c #7592AD",
"N. c #578096",
"B. c #0C85CC",
"V. c #1A83C8",
"C. c #0A88D8",
"Z. c #1689D9",
"A. c #0B97DB",
"S. c #1694DA",
"D. c #1793CE",
"F. c #2883CA",
"G. c #3888C5",
"H. c #2B99C8",
"J. c #2686D8",
"K. c #3889D5",
"L. c #2696D6",
"P. c #3794D8",
"I. c #3594CB",
"U. c #39A3DB",
"Y. c #0587E7",
"T. c #1688E4",
"R. c #0A97E6",
"E. c #1697EB",
"W. c #0488F5",
"Q. c #0699FC",
"!. c #199AF3",
"~. c #288AE4",
"^. c #2799E7",
"/. c #2198F4",
"(. c #0CA4FE",
"). c #07A9FC",
"_. c #14ADF4",
"`. c #15A6F8",
"'. c #07B5FA",
"]. c #15B7FB",
"[. c #12ACEA",
"{. c #27A4EB",
"}. c #35A7E9",
"|. c #27ABF5",
" X c #12ACD0",
".X c #468AC6",
"XX c #4697C8",
"oX c #5899C3",
"OX c #4798D7",
"+X c #5395CE",
"@X c #6597C7",
"#X c #48A4DB",
"$X c #75ACCB",
"%X c #419DE6",
"&X c #45A8E7",
"*X c #4AA7F4",
"=X c #0EC5FA",
"-X c #838B94",
";X c #848999",
":X c #8C959C",
">X c #88969B",
",X c #93999A",
"<X c #8A8C8E",
"1X c #98A39F",
"2X c #8B9CAB",
"3X c #8897A5",
"4X c #929AA3",
"5X c #979AA7",
"6X c #879BB1",
"7X c #9499B3",
"8X c #A19CA0",
"9X c #9CA5AC",
"0X c #99A5AC",
"qX c #8BA5B6",
"wX c #9DABB4",
"eX c #98A9B6",
"rX c #9EB3BB",
"tX c #8AA6AB",
"yX c #A3ACB5",
"uX c #A5AEB9",
"iX c #A3B2BB",
"pX c #ABB3BB",
"aX c #AFB9BD",
"sX c #B6B9BA",
"dX c #A6A8A9",
"fX c #95ACC4",
"gX c #93B3CC",
"hX c #A3B4C3",
"jX c #ABB6C0",
"kX c #ABB9C4",
"lX c #ABBCCA",
"zX c #A4BDCA",
"xX c #B4BBC3",
"cX c #B2BDCB",
"vX c #BAB9C3",
"bX c #B1BAD0",
"nX c #CABAC4",
"mX c #B5C2CD",
"MX c #BBC3CB",
"NX c #BDCDC3",
"BX c #BBC6D1",
"VX c #AEC3CC",
"CX c #C1C6CC",
"ZX c #C5C8CD",
"AX c #C4CCD2",
"SX c #C5C8D0",
"DX c #C8D2D9",
"FX c #CED5D7",
"GX c #D6DCE5",
"HX c #DBE7EA",
"JX c #D2E8EC",
"KX c #E6EBF8",
"LX c #F5F6FA",
/* pixels */
". # . $ # . @ @ . . @ # # # # # . X X X . X . X X X X X . X X X # . # # # # # # # # X # # # # X X X # X X X X . X X X X X X . X ",
"# # . @ # # $ . X @ . # # @ # # X X . X . X X X X # X X $ X X # # # # # # # # # # # # # # # # # X X X X X # X $ # X X . . X X . ",
". # . . . . # . # X @ . # # # . X . X . X X X . # o # . X X X X X # # # # # # # # # # # # # # # X X X # # . o X . X X X X X X . ",
"# # @ # # . X @ # @ X # @ . X @ X . X X X . . X . X X # X X # X # . # # # # # # # # X # # X # # # X X X X X # X X # o @ . . X X ",
"# . . # $ # # # # # @ # X . @ . X X . . . X X . . # # X X X $ X X # # X # # # * # X * # # # # # X X X X X # @ X X X # X X X X . ",
"# @ # @ . @ . # # X # X . # . # . X X X X . X X . X . X X # X X # X # # # # # # # # X # # X # # X X X X o X X X X X X . X . X X ",
". # ; # # $ # # # @ # @ @ # # @ . X X X X . . X . . X X X X X # # X # # # # # # # # X # # # # # X o # # @ X # X # . X X # . . X ",
"# @ # . 6 y 6 . # . # . X . # # X X . . X X X X X X X X X $ # $ X # # # # # * # # # # # # # # # # X X X X X X X X # X . X X . X ",
". % . X ; Z 1.M - @ o # # & $ . % % @ @ X . X X . X X X # o # X # # # # # # # # X # # # # # # X X # . # X # X # X . X . X X X . ",
"# # $ $   2 } oX=.i * = X   & # O O       X # X . X . X X # X $ # # # # # # # # # # # # # # # # X # o X X . X X . X X . X . X X ",
"# @ @ & O . g O.&X4.M w o X & @ O . X # X . . X X X . X X # X # # # X # # X # # # # # X X X # # . # X X o # X X X X X X X . . X ",
"# # % # o X 9 ) C.L.v.} N 2   & ; # @ @ # $ X . X . # X X X X $ # # # # # # # # # # X * * # # # X X X # . # X @ X . . X X X X . ",
"- % # X X = 9 j { Z.Z.F.P.} i X   # # . . X o X X # X o X X X # # # # # # # X # # # # # # # # # # o @ X X X X o X . X X . . X X ",
"5 , % $ % 3 4 = j ] $.r.Y.P.N.N : > O O O . . X X X X @ X @ X X # X # # # # # # # X # # # # X # X X # X X # # X X X . . X X X . ",
"8 9 6 2 % 9 e e p b ' &.9.E.&Xc.*.m 4 # $ o . @ X X X X o # # X # # # X X # # # # # # X X # # # . # X X . X X X . X # X X X X . ",
"d 8 1 3 4 5 9 n r d | B.V.Z.E.XXF.I.4.j % X $ X . X # X X X X . # # # # # # # # # # # # # # # # o X X X # # o # . X . X . . X X ",
"g h n n e e e e d s V w.E.r.+.K.G.Q.|.oXZ * O X @ # # # # # . X ; # # # # # # . +   % & X X X # % o O # = o   X . O X . # % X . ",
"v c g d a p e 8 s p c | y.Z.+.o.G.L.`.|.s.k   % $ # $ # . # # # . # # # # # $ # % % $ . O + X % # o @ # O O o , # # o # . @ X $ ",
"_ ) B c g d a p 0 a d v o.Y.Z.8.Z.OX/.'.}.} 1 o @ . @ $ # . $ . # # # X # # # . % % = = * # = k @.V s 3 , , , # # @ . . # # . . ",
"X.X.` ) B v c f p r s d v o.C.0.C.].P.E.`..Xz # . @ . $ # $ % . $ # $ # . # % 2 , 1 < = % r ] U.*X!.B.C j g a 2 0 1 = # X O . X ",
"o.o.O.X.` ) ) v c f a d h V ..0.0.Q.{.L.~.G.-.6 @ ; @   $ # # # # . X X % = 1 3 4 0 4 < j #.}.(.Y.9.$.#X#Xd._ m p s p 7 = X O + ",
"O.O.9.O.o.o.X.` ) B x g g h V 7.r.e.R.P.J.R.b.I % # # X # # @ $ # # : $ @ < 7 8 e 8 x @.H.L.Z.e.o.F.OX^.(.`.E.V.' B v f r % . . ",
"X.+.O.9.9.B.8.O.o.| _ ) B x h ` 9.$.B.P.r.W.~.c.k o # X # $ . # X q P D t 7 8 a s [ L.!.R.0.r.s.5.P.(.).Q.W.Y.~.&XL.O._ g 7 % # ",
"` X.B.B.C.w.C.C.R.V.0.o.| _ B B 7.e.t.0.G.t.Q.}.E < @ @ O : ; ; u u ! ~ z r a m $.E.R.y.7...%.XXd.I.~.u.y.F.XX*X_.].`.S.` a % # ",
"v ) X.B.A.A.S.A.A.R.A.T.B.O.X.` B q.0.0.~.P.8.Q.#X=.q > D ! F ! ! F u S z a ] v..Xe.q.o.%.G.^.R.W.0..X3.3.OX/.).R.(.).).!.+.n $ ",
"V B _ | O.B.R.`._._.)._.[.R.A.C.B.] @.%.r.!.G.V.P.b.-X! CX,X,.<.-XU U U Z +.{.D.p..X#.%.P.E.W.u.u.w.t.n.v.I.E.T.Q.Q.W.T.$.C 6 O ",
"a x B ` X.O.C.[._.].'.]._.|.].[.L.Y W *.%.T.~.v.*XoXg.3XhXAXzX9X<.z.z.;.k.F.q.o.@..Xb.s.T.q.y.y.t.P.U.!.W.T.J.J.Y.Y.0.[ m 5 X O ",
"= e h ) X.X.O.A.[._.[.=X=X=X=X=Xn.:./ ~ k.%.y.K.G.#XM.a.l.iXCXHXFXlX3X2.k.5.&.&.s.}.!.K..Xr.e.p.&X{.W.W.u.u.q...@.{ ' m 7 # X X ",
"o = 3 a v _ X.O.C.[._.=X].].=X=XY ^ <X,X<X1.#.0.K.D.XX2.^ 2XvX1XKXKXJXJXlXVX$Xd.A.y.w.7.t.@XoXP.Y.W.u.u.q.6...C z k e 1 = % & @ ",
"% # . # 1 a B | O.C.[.'.].=X=XH.~ ^ l.9X9XtXh.5.p.f.E.OXW 3X7X-XbXHXHXHXKXKX$X7.q.6.7.t.+X}.P.$XZ.q.i.q.o.' k 6 # # % % . . X X ",
". $ X O O % 8 h B X.B.A._.].[.n.>X7X>X,XjXmXpXdX8X5.0.E.oXeX>X;.2XwXaXkXvXhX4. .| 6.P.OX~.Y.9.e.@XG.6.&.C t < , = # + $ $ $ $   ",
". X % # $ # X * e x _ O.D._. X=.l.NXsX>X3XpXZXMXsXvX0Xs.t.a.( g.dX1X7X7X;Xm.)  .&.G.J.9.w.w.q.q. .#.C V g 7 - @ @ X X O . # # # ",
"$ . $ # @ # @ # & 0 M V ` B.#.<.<X4XaXMXdX;X9XCXcXDXDXBX3Xk.E R ,.h.j.2.3X1.Z 4.v.$.o.7.o.6. . .Z m k 7 < = .   X X X X X # # X ",
"@ @ @ . # # # # $ $ P 2.} A Y -X4X9X:X0XBXxX4X4XvXAXDXGXHXmX-XS H H ! L D =.M.M.$XgXgX@.| o.} z r 4 < % = X . + X X X X X + X X ",
"@ X @ $ X # . # . X ; u 8XsX;.>.-XcXxX>X4XpXvXuXdXZXZXSXHXKXFXj.S P H R -X2XtXtXeXeX2XfX4.Z 0 o # # # # = X o * X X X X X X X # ",
"@ $ . $ @ # # # * # X + i ,XMXl.,.-XpXMX0X:XyXpXsXsXZXZXFXGXLXsX:XwXjXyXl.2.m.qX7X6XzXrX,Xw $ 3 o X o X O . . X X X * X * X X X ",
". @ X $ # # X # X @ & = . : <.MX4Xg.g.yXMX9X:X,XsXuXCXDXDXGXGXdXaXAX0XE =.k.6XfX6XhXhXlXhXT *   # # X X . O . . X X + X X X X X ",
"$ @ . @ @ # @ # * o o . % @ o F aX0Xg.:.4XpXpX:X4XpXBXxXAXGXxXyXDXeXE T >.l.6Xm.qXkXjXbXVXl.: > = = # * # + X . X # # # X X X X ",
". @ $ @ # # # # *   $ # X * O + y 0XjXg.;.4XuXpXuXpXMXvXCXMX4XDXmX=.H >.>.k.z.z.rXlXkXjXvX0Xq = X X X # # # X . X X X X # X + # ",
"$ $ X @ X # # X @ % # # . @ % @ X q <.jXz.g.pXpXsXyXvXCXMXvXh.cX4XS U R ;.l.:.6XuXfXzXVXmX9Xy = o X X X X # # # X # X X X X X # ",
"@ @ $ @ . # # @ # # # # # # X * # * $ ! 9X-X:XaXkXpXaXMXDX:Xh.uXE S T E :.l.g.2XwXrXhXbXcXeXu w X X X X X X X X X X # X X # X X ",
"$ X X @ # # # # # # # X X * # # . X - . S 9X:X:XiXxXxXCXZX~ j.4XG K T >.l.hXl.g.0XrXlXlXlX0XH S X * X # # # O X * X # + X X X X ",
". @ . # @ # # @ # # # # # # # X - . . * . u :X9X0XiXaXMXuX! h.,.N L T ;.>X0X>XuXrXwXhXlXmX:XS u * X X X X + X X X X X X X # X # ",
"@ $ $ @ X # # X X # # # # X # * X X # X # X q h.yX9X9XsX,X! <.! H P T ;.:.T ~ kXhXiXhXlXcX,.; * X X X X # # X X X X X X X X # + ",
". $ @ $ # @ # X # # X # X # # # . # * X # $ . - N l F <X,.U ,.L H L Q >.Q L Q :XeXhXlXkXjXK X . * X X X X X X X X X X X X X X X ",
"# @ X @ # # @ # # # * X # # * # * # # # X # X X X # $ y y y ~ K G L E :.>.;X3X2XeXhXkXmXyXu - * X X X * X X X X X # X X X # X X ",
"$ @ $ . # # # # # # # # # # # # . # . # # . $ # . # @ O X - R U J L T >.:.6XqXrXhXjXkXhX<.2 6 ; X * X X X # X X X X # # X X * X ",
"@ . @ @ # @ o # # # X # # # # # # # # # # # $ . # . # # . # S R H J E E :.3X6XeXiXlXmX4Xy - : = X X X X X # O X X * + X X X X X ",
"# @ # # # @ # # @ # @ # X @ # # # # # # # # # # X X # # # $ l ! J K L U k.3X6XeXhXlXuXD X # $ X + # X X X X X X X X X X X X # X ",
"# # . # # X # X # # # # # # # X # # # X # # # # * X # * # # q R G H P J z.6XqXrXzXiX! 2 . ; . % # # # X X X X X O X # # X # X * ",
"@ # # $ # @ $ # @ # # # # X @ # # # # # # X # # # # * X = . % S Y L G Z m.6XfXhX5XU q . X $ @ # X X X X X X X X X X X + X # X + ",
"X # # @ # X @ X X # @ X # @ # # X # # # # # # # # # $ . $ # X w T =.T Y M.fXeX0XH = # $ # # # @ * * X X X X X X X X # X X X # # ",
"# # # # X # @ # # # X # # $ @ X # X # # # X # # # = X X # # # X q ~ z.:.k.k.U q ; X # . # # = # X X X X + # X X X X X # X # + # ",
"@ # @ # # @ # # @ # @ # @ X # # # # # # # # # # # # % ; # X $ X @ : q l z 2 . o . # # . # $ # # * X X X X # X X X X # + X X # # ",
"X # @ # # # # # X # # @ @ # # @ # # X # # # # # # # % # # # # * # # . @ % % X X # # . # # X X X X * X X X X X X X X X X X X # # ",
"# # X # # . # @ # # # # X # # X # # # # # # # X # # ; @ # ; . # % . ; . # # # # # # . X # . X X X X X X X X X X X X X X X X * X ",
"# # # X # @ # . @ X # @ # @ X # # # X # # # # # # # = # * # # # X X # # # # # # # # # # # # # # # X X # X X # + . X X X # X # * ",
". # @ # # # # # # # # # # # # # # # # # # # # # # # X # # # # X # # # # X # # # X X # # # X # # X X X # # X # X X X X # # * X X ",
"# # @ # # @ # # . X @ . . # . @ X # # X X X # # # * # # # # # = # X # # # # # # # * # X # # # X X X X + X X # X X X X + X * * X ",
"# # # # # X @ # # @ X # # # . # # X # # X # # X # # # * # # # # # # # # # # # X # # # # # # # # X X # X X X X X X X X X X X X * ",
"@ # @ X # # @ # # . X @ @ . # @ # # X X X # # # # = X # # # # # # # X # # X # # # # # # # # # X # # # X X X # X O * X X # * X o ",
"# # # # # X # X # # # # # # # # # # # # # # # # # # # # # # * # # # # # # # # # # # # # # # # # X + X X # # X X X X X X * X X * ",
"# @ # @ # @ # # # # # # $ # # # # # # # # # # # # # # # # * # * # # # # # # # # # X # # # # # # X X X X X + X X X X X X # X # * ",
"# X # # # # @ @ $ $ # # % $ # # # * # # = # $ * # # # * # # # # X # # # # X # # # # # # # X # X * X X # X X # X X X X X * X * X "
};
